<svg width="274" height="17" viewBox="0 0 274 17" fill="none" xmlns="http://www.w3.org/2000/svg">
<path d="M8.72273 13.7334H6.69981L5.95746 10.3742H2.70966L1.94874 13.7334H6.24501e-05L3.30354 0.556611H5.40069L8.72273 13.7334ZM4.32428 3.13629L3.08083 8.72251H5.58628L4.32428 3.13629ZM9.62355 -0.000154481H11.4609V13.7334H9.62355V-0.000154481ZM13.1396 -0.000154481H14.9769V13.7334H13.1396V-0.000154481ZM25.9967 13.7334H19.5567V0.556611H25.9039V2.18979H21.5054V6.1985H25.5141V7.81312H21.5054V12.0631H25.9967V13.7334ZM29.3716 13.9561C27.8498 13.9561 27.2559 12.8055 27.2559 11.4507V4.19415H29.0747V11.0795C29.0747 11.9146 29.3902 12.4343 30.114 12.4343C30.9306 12.4343 31.376 11.8218 31.376 10.6526V4.19415H33.2133V13.7334H31.5059L31.4502 12.5827C31.1162 13.3808 30.4109 13.9561 29.3716 13.9561ZM36.7256 13.7334H34.8882V4.19415H36.6142L36.6699 5.86444C36.9483 4.69524 37.635 3.99 38.5629 3.99C38.7114 3.99 38.8413 4.00856 38.9341 4.02712V5.84588C38.767 5.82733 38.6 5.80877 38.3959 5.80877C37.3937 5.80877 36.7256 6.6068 36.7256 8.40701V13.7334ZM42.7874 13.9561C40.7088 13.9561 39.5024 12.5085 39.5024 9.52054V8.38845C39.5024 5.41903 40.7088 3.95288 42.7874 3.95288C44.8845 3.95288 46.0908 5.41903 46.0908 8.38845V9.52054C46.0908 12.5085 44.8845 13.9561 42.7874 13.9561ZM42.7874 12.4714C43.7895 12.4714 44.2349 11.7476 44.2349 9.68757V8.23998C44.2349 6.16139 43.7895 5.45615 42.7874 5.45615C41.8037 5.45615 41.3583 6.16139 41.3583 8.22142V9.68757C41.3583 11.7476 41.8037 12.4714 42.7874 12.4714ZM49.2673 13.7334H47.43V4.19415H49.1374L49.1931 5.3448C49.5457 4.56532 50.2695 3.95288 51.3088 3.95288C52.2924 3.95288 52.9791 4.47253 53.276 5.38191C53.573 4.69524 54.371 3.95288 55.5031 3.95288C57.0435 3.95288 57.6188 5.19632 57.6188 6.53256V13.7334H55.8V6.90374C55.8 6.06859 55.5031 5.49327 54.7422 5.49327C53.9256 5.49327 53.443 6.08715 53.443 7.25636V13.7334H51.6243V6.90374C51.6243 6.06859 51.3273 5.49327 50.5479 5.49327C49.7498 5.49327 49.2673 6.08715 49.2673 7.25636V13.7334ZM61.0664 -0.000154481V2.76511H59.1919V-0.000154481H61.0664ZM59.2105 4.19415H61.0478V13.7334H59.2105V4.19415ZM62.7265 -0.000154481H64.5639V13.7334H62.7265V-0.000154481ZM66.2426 -0.000154481H68.0799V13.7334H66.2426V-0.000154481ZM71.6145 -0.000154481V2.76511H69.74V-0.000154481H71.6145ZM69.7586 4.19415H71.5959V13.7334H69.7586V4.19415ZM76.244 13.9561C74.1655 13.9561 72.9591 12.5085 72.9591 9.52054V8.38845C72.9591 5.41903 74.1655 3.95288 76.244 3.95288C78.3412 3.95288 79.5475 5.41903 79.5475 8.38845V9.52054C79.5475 12.5085 78.3412 13.9561 76.244 13.9561ZM76.244 12.4714C77.2462 12.4714 77.6916 11.7476 77.6916 9.68757V8.23998C77.6916 6.16139 77.2462 5.45615 76.244 5.45615C75.2604 5.45615 74.815 6.16139 74.815 8.22142V9.68757C74.815 11.7476 75.2604 12.4714 76.244 12.4714ZM82.724 13.7334H80.8867V4.19415H82.5941L82.6498 5.3448C83.0024 4.56532 83.7447 3.95288 84.784 3.95288C86.3244 3.95288 86.9183 5.19632 86.9183 6.53256V13.7334H85.0995V6.90374C85.0995 6.06859 84.784 5.49327 84.0231 5.49327C83.2251 5.49327 82.724 6.08715 82.724 7.25636V13.7334ZM91.0421 13.9561C89.1862 13.9561 88.2026 12.8611 88.0913 10.7825H89.8358C89.8915 12.026 90.3183 12.5271 91.0607 12.5271C91.7474 12.5271 92.0814 12.1745 92.0814 11.1908C92.0814 10.3186 91.8402 9.91027 90.6895 9.61333C89.3718 9.26071 88.2769 8.68539 88.2769 6.8295C88.2769 4.97362 89.4089 3.95288 91.0607 3.95288C92.7867 3.95288 93.696 5.06641 93.7703 6.9223H92.0629C92.0072 5.82733 91.7288 5.38191 91.0421 5.38191C90.3926 5.38191 90.0399 5.75309 90.0399 6.62536C90.0399 7.53474 90.3554 7.83168 91.4504 8.12862C92.9537 8.53692 93.8816 9.14936 93.8816 10.9681C93.8816 12.8611 92.8795 13.9561 91.0421 13.9561ZM101.149 13.7334H99.2192L97.3633 4.19415H99.2006L100.296 11.3022L101.409 4.19415H103.191L104.304 11.3207L105.455 4.19415H107.237L105.344 13.7334H103.432L102.3 6.90374L101.149 13.7334ZM110.073 -0.000154481V2.76511H108.199V-0.000154481H110.073ZM108.217 4.19415H110.055V13.7334H108.217V4.19415ZM113.571 13.7334H111.734V4.19415H113.441L113.497 5.3448C113.849 4.56532 114.592 3.95288 115.631 3.95288C117.171 3.95288 117.765 5.19632 117.765 6.53256V13.7334H115.946V6.90374C115.946 6.06859 115.631 5.49327 114.87 5.49327C114.072 5.49327 113.571 6.08715 113.571 7.25636V13.7334ZM121.183 13.7334H119.346V4.19415H121.053L121.109 5.3448C121.461 4.56532 122.204 3.95288 123.243 3.95288C124.783 3.95288 125.377 5.19632 125.377 6.53256V13.7334H123.558V6.90374C123.558 6.06859 123.243 5.49327 122.482 5.49327C121.684 5.49327 121.183 6.08715 121.183 7.25636V13.7334ZM129.908 13.9561C127.811 13.9561 126.642 12.5085 126.642 9.52054V8.38845C126.642 5.41903 127.83 3.95288 129.908 3.95288C132.377 3.95288 133.286 5.79021 133.119 9.33495H128.498V9.68757C128.498 11.7476 128.906 12.4714 129.908 12.4714C130.781 12.4714 131.133 11.8033 131.263 10.8011H133.082C132.822 12.6199 131.894 13.9561 129.908 13.9561ZM128.498 7.98015H131.3C131.263 6.08715 130.892 5.45615 129.927 5.45615C128.962 5.45615 128.535 6.10571 128.498 7.98015ZM136.208 13.7334H134.37V4.19415H136.096L136.152 5.86444C136.43 4.69524 137.117 3.99 138.045 3.99C138.193 3.99 138.323 4.00856 138.416 4.02712V5.84588C138.249 5.82733 138.082 5.80877 137.878 5.80877C136.876 5.80877 136.208 6.6068 136.208 8.40701V13.7334ZM141.88 13.9561C140.024 13.9561 139.04 12.8611 138.929 10.7825H140.673C140.729 12.026 141.156 12.5271 141.898 12.5271C142.585 12.5271 142.919 12.1745 142.919 11.1908C142.919 10.3186 142.678 9.91027 141.527 9.61333C140.209 9.26071 139.114 8.68539 139.114 6.8295C139.114 4.97362 140.246 3.95288 141.898 3.95288C143.624 3.95288 144.534 5.06641 144.608 6.9223H142.9C142.845 5.82733 142.566 5.38191 141.88 5.38191C141.23 5.38191 140.877 5.75309 140.877 6.62536C140.877 7.53474 141.193 7.83168 142.288 8.12862C143.791 8.53692 144.719 9.14936 144.719 10.9681C144.719 12.8611 143.717 13.9561 141.88 13.9561ZM151.82 13.9561C149.815 13.9561 148.572 12.5271 148.572 9.52054V8.38845C148.572 5.41903 149.815 3.95288 151.82 3.95288C153.639 3.95288 154.734 5.17777 154.771 7.49762H152.97C152.97 6.16139 152.655 5.45615 151.82 5.45615C150.892 5.45615 150.428 6.14283 150.428 8.22142V9.68757C150.428 11.729 150.873 12.4714 151.801 12.4714C152.618 12.4714 152.989 11.729 152.989 10.3742H154.771C154.734 12.7127 153.601 13.9561 151.82 13.9561ZM157.922 13.9561C156.567 13.9561 155.639 12.9354 155.639 11.2465C155.639 9.61333 156.511 8.61115 158.256 8.33277L159.759 8.09151V6.79239C159.759 5.77165 159.388 5.38191 158.775 5.38191C158.052 5.38191 157.68 5.84588 157.662 7.12645H155.899C155.917 5.0293 157.049 3.95288 158.85 3.95288C160.52 3.95288 161.578 4.95506 161.578 6.81095V13.7334H159.908L159.815 12.6941C159.481 13.5293 158.813 13.9561 157.922 13.9561ZM158.516 12.5271C159.277 12.5271 159.759 11.8218 159.759 10.764V9.50198L158.646 9.68757C157.885 9.79892 157.476 10.3 157.476 11.1537C157.476 11.9889 157.829 12.5271 158.516 12.5271ZM165.006 13.7334H163.169V4.19415H164.877L164.932 5.3448C165.285 4.56532 166.027 3.95288 167.066 3.95288C168.607 3.95288 169.201 5.19632 169.201 6.53256V13.7334H167.382V6.90374C167.382 6.06859 167.066 5.49327 166.306 5.49327C165.508 5.49327 165.006 6.08715 165.006 7.25636V13.7334ZM176.206 13.9561C174.35 13.9561 173.367 12.8611 173.255 10.7825H175C175.056 12.026 175.482 12.5271 176.225 12.5271C176.911 12.5271 177.246 12.1745 177.246 11.1908C177.246 10.3186 177.004 9.91027 175.854 9.61333C174.536 9.26071 173.441 8.68539 173.441 6.8295C173.441 4.97362 174.573 3.95288 176.225 3.95288C177.951 3.95288 178.86 5.06641 178.934 6.9223H177.227C177.171 5.82733 176.893 5.38191 176.206 5.38191C175.557 5.38191 175.204 5.75309 175.204 6.62536C175.204 7.53474 175.52 7.83168 176.615 8.12862C178.118 8.53692 179.046 9.14936 179.046 10.9681C179.046 12.8611 178.044 13.9561 176.206 13.9561ZM183.064 13.9561C181.524 13.9561 180.689 13.0096 180.689 11.6548V5.60462H179.52V4.19415H180.689V1.39176H182.526V4.19415H184.141V5.60462H182.526V11.4878C182.526 12.1188 182.823 12.4714 183.436 12.4714C183.751 12.4714 184.011 12.3786 184.178 12.2858V13.7705C183.9 13.8819 183.454 13.9561 183.064 13.9561ZM187.355 13.9561C186 13.9561 185.072 12.9354 185.072 11.2465C185.072 9.61333 185.944 8.61115 187.689 8.33277L189.192 8.09151V6.79239C189.192 5.77165 188.821 5.38191 188.209 5.38191C187.485 5.38191 187.114 5.84588 187.095 7.12645H185.332C185.351 5.0293 186.483 3.95288 188.283 3.95288C189.953 3.95288 191.011 4.95506 191.011 6.81095V13.7334H189.341L189.248 12.6941C188.914 13.5293 188.246 13.9561 187.355 13.9561ZM187.949 12.5271C188.71 12.5271 189.192 11.8218 189.192 10.764V9.50198L188.079 9.68757C187.318 9.79892 186.909 10.3 186.909 11.1537C186.909 11.9889 187.262 12.5271 187.949 12.5271ZM195.096 16.8884H193.203L194.038 13.6963L191.626 4.19415H193.519L195.003 11.0238L196.432 4.19415H198.27L195.096 16.8884ZM204.011 13.9561C202.656 13.9561 201.728 12.9354 201.728 11.2465C201.728 9.61333 202.6 8.61115 204.345 8.33277L205.848 8.09151V6.79239C205.848 5.77165 205.477 5.38191 204.864 5.38191C204.141 5.38191 203.769 5.84588 203.751 7.12645H201.988C202.006 5.0293 203.138 3.95288 204.939 3.95288C206.609 3.95288 207.667 4.95506 207.667 6.81095V13.7334H205.997L205.904 12.6941C205.57 13.5293 204.902 13.9561 204.011 13.9561ZM204.605 12.5271C205.366 12.5271 205.848 11.8218 205.848 10.764V9.50198L204.735 9.68757C203.974 9.79892 203.565 10.3 203.565 11.1537C203.565 11.9889 203.918 12.5271 204.605 12.5271ZM211.095 13.7334H209.258V4.19415H210.966L211.021 5.3448C211.374 4.56532 212.116 3.95288 213.155 3.95288C214.696 3.95288 215.29 5.19632 215.29 6.53256V13.7334H213.471V6.90374C213.471 6.06859 213.155 5.49327 212.395 5.49327C211.597 5.49327 211.095 6.08715 211.095 7.25636V13.7334ZM219.84 13.9561C217.761 13.9561 216.555 12.5085 216.555 9.52054V8.38845C216.555 5.41903 217.761 3.95288 219.84 3.95288C221.937 3.95288 223.143 5.41903 223.143 8.38845V9.52054C223.143 12.5085 221.937 13.9561 219.84 13.9561ZM219.84 12.4714C220.842 12.4714 221.287 11.7476 221.287 9.68757V8.23998C221.287 6.16139 220.842 5.45615 219.84 5.45615C218.856 5.45615 218.411 6.16139 218.411 8.22142V9.68757C218.411 11.7476 218.856 12.4714 219.84 12.4714ZM226.32 13.7334H224.482V4.19415H226.19L226.245 5.3448C226.598 4.56532 227.34 3.95288 228.38 3.95288C229.92 3.95288 230.514 5.19632 230.514 6.53256V13.7334H228.695V6.90374C228.695 6.06859 228.38 5.49327 227.619 5.49327C226.821 5.49327 226.32 6.08715 226.32 7.25636V13.7334ZM234.588 16.8884H232.695L233.53 13.6963L231.118 4.19415H233.011L234.495 11.0238L235.924 4.19415H237.762L234.588 16.8884ZM240.583 13.7334H238.746V4.19415H240.453L240.509 5.3448C240.861 4.56532 241.585 3.95288 242.624 3.95288C243.608 3.95288 244.295 4.47253 244.592 5.38191C244.889 4.69524 245.687 3.95288 246.819 3.95288C248.359 3.95288 248.934 5.19632 248.934 6.53256V13.7334H247.116V6.90374C247.116 6.06859 246.819 5.49327 246.058 5.49327C245.241 5.49327 244.759 6.08715 244.759 7.25636V13.7334H242.94V6.90374C242.94 6.06859 242.643 5.49327 241.864 5.49327C241.066 5.49327 240.583 6.08715 240.583 7.25636V13.7334ZM253.496 13.9561C251.417 13.9561 250.211 12.5085 250.211 9.52054V8.38845C250.211 5.41903 251.417 3.95288 253.496 3.95288C255.593 3.95288 256.799 5.41903 256.799 8.38845V9.52054C256.799 12.5085 255.593 13.9561 253.496 13.9561ZM253.496 12.4714C254.498 12.4714 254.943 11.7476 254.943 9.68757V8.23998C254.943 6.16139 254.498 5.45615 253.496 5.45615C252.512 5.45615 252.067 6.16139 252.067 8.22142V9.68757C252.067 11.7476 252.512 12.4714 253.496 12.4714ZM260.089 13.9561C258.567 13.9561 257.973 12.8055 257.973 11.4507V4.19415H259.792V11.0795C259.792 11.9146 260.107 12.4343 260.831 12.4343C261.648 12.4343 262.093 11.8218 262.093 10.6526V4.19415H263.93V13.7334H262.223L262.167 12.5827C261.833 13.3808 261.128 13.9561 260.089 13.9561ZM268.004 13.9561C266.148 13.9561 265.164 12.8611 265.053 10.7825H266.797C266.853 12.026 267.28 12.5271 268.022 12.5271C268.709 12.5271 269.043 12.1745 269.043 11.1908C269.043 10.3186 268.802 9.91027 267.651 9.61333C266.333 9.26071 265.238 8.68539 265.238 6.8295C265.238 4.97362 266.371 3.95288 268.022 3.95288C269.748 3.95288 270.658 5.06641 270.732 6.9223H269.024C268.969 5.82733 268.69 5.38191 268.004 5.38191C267.354 5.38191 267.002 5.75309 267.002 6.62536C267.002 7.53474 267.317 7.83168 268.412 8.12862C269.915 8.53692 270.843 9.14936 270.843 10.9681C270.843 12.8611 269.841 13.9561 268.004 13.9561ZM273.98 13.7334H271.957V11.5249H273.98V13.7334Z" fill="#231F20"/>
</svg>
