<svg width="177" height="247" viewBox="0 0 177 247" fill="none" xmlns="http://www.w3.org/2000/svg">
<g clip-path="url(#clip0_779_543)">
<path fill-rule="evenodd" clip-rule="evenodd" d="M53.4422 132.269C53.1724 132.292 52.7901 132.405 52.7227 132.746C52.6103 133.177 52.6777 148.503 52.7227 156.109C52.7227 157.221 52.7227 159.56 52.5203 160.037C52.5203 160.037 52.5203 160.082 52.4978 160.105C52.2055 160.786 51.2387 162.943 48.8102 162.943C46.3818 162.943 45.2126 160.672 45.1002 160.127C45.0327 159.81 45.0327 158.288 45.0327 157.176C45.0327 156.949 45.0327 156.745 45.0327 156.586V108.748C44.9652 108.543 44.7404 108.157 44.3581 108.157C43.8859 108.157 43.6386 108.748 43.6836 108.997C43.7285 109.179 43.6836 121.28 43.6836 127.297C43.6836 127.342 43.6836 127.411 43.6836 127.456C43.6836 128.273 43.6386 129.545 42.8966 130.317C42.2445 130.998 40.9853 131.089 40.5806 131.089C40.0409 131.089 39.0516 130.862 38.5794 130.203C38.1072 129.545 37.9723 128.069 37.9723 127.297V107.204C37.9723 106.046 38.6244 103.662 40.0409 102.322C41.435 101.005 42.2895 100.37 44.6954 100.188C46.4043 100.052 50.8114 100.12 53.4647 100.188C56.118 100.143 60.5251 100.075 62.234 100.188C64.6174 100.37 65.4944 101.028 66.8885 102.322C68.305 103.639 68.9346 106.046 68.9571 107.204V127.297C68.9571 128.069 68.8222 129.545 68.35 130.203C67.8778 130.862 66.8885 131.089 66.3488 131.089C65.9441 131.089 64.6624 130.998 64.0328 130.317C63.2908 129.545 63.2683 128.273 63.2458 127.456C63.2458 127.388 63.2458 127.342 63.2458 127.297C63.2458 121.28 63.2009 109.179 63.2458 108.997C63.3133 108.77 63.0435 108.157 62.5713 108.157C62.189 108.157 61.9642 108.543 61.8967 108.748V156.586C61.8967 157.63 61.8967 159.9 61.8293 160.241C61.7393 160.718 60.6375 162.943 58.1192 162.943C55.6008 162.943 54.7239 160.786 54.4316 160.105C54.4316 160.082 54.4316 160.059 54.4091 160.037C54.2067 159.56 54.1842 157.221 54.2067 156.109C54.2517 148.503 54.3192 133.177 54.2067 132.746C54.1168 132.405 53.757 132.292 53.4872 132.269H53.4422Z" fill="#FFFDF4"/>
<path d="M53.195 99.1665C57.3427 99.1665 60.7051 95.7714 60.7051 91.5832C60.7051 87.3951 57.3427 84 53.195 84C49.0473 84 45.6849 87.3951 45.6849 91.5832C45.6849 95.7714 49.0473 99.1665 53.195 99.1665Z" fill="#FFFDF4"/>
</g>
<g clip-path="url(#clip1_779_543)">
<path fill-rule="evenodd" clip-rule="evenodd" d="M88.4415 132.269C88.1717 132.292 87.7894 132.405 87.722 132.746C87.6095 133.177 87.677 148.503 87.722 156.109C87.722 157.221 87.722 159.56 87.5196 160.037C87.5196 160.037 87.5196 160.082 87.4971 160.105C87.2048 160.786 86.2379 162.943 83.8095 162.943C81.3811 162.943 80.2118 160.672 80.0994 160.127C80.032 159.81 80.032 158.288 80.032 157.176C80.032 156.949 80.032 156.745 80.032 156.586V108.748C79.9645 108.543 79.7397 108.157 79.3574 108.157C78.8852 108.157 78.6379 108.748 78.6828 108.997C78.7278 109.179 78.6828 121.28 78.6828 127.297C78.6828 127.342 78.6828 127.411 78.6828 127.456C78.6828 128.273 78.6379 129.545 77.8959 130.317C77.2438 130.998 75.9846 131.089 75.5799 131.089C75.0402 131.089 74.0509 130.862 73.5787 130.203C73.1065 129.545 72.9716 128.069 72.9716 127.297V107.204C72.9716 106.046 73.6236 103.662 75.0402 102.322C76.4343 101.005 77.2887 100.37 79.6947 100.188C81.4036 100.052 85.8107 100.12 88.464 100.188C91.1172 100.143 95.5244 100.075 97.2333 100.188C99.6167 100.37 100.494 101.028 101.888 102.322C103.304 103.639 103.934 106.046 103.956 107.204V127.297C103.956 128.069 103.821 129.545 103.349 130.203C102.877 130.862 101.888 131.089 101.348 131.089C100.943 131.089 99.6617 130.998 99.0321 130.317C98.2901 129.545 98.2676 128.273 98.2451 127.456C98.2451 127.388 98.2451 127.342 98.2451 127.297C98.2451 121.28 98.2001 109.179 98.2451 108.997C98.3126 108.77 98.0427 108.157 97.5705 108.157C97.1883 108.157 96.9634 108.543 96.896 108.748V156.586C96.896 157.63 96.896 159.9 96.8285 160.241C96.7386 160.718 95.6368 162.943 93.1184 162.943C90.6001 162.943 89.7232 160.786 89.4308 160.105C89.4308 160.082 89.4308 160.059 89.4084 160.037C89.206 159.56 89.1835 157.221 89.206 156.109C89.251 148.503 89.3184 133.177 89.206 132.746C89.116 132.405 88.7563 132.292 88.4865 132.269H88.4415Z" fill="#FFFEEE"/>
<path d="M88.1951 99.1665C92.3428 99.1665 95.7052 95.7714 95.7052 91.5832C95.7052 87.3951 92.3428 84 88.1951 84C84.0474 84 80.685 87.3951 80.685 91.5832C80.685 95.7714 84.0474 99.1665 88.1951 99.1665Z" fill="#FFFEEE"/>
</g>
<g clip-path="url(#clip2_779_543)">
<path fill-rule="evenodd" clip-rule="evenodd" d="M124.94 132.269C124.661 132.292 124.267 132.405 124.197 132.746C124.081 133.177 124.151 148.503 124.197 156.109C124.197 157.221 124.197 159.56 123.988 160.037C123.988 160.037 123.988 160.082 123.965 160.105C123.663 160.786 122.665 162.943 120.158 162.943C117.652 162.943 116.445 160.672 116.329 160.127C116.259 159.81 116.259 158.288 116.259 157.176C116.259 156.949 116.259 156.745 116.259 156.586V108.748C116.189 108.543 115.957 108.157 115.563 108.157C115.075 108.157 114.82 108.748 114.866 108.997C114.913 109.179 114.866 121.28 114.866 127.297C114.866 127.342 114.866 127.411 114.866 127.456C114.866 128.273 114.82 129.545 114.054 130.317C113.381 130.998 112.081 131.089 111.663 131.089C111.106 131.089 110.085 130.862 109.597 130.203C109.11 129.545 108.971 128.069 108.971 127.297V107.204C108.971 106.046 109.644 103.662 111.106 102.322C112.545 101.005 113.427 100.37 115.911 100.188C117.675 100.052 122.224 100.12 124.963 100.188C127.702 100.143 132.251 100.075 134.015 100.188C136.475 100.37 137.381 101.028 138.82 102.322C140.282 103.639 140.932 106.046 140.955 107.204V127.297C140.955 128.069 140.816 129.545 140.328 130.203C139.841 130.862 138.82 131.089 138.263 131.089C137.845 131.089 136.522 130.998 135.872 130.317C135.106 129.545 135.083 128.273 135.06 127.456C135.06 127.388 135.06 127.342 135.06 127.297C135.06 121.28 135.013 109.179 135.06 108.997C135.129 108.77 134.851 108.157 134.363 108.157C133.969 108.157 133.737 108.543 133.667 108.748V156.586C133.667 157.63 133.667 159.9 133.597 160.241C133.504 160.718 132.367 162.943 129.768 162.943C127.168 162.943 126.263 160.786 125.961 160.105C125.961 160.082 125.961 160.059 125.938 160.037C125.729 159.56 125.706 157.221 125.729 156.109C125.775 148.503 125.845 133.177 125.729 132.746C125.636 132.405 125.265 132.292 124.986 132.269H124.94Z" fill="#FFFDF4"/>
<path d="M124.685 99.1665C128.966 99.1665 132.437 95.7714 132.437 91.5832C132.437 87.3951 128.966 84 124.685 84C120.403 84 116.932 87.3951 116.932 91.5832C116.932 95.7714 120.403 99.1665 124.685 99.1665Z" fill="#FFFDF4"/>
</g>
<g clip-path="url(#clip3_779_543)">
<path fill-rule="evenodd" clip-rule="evenodd" d="M161.441 132.271C161.172 132.293 160.789 132.407 160.722 132.748C160.609 133.179 160.677 148.504 160.722 156.11C160.722 157.223 160.722 159.561 160.519 160.038C160.519 160.038 160.519 160.084 160.497 160.106C160.205 160.787 159.238 162.944 156.809 162.944C154.381 162.944 153.212 160.674 153.099 160.129C153.032 159.811 153.032 158.29 153.032 157.177C153.032 156.95 153.032 156.746 153.032 156.587V108.749C152.964 108.545 152.74 108.159 152.357 108.159C151.885 108.159 151.638 108.749 151.683 108.999C151.728 109.18 151.683 121.282 151.683 127.298C151.683 127.344 151.683 127.412 151.683 127.457C151.683 128.275 151.638 129.546 150.896 130.318C150.244 130.999 148.984 131.09 148.58 131.09C148.04 131.09 147.051 130.863 146.579 130.205C146.106 129.546 145.971 128.07 145.971 127.298V107.205C145.971 106.047 146.624 103.663 148.04 102.324C149.434 101.007 150.289 100.371 152.695 100.189C154.403 100.053 158.811 100.121 161.464 100.189C164.117 100.144 168.524 100.076 170.233 100.189C172.617 100.371 173.494 101.03 174.888 102.324C176.304 103.641 176.934 106.047 176.956 107.205V127.298C176.956 128.07 176.821 129.546 176.349 130.205C175.877 130.863 174.888 131.09 174.348 131.09C173.943 131.09 172.662 130.999 172.032 130.318C171.29 129.546 171.267 128.275 171.245 127.457C171.245 127.389 171.245 127.344 171.245 127.298C171.245 121.282 171.2 109.18 171.245 108.999C171.312 108.772 171.043 108.159 170.57 108.159C170.188 108.159 169.963 108.545 169.896 108.749V156.587C169.896 157.631 169.896 159.902 169.828 160.242C169.738 160.719 168.637 162.944 166.118 162.944C163.6 162.944 162.723 160.787 162.431 160.106C162.431 160.084 162.431 160.061 162.408 160.038C162.206 159.561 162.183 157.223 162.206 156.11C162.251 148.504 162.318 133.179 162.206 132.748C162.116 132.407 161.756 132.293 161.486 132.271H161.441Z" fill="#FFFDF4"/>
<path d="M161.194 99.1665C165.342 99.1665 168.704 95.7714 168.704 91.5832C168.704 87.3951 165.342 84 161.194 84C157.046 84 153.684 87.3951 153.684 91.5832C153.684 95.7714 157.046 99.1665 161.194 99.1665Z" fill="#FFFDF4"/>
</g>
<g clip-path="url(#clip4_779_543)">
<path fill-rule="evenodd" clip-rule="evenodd" d="M33.4414 48.2707C33.1715 48.2934 32.7893 48.4069 32.7218 48.7475C32.6094 49.1789 32.6769 64.5043 32.7218 72.1103C32.7218 73.2228 32.7218 75.5613 32.5195 76.0381C32.5195 76.0381 32.5195 76.0835 32.497 76.1062C32.2047 76.7874 31.2378 78.9443 28.8094 78.9443C26.381 78.9443 25.2117 76.6738 25.0993 76.1289C25.0318 75.8111 25.0318 74.2899 25.0318 73.1774C25.0318 72.9503 25.0318 72.746 25.0318 72.587V24.749C24.9644 24.5447 24.7395 24.1587 24.3573 24.1587C23.8851 24.1587 23.6377 24.749 23.6827 24.9988C23.7277 25.1804 23.6827 37.2818 23.6827 43.2985C23.6827 43.3439 23.6827 43.412 23.6827 43.4574C23.6827 44.2747 23.6377 45.5462 22.8957 46.3181C22.2437 46.9993 20.9845 47.0901 20.5797 47.0901C20.0401 47.0901 19.0507 46.863 18.5785 46.2046C18.1063 45.5462 17.9714 44.0704 17.9714 43.2985V23.2051C17.9714 22.0472 18.6235 19.6633 20.0401 18.3237C21.4342 17.0068 22.2886 16.3711 24.6946 16.1895C26.4034 16.0533 30.8106 16.1214 33.4639 16.1895C36.1171 16.1441 40.5243 16.076 42.2331 16.1895C44.6166 16.3711 45.4935 17.0295 46.8876 18.3237C48.3042 19.6405 48.9338 22.0472 48.9563 23.2051V43.2985C48.9563 44.0704 48.8214 45.5462 48.3492 46.2046C47.877 46.863 46.8876 47.0901 46.348 47.0901C45.9432 47.0901 44.6616 46.9993 44.032 46.3181C43.29 45.5462 43.2675 44.2747 43.245 43.4574C43.245 43.3893 43.245 43.3439 43.245 43.2985C43.245 37.2818 43.2 25.1804 43.245 24.9988C43.3124 24.7717 43.0426 24.1587 42.5704 24.1587C42.1882 24.1587 41.9633 24.5447 41.8959 24.749V72.587C41.8959 73.6314 41.8959 75.9019 41.8284 76.2425C41.7385 76.7192 40.6367 78.9443 38.1183 78.9443C35.6 78.9443 34.723 76.7874 34.4307 76.1062C34.4307 76.0835 34.4307 76.0608 34.4082 76.0381C34.2059 75.5613 34.1834 73.2228 34.2059 72.1103C34.2508 64.5043 34.3183 49.1789 34.2059 48.7475C34.1159 48.4069 33.7562 48.2934 33.4863 48.2707H33.4414Z" fill="#FFFDF4"/>
<path d="M33.1939 15.1665C37.3416 15.1665 40.704 11.7714 40.704 7.58325C40.704 3.39513 37.3416 0 33.1939 0C29.0462 0 25.6838 3.39513 25.6838 7.58325C25.6838 11.7714 29.0462 15.1665 33.1939 15.1665Z" fill="#FFFDF4"/>
</g>
<g clip-path="url(#clip5_779_543)">
<path fill-rule="evenodd" clip-rule="evenodd" d="M15.9406 132.271C15.6621 132.293 15.2675 132.407 15.1978 132.748C15.0818 133.179 15.1514 148.504 15.1978 156.11C15.1978 157.223 15.1978 159.561 14.9889 160.038C14.9889 160.038 14.9889 160.084 14.9657 160.106C14.664 160.787 13.6659 162.944 11.1592 162.944C8.65242 162.944 7.44546 160.674 7.32941 160.129C7.25978 159.811 7.25978 158.29 7.25978 157.177C7.25978 156.95 7.25978 156.746 7.25978 156.587V108.749C7.19015 108.545 6.95804 108.159 6.56346 108.159C6.07603 108.159 5.82072 108.749 5.86714 108.999C5.91356 109.18 5.86714 121.282 5.86714 127.298C5.86714 127.344 5.86714 127.412 5.86714 127.457C5.86714 128.275 5.82072 129.546 5.05476 130.318C4.38165 130.999 3.08185 131.09 2.66406 131.09C2.107 131.09 1.08573 130.863 0.598308 130.205C0.110883 129.546 -0.0283813 128.07 -0.0283813 127.298V107.205C-0.0283813 106.047 0.644729 103.663 2.107 102.324C3.54607 101.007 4.42807 100.371 6.91162 100.189C8.67563 100.053 13.2249 100.121 15.9638 100.189C18.7027 100.144 23.252 100.076 25.016 100.189C27.4763 100.371 28.3815 101.03 29.8206 102.324C31.2829 103.641 31.9328 106.047 31.956 107.205V127.298C31.956 128.07 31.8167 129.546 31.3293 130.205C30.8419 130.863 29.8206 131.09 29.2635 131.09C28.8457 131.09 27.5227 130.999 26.8728 130.318C26.1069 129.546 26.0837 128.275 26.0604 127.457C26.0604 127.389 26.0604 127.344 26.0604 127.298C26.0604 121.282 26.014 109.18 26.0604 108.999C26.1301 108.772 25.8516 108.159 25.3641 108.159C24.9695 108.159 24.7374 108.545 24.6678 108.749V156.587C24.6678 157.631 24.6678 159.902 24.5982 160.242C24.5053 160.719 23.368 162.944 20.7684 162.944C18.1688 162.944 17.2636 160.787 16.9619 160.106C16.9619 160.084 16.9619 160.061 16.9386 160.038C16.7297 159.561 16.7065 157.223 16.7297 156.11C16.7762 148.504 16.8458 133.179 16.7297 132.748C16.6369 132.407 16.2655 132.293 15.987 132.271H15.9406Z" fill="#FFFDF4"/>
<path d="M15.6851 99.1665C19.9666 99.1665 23.4375 95.7714 23.4375 91.5832C23.4375 87.3951 19.9666 84 15.6851 84C11.4036 84 7.93274 87.3951 7.93274 91.5832C7.93274 95.7714 11.4036 99.1665 15.6851 99.1665Z" fill="#FFFDF4"/>
</g>
<g clip-path="url(#clip6_779_543)">
<path fill-rule="evenodd" clip-rule="evenodd" d="M71.9416 216.273C71.6631 216.295 71.2685 216.409 71.1989 216.749C71.0828 217.181 71.1525 232.506 71.1989 240.112C71.1989 241.225 71.1989 243.563 70.99 244.04C70.99 244.04 70.99 244.085 70.9668 244.108C70.665 244.789 69.667 246.946 67.1602 246.946C64.6535 246.946 63.4465 244.676 63.3304 244.131C63.2608 243.813 63.2608 242.292 63.2608 241.179C63.2608 240.952 63.2608 240.748 63.2608 240.589V192.751C63.1912 192.547 62.9591 192.161 62.5645 192.161C62.0771 192.161 61.8218 192.751 61.8682 193.001C61.9146 193.182 61.8682 205.284 61.8682 211.3C61.8682 211.346 61.8682 211.414 61.8682 211.459C61.8682 212.277 61.8218 213.548 61.0558 214.32C60.3827 215.001 59.0829 215.092 58.6651 215.092C58.108 215.092 57.0868 214.865 56.5993 214.207C56.1119 213.548 55.9727 212.072 55.9727 211.3V191.207C55.9727 190.049 56.6458 187.665 58.108 186.326C59.5471 185.009 60.4291 184.373 62.9127 184.191C64.6767 184.055 69.226 184.123 71.9648 184.191C74.7037 184.146 79.253 184.078 81.017 184.191C83.4773 184.373 84.3826 185.032 85.8216 186.326C87.2839 187.643 87.9338 190.049 87.957 191.207V211.3C87.957 212.072 87.8177 213.548 87.3303 214.207C86.8429 214.865 85.8216 215.092 85.2646 215.092C84.8468 215.092 83.5238 215.001 82.8739 214.32C82.1079 213.548 82.0847 212.277 82.0615 211.459C82.0615 211.391 82.0615 211.346 82.0615 211.3C82.0615 205.284 82.0151 193.182 82.0615 193.001C82.1311 192.774 81.8526 192.161 81.3652 192.161C80.9706 192.161 80.7385 192.547 80.6688 192.751V240.589C80.6688 241.633 80.6688 243.904 80.5992 244.244C80.5064 244.721 79.369 246.946 76.7694 246.946C74.1698 246.946 73.2646 244.789 72.9629 244.108C72.9629 244.085 72.9629 244.063 72.9397 244.04C72.7308 243.563 72.7076 241.225 72.7308 240.112C72.7772 232.506 72.8468 217.181 72.7308 216.749C72.6379 216.409 72.2666 216.295 71.988 216.273H71.9416Z" fill="#FFFDF4"/>
<path d="M71.6862 183.169C75.9677 183.169 79.4385 179.774 79.4385 175.586C79.4385 171.398 75.9677 168.002 71.6862 168.002C67.4046 168.002 63.9338 171.398 63.9338 175.586C63.9338 179.774 67.4046 183.169 71.6862 183.169Z" fill="#FFFDF4"/>
</g>
<g clip-path="url(#clip7_779_543)">
<path fill-rule="evenodd" clip-rule="evenodd" d="M72.9397 48.2692C72.6612 48.292 72.2666 48.4055 72.197 48.746C72.0809 49.1774 72.1506 64.5028 72.197 72.1088C72.197 73.2213 72.197 75.5599 71.9881 76.0366C71.9881 76.0366 71.9881 76.0821 71.9649 76.1048C71.6631 76.7859 70.6651 78.9428 68.1583 78.9428C65.6516 78.9428 64.4446 76.6724 64.3286 76.1275C64.2589 75.8096 64.2589 74.2884 64.2589 73.1759C64.2589 72.9489 64.2589 72.7445 64.2589 72.5856V24.7476C64.1893 24.5432 63.9572 24.1572 63.5626 24.1572C63.0752 24.1572 62.8199 24.7476 62.8663 24.9973C62.9127 25.1789 62.8663 37.2803 62.8663 43.297C62.8663 43.3424 62.8663 43.4105 62.8663 43.4559C62.8663 44.2733 62.8199 45.5447 62.0539 46.3167C61.3808 46.9978 60.081 47.0886 59.6632 47.0886C59.1061 47.0886 58.0849 46.8616 57.5975 46.2032C57.11 45.5447 56.9708 44.0689 56.9708 43.297V23.2037C56.9708 22.0457 57.6439 19.6618 59.1061 18.3222C60.5452 17.0054 61.4272 16.3697 63.9108 16.188C65.6748 16.0518 70.2241 16.1199 72.9629 16.188C75.7018 16.1426 80.2511 16.0745 82.0151 16.188C84.4754 16.3697 85.3807 17.0281 86.8197 18.3222C88.282 19.6391 88.9319 22.0457 88.9551 23.2037V43.297C88.9551 44.0689 88.8158 45.5447 88.3284 46.2032C87.841 46.8616 86.8197 47.0886 86.2627 47.0886C85.8449 47.0886 84.5219 46.9978 83.872 46.3167C83.106 45.5447 83.0828 44.2733 83.0596 43.4559C83.0596 43.3878 83.0596 43.3424 83.0596 43.297C83.0596 37.2803 83.0132 25.1789 83.0596 24.9973C83.1292 24.7703 82.8507 24.1572 82.3633 24.1572C81.9687 24.1572 81.7366 24.5432 81.667 24.7476V72.5856C81.667 73.63 81.667 75.9004 81.5973 76.241C81.5045 76.7178 80.3672 78.9428 77.7676 78.9428C75.168 78.9428 74.2627 76.7859 73.961 76.1048C73.961 76.0821 73.961 76.0594 73.9378 76.0366C73.7289 75.5599 73.7057 73.2213 73.7289 72.1088C73.7753 64.5028 73.8449 49.1774 73.7289 48.746C73.636 48.4055 73.2647 48.292 72.9861 48.2692H72.9397Z" fill="#FFFDF4"/>
<path d="M72.6845 15.1665C76.966 15.1665 80.4369 11.7714 80.4369 7.58325C80.4369 3.39513 76.966 0 72.6845 0C68.403 0 64.9321 3.39513 64.9321 7.58325C64.9321 11.7714 68.403 15.1665 72.6845 15.1665Z" fill="#FFFDF4"/>
</g>
<g clip-path="url(#clip8_779_543)">
<path fill-rule="evenodd" clip-rule="evenodd" d="M109.441 48.2707C109.172 48.2934 108.789 48.4069 108.722 48.7475C108.609 49.1789 108.677 64.5043 108.722 72.1103C108.722 73.2228 108.722 75.5613 108.519 76.0381C108.519 76.0381 108.519 76.0835 108.497 76.1062C108.205 76.7874 107.238 78.9443 104.809 78.9443C102.381 78.9443 101.212 76.6738 101.099 76.1289C101.032 75.8111 101.032 74.2899 101.032 73.1774C101.032 72.9503 101.032 72.746 101.032 72.587V24.749C100.964 24.5447 100.74 24.1587 100.357 24.1587C99.8851 24.1587 99.6377 24.749 99.6827 24.9988C99.7277 25.1804 99.6827 37.2818 99.6827 43.2985C99.6827 43.3439 99.6827 43.412 99.6827 43.4574C99.6827 44.2747 99.6377 45.5462 98.8957 46.3181C98.2437 46.9993 96.9845 47.0901 96.5797 47.0901C96.0401 47.0901 95.0507 46.863 94.5785 46.2046C94.1063 45.5462 93.9714 44.0704 93.9714 43.2985V23.2051C93.9714 22.0472 94.6235 19.6633 96.0401 18.3237C97.4342 17.0068 98.2886 16.3711 100.695 16.1895C102.403 16.0533 106.811 16.1214 109.464 16.1895C112.117 16.1441 116.524 16.076 118.233 16.1895C120.617 16.3711 121.494 17.0295 122.888 18.3237C124.304 19.6405 124.934 22.0472 124.956 23.2051V43.2985C124.956 44.0704 124.821 45.5462 124.349 46.2046C123.877 46.863 122.888 47.0901 122.348 47.0901C121.943 47.0901 120.662 46.9993 120.032 46.3181C119.29 45.5462 119.267 44.2747 119.245 43.4574C119.245 43.3893 119.245 43.3439 119.245 43.2985C119.245 37.2818 119.2 25.1804 119.245 24.9988C119.312 24.7717 119.043 24.1587 118.57 24.1587C118.188 24.1587 117.963 24.5447 117.896 24.749V72.587C117.896 73.6314 117.896 75.9019 117.828 76.2425C117.738 76.7192 116.637 78.9443 114.118 78.9443C111.6 78.9443 110.723 76.7874 110.431 76.1062C110.431 76.0835 110.431 76.0608 110.408 76.0381C110.206 75.5613 110.183 73.2228 110.206 72.1103C110.251 64.5043 110.318 49.1789 110.206 48.7475C110.116 48.4069 109.756 48.2934 109.486 48.2707H109.441Z" fill="#FFFDF4"/>
<path d="M109.194 15.1665C113.342 15.1665 116.704 11.7714 116.704 7.58325C116.704 3.39513 113.342 0 109.194 0C105.046 0 101.684 3.39513 101.684 7.58325C101.684 11.7714 105.046 15.1665 109.194 15.1665Z" fill="#FFFDF4"/>
</g>
<g clip-path="url(#clip9_779_543)">
<path fill-rule="evenodd" clip-rule="evenodd" d="M146.441 48.2707C146.172 48.2934 145.789 48.4069 145.722 48.7475C145.609 49.1789 145.677 64.5043 145.722 72.1103C145.722 73.2228 145.722 75.5613 145.519 76.0381C145.519 76.0381 145.519 76.0835 145.497 76.1062C145.205 76.7874 144.238 78.9443 141.809 78.9443C139.381 78.9443 138.212 76.6738 138.099 76.1289C138.032 75.8111 138.032 74.2899 138.032 73.1774C138.032 72.9503 138.032 72.746 138.032 72.587V24.749C137.964 24.5447 137.74 24.1587 137.357 24.1587C136.885 24.1587 136.638 24.749 136.683 24.9988C136.728 25.1804 136.683 37.2818 136.683 43.2985C136.683 43.3439 136.683 43.412 136.683 43.4574C136.683 44.2747 136.638 45.5462 135.896 46.3181C135.244 46.9993 133.984 47.0901 133.58 47.0901C133.04 47.0901 132.051 46.863 131.579 46.2046C131.106 45.5462 130.971 44.0704 130.971 43.2985V23.2051C130.971 22.0472 131.624 19.6633 133.04 18.3237C134.434 17.0068 135.289 16.3711 137.695 16.1895C139.403 16.0533 143.811 16.1214 146.464 16.1895C149.117 16.1441 153.524 16.076 155.233 16.1895C157.617 16.3711 158.494 17.0295 159.888 18.3237C161.304 19.6405 161.934 22.0472 161.956 23.2051V43.2985C161.956 44.0704 161.821 45.5462 161.349 46.2046C160.877 46.863 159.888 47.0901 159.348 47.0901C158.943 47.0901 157.662 46.9993 157.032 46.3181C156.29 45.5462 156.267 44.2747 156.245 43.4574C156.245 43.3893 156.245 43.3439 156.245 43.2985C156.245 37.2818 156.2 25.1804 156.245 24.9988C156.312 24.7717 156.043 24.1587 155.57 24.1587C155.188 24.1587 154.963 24.5447 154.896 24.749V72.587C154.896 73.6314 154.896 75.9019 154.828 76.2425C154.738 76.7192 153.637 78.9443 151.118 78.9443C148.6 78.9443 147.723 76.7874 147.431 76.1062C147.431 76.0835 147.431 76.0608 147.408 76.0381C147.206 75.5613 147.183 73.2228 147.206 72.1103C147.251 64.5043 147.318 49.1789 147.206 48.7475C147.116 48.4069 146.756 48.2934 146.486 48.2707H146.441Z" fill="#FFFDF4"/>
<path d="M146.194 15.1665C150.342 15.1665 153.704 11.7714 153.704 7.58325C153.704 3.39513 150.342 0 146.194 0C142.046 0 138.684 3.39513 138.684 7.58325C138.684 11.7714 142.046 15.1665 146.194 15.1665Z" fill="#FFFDF4"/>
</g>
<g clip-path="url(#clip10_779_543)">
<path fill-rule="evenodd" clip-rule="evenodd" d="M146.441 216.271C146.172 216.293 145.789 216.407 145.722 216.748C145.609 217.179 145.677 232.504 145.722 240.11C145.722 241.223 145.722 243.561 145.519 244.038C145.519 244.038 145.519 244.084 145.497 244.106C145.205 244.787 144.238 246.944 141.809 246.944C139.381 246.944 138.212 244.674 138.099 244.129C138.032 243.811 138.032 242.29 138.032 241.177C138.032 240.95 138.032 240.746 138.032 240.587V192.749C137.964 192.545 137.74 192.159 137.357 192.159C136.885 192.159 136.638 192.749 136.683 192.999C136.728 193.18 136.683 205.282 136.683 211.298C136.683 211.344 136.683 211.412 136.683 211.457C136.683 212.275 136.638 213.546 135.896 214.318C135.244 214.999 133.984 215.09 133.58 215.09C133.04 215.09 132.051 214.863 131.579 214.205C131.106 213.546 130.971 212.07 130.971 211.298V191.205C130.971 190.047 131.624 187.663 133.04 186.324C134.434 185.007 135.289 184.371 137.695 184.189C139.403 184.053 143.811 184.121 146.464 184.189C149.117 184.144 153.524 184.076 155.233 184.189C157.617 184.371 158.494 185.03 159.888 186.324C161.304 187.641 161.934 190.047 161.956 191.205V211.298C161.956 212.07 161.821 213.546 161.349 214.205C160.877 214.863 159.888 215.09 159.348 215.09C158.943 215.09 157.662 214.999 157.032 214.318C156.29 213.546 156.267 212.275 156.245 211.457C156.245 211.389 156.245 211.344 156.245 211.298C156.245 205.282 156.2 193.18 156.245 192.999C156.312 192.772 156.043 192.159 155.57 192.159C155.188 192.159 154.963 192.545 154.896 192.749V240.587C154.896 241.631 154.896 243.902 154.828 244.242C154.738 244.719 153.637 246.944 151.118 246.944C148.6 246.944 147.723 244.787 147.431 244.106C147.431 244.084 147.431 244.061 147.408 244.038C147.206 243.561 147.183 241.223 147.206 240.11C147.251 232.504 147.318 217.179 147.206 216.748C147.116 216.407 146.756 216.293 146.486 216.271H146.441Z" fill="#FFFDF4"/>
<path d="M146.194 183.166C150.342 183.166 153.704 179.771 153.704 175.583C153.704 171.395 150.342 168 146.194 168C142.046 168 138.684 171.395 138.684 175.583C138.684 179.771 142.046 183.166 146.194 183.166Z" fill="#FFFDF4"/>
</g>
<g clip-path="url(#clip11_779_543)">
<path fill-rule="evenodd" clip-rule="evenodd" d="M109.441 216.271C109.172 216.293 108.789 216.407 108.722 216.748C108.609 217.179 108.677 232.504 108.722 240.11C108.722 241.223 108.722 243.561 108.519 244.038C108.519 244.038 108.519 244.084 108.497 244.106C108.205 244.787 107.238 246.944 104.809 246.944C102.381 246.944 101.212 244.674 101.099 244.129C101.032 243.811 101.032 242.29 101.032 241.177C101.032 240.95 101.032 240.746 101.032 240.587V192.749C100.964 192.545 100.74 192.159 100.357 192.159C99.8851 192.159 99.6377 192.749 99.6827 192.999C99.7277 193.18 99.6827 205.282 99.6827 211.298C99.6827 211.344 99.6827 211.412 99.6827 211.457C99.6827 212.275 99.6377 213.546 98.8957 214.318C98.2437 214.999 96.9845 215.09 96.5797 215.09C96.0401 215.09 95.0507 214.863 94.5785 214.205C94.1063 213.546 93.9714 212.07 93.9714 211.298V191.205C93.9714 190.047 94.6235 187.663 96.0401 186.324C97.4342 185.007 98.2886 184.371 100.695 184.189C102.403 184.053 106.811 184.121 109.464 184.189C112.117 184.144 116.524 184.076 118.233 184.189C120.617 184.371 121.494 185.03 122.888 186.324C124.304 187.641 124.934 190.047 124.956 191.205V211.298C124.956 212.07 124.821 213.546 124.349 214.205C123.877 214.863 122.888 215.09 122.348 215.09C121.943 215.09 120.662 214.999 120.032 214.318C119.29 213.546 119.267 212.275 119.245 211.457C119.245 211.389 119.245 211.344 119.245 211.298C119.245 205.282 119.2 193.18 119.245 192.999C119.312 192.772 119.043 192.159 118.57 192.159C118.188 192.159 117.963 192.545 117.896 192.749V240.587C117.896 241.631 117.896 243.902 117.828 244.242C117.738 244.719 116.637 246.944 114.118 246.944C111.6 246.944 110.723 244.787 110.431 244.106C110.431 244.084 110.431 244.061 110.408 244.038C110.206 243.561 110.183 241.223 110.206 240.11C110.251 232.504 110.318 217.179 110.206 216.748C110.116 216.407 109.756 216.293 109.486 216.271H109.441Z" fill="#FFFDF4"/>
<path d="M109.194 183.166C113.342 183.166 116.704 179.771 116.704 175.583C116.704 171.395 113.342 168 109.194 168C105.046 168 101.684 171.395 101.684 175.583C101.684 179.771 105.046 183.166 109.194 183.166Z" fill="#FFFDF4"/>
</g>
<g clip-path="url(#clip12_779_543)">
<path fill-rule="evenodd" clip-rule="evenodd" d="M31.9416 216.273C31.6631 216.295 31.2685 216.409 31.1989 216.749C31.0828 217.181 31.1525 232.506 31.1989 240.112C31.1989 241.225 31.1989 243.563 30.99 244.04C30.99 244.04 30.99 244.085 30.9668 244.108C30.665 244.789 29.667 246.946 27.1602 246.946C24.6535 246.946 23.4465 244.676 23.3304 244.131C23.2608 243.813 23.2608 242.292 23.2608 241.179C23.2608 240.952 23.2608 240.748 23.2608 240.589V192.751C23.1912 192.547 22.9591 192.161 22.5645 192.161C22.0771 192.161 21.8218 192.751 21.8682 193.001C21.9146 193.182 21.8682 205.284 21.8682 211.3C21.8682 211.346 21.8682 211.414 21.8682 211.459C21.8682 212.277 21.8218 213.548 21.0558 214.32C20.3827 215.001 19.0829 215.092 18.6651 215.092C18.108 215.092 17.0868 214.865 16.5993 214.207C16.1119 213.548 15.9727 212.072 15.9727 211.3V191.207C15.9727 190.049 16.6458 187.665 18.108 186.326C19.5471 185.009 20.4291 184.373 22.9127 184.191C24.6767 184.055 29.226 184.123 31.9648 184.191C34.7037 184.146 39.253 184.078 41.017 184.191C43.4773 184.373 44.3826 185.032 45.8216 186.326C47.2839 187.643 47.9338 190.049 47.957 191.207V211.3C47.957 212.072 47.8177 213.548 47.3303 214.207C46.8429 214.865 45.8216 215.092 45.2646 215.092C44.8468 215.092 43.5238 215.001 42.8739 214.32C42.1079 213.548 42.0847 212.277 42.0615 211.459C42.0615 211.391 42.0615 211.346 42.0615 211.3C42.0615 205.284 42.0151 193.182 42.0615 193.001C42.1311 192.774 41.8526 192.161 41.3652 192.161C40.9706 192.161 40.7385 192.547 40.6688 192.751V240.589C40.6688 241.633 40.6688 243.904 40.5992 244.244C40.5064 244.721 39.369 246.946 36.7694 246.946C34.1698 246.946 33.2646 244.789 32.9629 244.108C32.9629 244.085 32.9629 244.063 32.9397 244.04C32.7308 243.563 32.7076 241.225 32.7308 240.112C32.7772 232.506 32.8468 217.181 32.7308 216.749C32.6379 216.409 32.2666 216.295 31.988 216.273H31.9416Z" fill="#FFFDF4"/>
<path d="M31.6862 183.169C35.9677 183.169 39.4385 179.774 39.4385 175.586C39.4385 171.398 35.9677 168.002 31.6862 168.002C27.4046 168.002 23.9338 171.398 23.9338 175.586C23.9338 179.774 27.4046 183.169 31.6862 183.169Z" fill="#FFFDF4"/>
</g>
<defs>
<clipPath id="clip0_779_543">
<rect width="31" height="79" fill="white" transform="translate(38 84)"/>
</clipPath>
<clipPath id="clip1_779_543">
<rect width="31" height="79" fill="white" transform="translate(73 84)"/>
</clipPath>
<clipPath id="clip2_779_543">
<rect width="32" height="79" fill="white" transform="translate(109 84)"/>
</clipPath>
<clipPath id="clip3_779_543">
<rect width="31" height="79" fill="white" transform="translate(146 84)"/>
</clipPath>
<clipPath id="clip4_779_543">
<rect width="31" height="79" fill="white" transform="translate(18)"/>
</clipPath>
<clipPath id="clip5_779_543">
<rect width="32" height="79" fill="white" transform="translate(0 84)"/>
</clipPath>
<clipPath id="clip6_779_543">
<rect width="32" height="79" fill="white" transform="translate(56 168)"/>
</clipPath>
<clipPath id="clip7_779_543">
<rect width="32" height="79" fill="white" transform="translate(57)"/>
</clipPath>
<clipPath id="clip8_779_543">
<rect width="31" height="79" fill="white" transform="translate(94)"/>
</clipPath>
<clipPath id="clip9_779_543">
<rect width="31" height="79" fill="white" transform="translate(131)"/>
</clipPath>
<clipPath id="clip10_779_543">
<rect width="31" height="79" fill="white" transform="translate(131 168)"/>
</clipPath>
<clipPath id="clip11_779_543">
<rect width="31" height="79" fill="white" transform="translate(94 168)"/>
</clipPath>
<clipPath id="clip12_779_543">
<rect width="32" height="79" fill="white" transform="translate(16 168)"/>
</clipPath>
</defs>
</svg>
