<svg width="159" height="159" viewBox="0 0 159 159" fill="none" xmlns="http://www.w3.org/2000/svg">
<path d="M77.6795 4.00178C78.3903 2.43933 80.6097 2.43933 81.3205 4.00178L91.1607 25.6327C91.6956 26.8085 93.1883 27.1764 94.2083 26.3838L112.974 11.8036C114.329 10.7505 116.294 11.7819 116.198 13.4957L114.858 37.2219C114.786 38.5116 115.936 39.531 117.208 39.3033L140.6 35.1139C142.289 34.8113 143.55 36.6378 142.668 38.1103L130.456 58.4965C129.792 59.6046 130.337 61.042 131.569 61.4313L154.228 68.5925C155.865 69.1098 156.133 71.313 154.667 72.2069L134.38 84.5827C133.277 85.2555 133.092 86.7815 134.002 87.6986L150.738 104.57C151.946 105.789 151.159 107.864 149.447 107.974L125.732 109.505C124.443 109.588 123.57 110.853 123.949 112.088L130.927 134.804C131.431 136.445 129.77 137.917 128.202 137.218L106.492 127.553C105.312 127.027 103.951 127.742 103.713 129.011L99.3355 152.369C99.0193 154.056 96.8644 154.587 95.8003 153.24L81.0694 134.593C80.2686 133.579 78.7314 133.579 77.9306 134.593L63.1997 153.24C62.1356 154.587 59.9807 154.056 59.6645 152.369L55.2868 129.011C55.0488 127.742 53.6876 127.027 52.5076 127.553L30.7981 137.218C29.2299 137.917 27.5687 136.445 28.0728 134.804L35.0512 112.088C35.4305 110.853 34.5572 109.588 33.2681 109.505L9.55348 107.974C7.84052 107.864 7.05352 105.789 8.26238 104.57L24.9982 87.6986C25.908 86.7815 25.7227 85.2555 24.6199 84.5827L4.33281 72.2069C2.86743 71.313 3.13495 69.1098 4.77168 68.5925L27.431 61.4313C28.6627 61.042 29.2078 59.6046 28.544 58.4965L16.332 38.1103C15.4499 36.6378 16.7107 34.8113 18.4003 35.1139L41.7921 39.3033C43.0637 39.531 44.2143 38.5116 44.1415 37.2219L42.8023 13.4957C42.7055 11.7819 44.6707 10.7505 46.0262 11.8036L64.7917 26.3838C65.8117 27.1764 67.3044 26.8085 67.8393 25.6327L77.6795 4.00178Z" fill="#EC2427"/>
<path d="M50.2975 75.1698C53.8278 76.3694 55.9872 78.1174 55.9872 82.299V82.6418C55.9872 86.892 53.348 89.5312 49.6805 89.9082V92.2732H48.2409V89.9425C44.0593 89.6683 41.6258 86.7549 41.4887 81.8192H46.3215C46.4243 84.2527 47.0413 85.5552 48.2409 85.8637V79.3514C48.0353 79.2828 47.7954 79.18 47.5554 79.1114C43.6823 77.8432 42.0028 76.0609 42.0028 72.085V71.7422C42.0028 67.6977 44.5392 64.9557 48.2409 64.7157V62.385H49.6805V64.75C53.2794 65.0928 55.5073 67.5606 55.713 72.2563H50.8459C50.8116 70.3026 50.4003 69.2744 49.6805 68.8631V74.9641L50.2975 75.1698ZM46.9042 71.2624V71.7765C46.9042 73.1132 47.0756 73.7302 48.2409 74.3471V68.7602C47.4526 69.0002 46.9042 69.8571 46.9042 71.2624ZM51.0515 83.2588V82.7104C51.0515 81.5107 50.9144 80.7224 49.6805 80.0026V85.8637C50.5717 85.5895 51.0515 84.7669 51.0515 83.2588Z" fill="#FFFEEE"/>
<path d="M69.5605 89.4969H57.0843V86.9262C57.0843 83.0874 57.5641 80.7909 61.6429 76.9864C64.4535 74.3129 64.8305 73.5931 64.8305 71.7079V71.3652C64.8305 69.72 64.4878 68.5889 63.4252 68.5889C62.3284 68.5889 61.7457 69.6171 61.7457 72.4963H57.1871C57.2557 67.1836 59.6207 64.7157 63.5623 64.7157C67.127 64.7157 69.4234 67.2521 69.4234 71.2624V71.5023C69.4234 74.6213 68.8408 75.8553 65.516 79.3514C62.397 82.6075 61.9857 83.4987 61.9171 85.4181H69.5605V89.4969Z" fill="#FFFEEE"/>
<path d="M76.6435 89.4969H71.8107V84.4584H76.6435V89.4969Z" fill="#FFFEEE"/>
<path d="M84.5175 89.9425C79.9931 89.9425 78.3136 86.4121 78.3136 80.8252V73.8673C78.3136 68.2804 79.9589 64.7157 84.5175 64.7157C89.1104 64.7157 90.7556 68.2804 90.7556 73.8673V80.8252C90.7556 86.4121 89.0761 89.9425 84.5175 89.9425ZM84.5175 86.0693C85.6143 86.0693 85.9571 85.1782 85.9571 82.5047V72.2906C85.9571 69.48 85.6143 68.5889 84.5175 68.5889C83.4549 68.5889 83.1122 69.48 83.1122 72.2906V82.5047C83.1122 85.1782 83.4549 86.0693 84.5175 86.0693Z" fill="#FFFEEE"/>
<path d="M103.307 89.4969H98.5774V83.9785H92.0308V80.2768L98.0975 65.1613H103.307V80.1397H105.364V83.9785H103.307V89.4969ZM98.5774 71.468L95.3555 80.2082H98.5774V71.468Z" fill="#FFFEEE"/>
<path d="M115.271 89.4969H107.079V65.1613H114.791C118.081 65.1613 120.686 67.2521 120.686 71.3995V71.8793C120.686 73.8673 119.829 75.6153 118.527 76.6436C120.309 77.7404 121.303 79.934 121.303 82.1619V82.6761C121.303 86.892 118.904 89.4969 115.271 89.4969ZM111.912 69.2401V75.2383H113.728C114.894 75.2383 115.785 74.4842 115.785 72.4963V71.9821C115.785 70.0627 114.928 69.2401 113.728 69.2401H111.912ZM111.912 79.1114V85.4181H114.243C115.442 85.4181 116.265 84.4927 116.265 82.539V81.9906C116.265 80.0711 115.511 79.1114 114.243 79.1114H111.912Z" fill="#FFFEEE"/>
</svg>
