<svg width="249" height="415" viewBox="0 0 249 415" fill="none" xmlns="http://www.w3.org/2000/svg">
<g clip-path="url(#clip0_779_341)">
<path fill-rule="evenodd" clip-rule="evenodd" d="M88.4422 219.269C88.1724 219.292 87.7901 219.405 87.7227 219.746C87.6103 220.177 87.6777 235.503 87.7227 243.109C87.7227 244.221 87.7227 246.56 87.5203 247.037C87.5203 247.037 87.5203 247.082 87.4978 247.105C87.2055 247.786 86.2387 249.943 83.8102 249.943C81.3818 249.943 80.2126 247.672 80.1002 247.127C80.0327 246.81 80.0327 245.288 80.0327 244.176C80.0327 243.949 80.0327 243.745 80.0327 243.586V195.748C79.9652 195.543 79.7404 195.157 79.3581 195.157C78.8859 195.157 78.6386 195.748 78.6836 195.997C78.7285 196.179 78.6836 208.28 78.6836 214.297C78.6836 214.342 78.6836 214.411 78.6836 214.456C78.6836 215.273 78.6386 216.545 77.8966 217.317C77.2445 217.998 75.9853 218.089 75.5806 218.089C75.0409 218.089 74.0516 217.862 73.5794 217.203C73.1072 216.545 72.9723 215.069 72.9723 214.297V194.204C72.9723 193.046 73.6244 190.662 75.0409 189.322C76.435 188.005 77.2895 187.37 79.6954 187.188C81.4043 187.052 85.8114 187.12 88.4647 187.188C91.118 187.143 95.5251 187.075 97.234 187.188C99.6174 187.37 100.494 188.028 101.888 189.322C103.305 190.639 103.935 193.046 103.957 194.204V214.297C103.957 215.069 103.822 216.545 103.35 217.203C102.878 217.862 101.888 218.089 101.349 218.089C100.944 218.089 99.6624 217.998 99.0328 217.317C98.2908 216.545 98.2683 215.273 98.2458 214.456C98.2458 214.388 98.2458 214.342 98.2458 214.297C98.2458 208.28 98.2009 196.179 98.2458 195.997C98.3133 195.77 98.0435 195.157 97.5713 195.157C97.189 195.157 96.9642 195.543 96.8967 195.748V243.586C96.8967 244.63 96.8967 246.9 96.8293 247.241C96.7393 247.718 95.6375 249.943 93.1192 249.943C90.6008 249.943 89.7239 247.786 89.4316 247.105C89.4316 247.082 89.4316 247.059 89.4091 247.037C89.2067 246.56 89.1842 244.221 89.2067 243.109C89.2517 235.503 89.3192 220.177 89.2067 219.746C89.1168 219.405 88.757 219.292 88.4872 219.269H88.4422Z" fill="#FFFDF4"/>
<path d="M88.195 186.166C92.3427 186.166 95.7051 182.771 95.7051 178.583C95.7051 174.395 92.3427 171 88.195 171C84.0473 171 80.6849 174.395 80.6849 178.583C80.6849 182.771 84.0473 186.166 88.195 186.166Z" fill="#FFFDF4"/>
</g>
<g clip-path="url(#clip1_779_341)">
<path fill-rule="evenodd" clip-rule="evenodd" d="M123.441 219.269C123.172 219.292 122.789 219.405 122.722 219.746C122.61 220.177 122.677 235.503 122.722 243.109C122.722 244.221 122.722 246.56 122.52 247.037C122.52 247.037 122.52 247.082 122.497 247.105C122.205 247.786 121.238 249.943 118.81 249.943C116.381 249.943 115.212 247.672 115.099 247.127C115.032 246.81 115.032 245.288 115.032 244.176C115.032 243.949 115.032 243.745 115.032 243.586V195.748C114.965 195.543 114.74 195.157 114.357 195.157C113.885 195.157 113.638 195.748 113.683 195.997C113.728 196.179 113.683 208.28 113.683 214.297C113.683 214.342 113.683 214.411 113.683 214.456C113.683 215.273 113.638 216.545 112.896 217.317C112.244 217.998 110.985 218.089 110.58 218.089C110.04 218.089 109.051 217.862 108.579 217.203C108.106 216.545 107.972 215.069 107.972 214.297V194.204C107.972 193.046 108.624 190.662 110.04 189.322C111.434 188.005 112.289 187.37 114.695 187.188C116.404 187.052 120.811 187.12 123.464 187.188C126.117 187.143 130.524 187.075 132.233 187.188C134.617 187.37 135.494 188.028 136.888 189.322C138.304 190.639 138.934 193.046 138.956 194.204V214.297C138.956 215.069 138.821 216.545 138.349 217.203C137.877 217.862 136.888 218.089 136.348 218.089C135.943 218.089 134.662 217.998 134.032 217.317C133.29 216.545 133.268 215.273 133.245 214.456C133.245 214.388 133.245 214.342 133.245 214.297C133.245 208.28 133.2 196.179 133.245 195.997C133.313 195.77 133.043 195.157 132.571 195.157C132.188 195.157 131.963 195.543 131.896 195.748V243.586C131.896 244.63 131.896 246.9 131.829 247.241C131.739 247.718 130.637 249.943 128.118 249.943C125.6 249.943 124.723 247.786 124.431 247.105C124.431 247.082 124.431 247.059 124.408 247.037C124.206 246.56 124.184 244.221 124.206 243.109C124.251 235.503 124.318 220.177 124.206 219.746C124.116 219.405 123.756 219.292 123.486 219.269H123.441Z" fill="#FFFEEE"/>
<path d="M123.195 186.166C127.343 186.166 130.705 182.771 130.705 178.583C130.705 174.395 127.343 171 123.195 171C119.047 171 115.685 174.395 115.685 178.583C115.685 182.771 119.047 186.166 123.195 186.166Z" fill="#FFFEEE"/>
</g>
<g clip-path="url(#clip2_779_341)">
<path fill-rule="evenodd" clip-rule="evenodd" d="M159.94 219.269C159.661 219.292 159.267 219.405 159.197 219.746C159.081 220.177 159.151 235.503 159.197 243.109C159.197 244.221 159.197 246.56 158.988 247.037C158.988 247.037 158.988 247.082 158.965 247.105C158.663 247.786 157.665 249.943 155.158 249.943C152.652 249.943 151.445 247.672 151.329 247.127C151.259 246.81 151.259 245.288 151.259 244.176C151.259 243.949 151.259 243.745 151.259 243.586V195.748C151.189 195.543 150.957 195.157 150.563 195.157C150.075 195.157 149.82 195.748 149.866 195.997C149.913 196.179 149.866 208.28 149.866 214.297C149.866 214.342 149.866 214.411 149.866 214.456C149.866 215.273 149.82 216.545 149.054 217.317C148.381 217.998 147.081 218.089 146.663 218.089C146.106 218.089 145.085 217.862 144.597 217.203C144.11 216.545 143.971 215.069 143.971 214.297V194.204C143.971 193.046 144.644 190.662 146.106 189.322C147.545 188.005 148.427 187.37 150.911 187.188C152.675 187.052 157.224 187.12 159.963 187.188C162.702 187.143 167.251 187.075 169.015 187.188C171.475 187.37 172.381 188.028 173.82 189.322C175.282 190.639 175.932 193.046 175.955 194.204V214.297C175.955 215.069 175.816 216.545 175.328 217.203C174.841 217.862 173.82 218.089 173.263 218.089C172.845 218.089 171.522 217.998 170.872 217.317C170.106 216.545 170.083 215.273 170.06 214.456C170.06 214.388 170.06 214.342 170.06 214.297C170.06 208.28 170.013 196.179 170.06 195.997C170.129 195.77 169.851 195.157 169.363 195.157C168.969 195.157 168.737 195.543 168.667 195.748V243.586C168.667 244.63 168.667 246.9 168.597 247.241C168.504 247.718 167.367 249.943 164.768 249.943C162.168 249.943 161.263 247.786 160.961 247.105C160.961 247.082 160.961 247.059 160.938 247.037C160.729 246.56 160.706 244.221 160.729 243.109C160.775 235.503 160.845 220.177 160.729 219.746C160.636 219.405 160.265 219.292 159.986 219.269H159.94Z" fill="#FFFDF4"/>
<path d="M159.685 186.166C163.966 186.166 167.437 182.771 167.437 178.583C167.437 174.395 163.966 171 159.685 171C155.403 171 151.932 174.395 151.932 178.583C151.932 182.771 155.403 186.166 159.685 186.166Z" fill="#FFFDF4"/>
</g>
<g clip-path="url(#clip3_779_341)">
<path fill-rule="evenodd" clip-rule="evenodd" d="M207.94 132.269C207.661 132.292 207.266 132.405 207.197 132.746C207.081 133.177 207.15 148.503 207.197 156.109C207.197 157.221 207.197 159.56 206.988 160.037C206.988 160.037 206.988 160.082 206.965 160.105C206.663 160.786 205.665 162.943 203.158 162.943C200.651 162.943 199.444 160.672 199.328 160.127C199.259 159.81 199.259 158.288 199.259 157.176C199.259 156.949 199.259 156.745 199.259 156.586V108.748C199.189 108.543 198.957 108.157 198.562 108.157C198.075 108.157 197.82 108.748 197.866 108.997C197.913 109.179 197.866 121.28 197.866 127.297C197.866 127.342 197.866 127.411 197.866 127.456C197.866 128.273 197.82 129.545 197.054 130.317C196.381 130.998 195.081 131.089 194.663 131.089C194.106 131.089 193.085 130.862 192.597 130.203C192.11 129.545 191.971 128.069 191.971 127.297V107.204C191.971 106.046 192.644 103.662 194.106 102.322C195.545 101.005 196.427 100.37 198.911 100.188C200.675 100.052 205.224 100.12 207.963 100.188C210.702 100.143 215.251 100.075 217.015 100.188C219.475 100.37 220.38 101.028 221.82 102.322C223.282 103.639 223.932 106.046 223.955 107.204V127.297C223.955 128.069 223.816 129.545 223.328 130.203C222.841 130.862 221.82 131.089 221.262 131.089C220.845 131.089 219.522 130.998 218.872 130.317C218.106 129.545 218.083 128.273 218.059 127.456C218.059 127.388 218.059 127.342 218.059 127.297C218.059 121.28 218.013 109.179 218.059 108.997C218.129 108.77 217.851 108.157 217.363 108.157C216.969 108.157 216.736 108.543 216.667 108.748V156.586C216.667 157.63 216.667 159.9 216.597 160.241C216.504 160.718 215.367 162.943 212.767 162.943C210.168 162.943 209.263 160.786 208.961 160.105C208.961 160.082 208.961 160.059 208.938 160.037C208.729 159.56 208.705 157.221 208.729 156.109C208.775 148.503 208.845 133.177 208.729 132.746C208.636 132.405 208.264 132.292 207.986 132.269H207.94Z" fill="#FFFDF4"/>
<path d="M207.684 99.1665C211.966 99.1665 215.437 95.7714 215.437 91.5832C215.437 87.3951 211.966 84 207.684 84C203.403 84 199.932 87.3951 199.932 91.5832C199.932 95.7714 203.403 99.1665 207.684 99.1665Z" fill="#FFFDF4"/>
</g>
<g clip-path="url(#clip4_779_341)">
<path fill-rule="evenodd" clip-rule="evenodd" d="M196.441 219.271C196.172 219.293 195.789 219.407 195.722 219.748C195.609 220.179 195.677 235.504 195.722 243.11C195.722 244.223 195.722 246.561 195.519 247.038C195.519 247.038 195.519 247.084 195.497 247.106C195.205 247.787 194.238 249.944 191.809 249.944C189.381 249.944 188.212 247.674 188.099 247.129C188.032 246.811 188.032 245.29 188.032 244.177C188.032 243.95 188.032 243.746 188.032 243.587V195.749C187.964 195.545 187.74 195.159 187.357 195.159C186.885 195.159 186.638 195.749 186.683 195.999C186.728 196.18 186.683 208.282 186.683 214.298C186.683 214.344 186.683 214.412 186.683 214.457C186.683 215.275 186.638 216.546 185.896 217.318C185.244 217.999 183.984 218.09 183.58 218.09C183.04 218.09 182.051 217.863 181.579 217.205C181.106 216.546 180.971 215.07 180.971 214.298V194.205C180.971 193.047 181.624 190.663 183.04 189.324C184.434 188.007 185.289 187.371 187.695 187.189C189.403 187.053 193.811 187.121 196.464 187.189C199.117 187.144 203.524 187.076 205.233 187.189C207.617 187.371 208.494 188.03 209.888 189.324C211.304 190.641 211.934 193.047 211.956 194.205V214.298C211.956 215.07 211.821 216.546 211.349 217.205C210.877 217.863 209.888 218.09 209.348 218.09C208.943 218.09 207.662 217.999 207.032 217.318C206.29 216.546 206.267 215.275 206.245 214.457C206.245 214.389 206.245 214.344 206.245 214.298C206.245 208.282 206.2 196.18 206.245 195.999C206.312 195.772 206.043 195.159 205.57 195.159C205.188 195.159 204.963 195.545 204.896 195.749V243.587C204.896 244.631 204.896 246.902 204.828 247.242C204.738 247.719 203.637 249.944 201.118 249.944C198.6 249.944 197.723 247.787 197.431 247.106C197.431 247.084 197.431 247.061 197.408 247.038C197.206 246.561 197.183 244.223 197.206 243.11C197.251 235.504 197.318 220.179 197.206 219.748C197.116 219.407 196.756 219.293 196.486 219.271H196.441Z" fill="#FFFDF4"/>
<path d="M196.194 186.166C200.342 186.166 203.704 182.771 203.704 178.583C203.704 174.395 200.342 171 196.194 171C192.046 171 188.684 174.395 188.684 178.583C188.684 182.771 192.046 186.166 196.194 186.166Z" fill="#FFFDF4"/>
</g>
<g clip-path="url(#clip5_779_341)">
<path fill-rule="evenodd" clip-rule="evenodd" d="M15.4414 219.271C15.1715 219.293 14.7893 219.407 14.7218 219.748C14.6094 220.179 14.6769 235.504 14.7218 243.11C14.7218 244.223 14.7218 246.561 14.5195 247.038C14.5195 247.038 14.5195 247.084 14.497 247.106C14.2047 247.787 13.2378 249.944 10.8094 249.944C8.38096 249.944 7.21172 247.674 7.0993 247.129C7.03184 246.811 7.03184 245.29 7.03184 244.177C7.03184 243.95 7.03184 243.746 7.03184 243.587V195.749C6.96438 195.545 6.73953 195.159 6.35728 195.159C5.88509 195.159 5.63775 195.749 5.68272 195.999C5.72769 196.18 5.68272 208.282 5.68272 214.298C5.68272 214.344 5.68272 214.412 5.68272 214.457C5.68272 215.275 5.63775 216.546 4.89573 217.318C4.24366 217.999 2.98447 218.09 2.57974 218.09C2.04009 218.09 1.05073 217.863 0.57854 217.205C0.106348 216.546 -0.0285645 215.07 -0.0285645 214.298V194.205C-0.0285645 193.047 0.623511 190.663 2.04009 189.324C3.43418 188.007 4.28863 187.371 6.69456 187.189C8.40345 187.053 12.8106 187.121 15.4639 187.189C18.1171 187.144 22.5243 187.076 24.2331 187.189C26.6166 187.371 27.4935 188.03 28.8876 189.324C30.3042 190.641 30.9338 193.047 30.9563 194.205V214.298C30.9563 215.07 30.8214 216.546 30.3492 217.205C29.877 217.863 28.8876 218.09 28.348 218.09C27.9432 218.09 26.6616 217.999 26.032 217.318C25.29 216.546 25.2675 215.275 25.245 214.457C25.245 214.389 25.245 214.344 25.245 214.298C25.245 208.282 25.2 196.18 25.245 195.999C25.3124 195.772 25.0426 195.159 24.5704 195.159C24.1882 195.159 23.9633 195.545 23.8959 195.749V243.587C23.8959 244.631 23.8959 246.902 23.8284 247.242C23.7385 247.719 22.6367 249.944 20.1183 249.944C17.6 249.944 16.723 247.787 16.4307 247.106C16.4307 247.084 16.4307 247.061 16.4082 247.038C16.2059 246.561 16.1834 244.223 16.2059 243.11C16.2508 235.504 16.3183 220.179 16.2059 219.748C16.1159 219.407 15.7562 219.293 15.4863 219.271H15.4414Z" fill="#FFFDF4"/>
<path d="M15.1939 186.166C19.3416 186.166 22.704 182.771 22.704 178.583C22.704 174.395 19.3416 171 15.1939 171C11.0462 171 7.68378 174.395 7.68378 178.583C7.68378 182.771 11.0462 186.166 15.1939 186.166Z" fill="#FFFDF4"/>
</g>
<g clip-path="url(#clip6_779_341)">
<path fill-rule="evenodd" clip-rule="evenodd" d="M50.9406 219.271C50.6621 219.293 50.2675 219.407 50.1978 219.748C50.0818 220.179 50.1514 235.504 50.1978 243.11C50.1978 244.223 50.1978 246.561 49.9889 247.038C49.9889 247.038 49.9889 247.084 49.9657 247.106C49.664 247.787 48.6659 249.944 46.1592 249.944C43.6524 249.944 42.4455 247.674 42.3294 247.129C42.2598 246.811 42.2598 245.29 42.2598 244.177C42.2598 243.95 42.2598 243.746 42.2598 243.587V195.749C42.1901 195.545 41.958 195.159 41.5635 195.159C41.076 195.159 40.8207 195.749 40.8671 195.999C40.9136 196.18 40.8671 208.282 40.8671 214.298C40.8671 214.344 40.8671 214.412 40.8671 214.457C40.8671 215.275 40.8207 216.546 40.0548 217.318C39.3817 217.999 38.0819 218.09 37.6641 218.09C37.107 218.09 36.0857 217.863 35.5983 217.205C35.1109 216.546 34.9716 215.07 34.9716 214.298V194.205C34.9716 193.047 35.6447 190.663 37.107 189.324C38.5461 188.007 39.4281 187.371 41.9116 187.189C43.6756 187.053 48.2249 187.121 50.9638 187.189C53.7027 187.144 58.252 187.076 60.016 187.189C62.4763 187.371 63.3815 188.03 64.8206 189.324C66.2829 190.641 66.9328 193.047 66.956 194.205V214.298C66.956 215.07 66.8167 216.546 66.3293 217.205C65.8419 217.863 64.8206 218.09 64.2635 218.09C63.8457 218.09 62.5227 217.999 61.8728 217.318C61.1069 216.546 61.0837 215.275 61.0604 214.457C61.0604 214.389 61.0604 214.344 61.0604 214.298C61.0604 208.282 61.014 196.18 61.0604 195.999C61.1301 195.772 60.8516 195.159 60.3641 195.159C59.9695 195.159 59.7374 195.545 59.6678 195.749V243.587C59.6678 244.631 59.6678 246.902 59.5982 247.242C59.5053 247.719 58.368 249.944 55.7684 249.944C53.1688 249.944 52.2636 247.787 51.9619 247.106C51.9619 247.084 51.9619 247.061 51.9386 247.038C51.7297 246.561 51.7065 244.223 51.7297 243.11C51.7762 235.504 51.8458 220.179 51.7297 219.748C51.6369 219.407 51.2655 219.293 50.987 219.271H50.9406Z" fill="#FFFDF4"/>
<path d="M50.6851 186.166C54.9666 186.166 58.4375 182.771 58.4375 178.583C58.4375 174.395 54.9666 171 50.6851 171C46.4036 171 42.9327 174.395 42.9327 178.583C42.9327 182.771 46.4036 186.166 50.6851 186.166Z" fill="#FFFDF4"/>
</g>
<g clip-path="url(#clip7_779_341)">
<path fill-rule="evenodd" clip-rule="evenodd" d="M173.938 132.27C173.66 132.292 173.265 132.406 173.195 132.747C173.079 133.178 173.149 148.503 173.195 156.109C173.195 157.222 173.195 159.56 172.986 160.037C172.986 160.037 172.986 160.083 172.963 160.105C172.661 160.786 171.663 162.943 169.157 162.943C166.65 162.943 165.443 160.673 165.327 160.128C165.257 159.81 165.257 158.289 165.257 157.176C165.257 156.949 165.257 156.745 165.257 156.586V108.748C165.188 108.544 164.956 108.158 164.561 108.158C164.074 108.158 163.818 108.748 163.865 108.998C163.911 109.179 163.865 121.281 163.865 127.297C163.865 127.343 163.865 127.411 163.865 127.456C163.865 128.274 163.818 129.545 163.052 130.317C162.379 130.998 161.079 131.089 160.662 131.089C160.105 131.089 159.083 130.862 158.596 130.204C158.108 129.545 157.969 128.069 157.969 127.297V107.204C157.969 106.046 158.642 103.662 160.105 102.323C161.544 101.006 162.426 100.37 164.909 100.189C166.673 100.052 171.222 100.12 173.961 100.189C176.7 100.143 181.249 100.075 183.013 100.189C185.474 100.37 186.379 101.029 187.818 102.323C189.28 103.64 189.93 106.046 189.953 107.204V127.297C189.953 128.069 189.814 129.545 189.327 130.204C188.839 130.862 187.818 131.089 187.261 131.089C186.843 131.089 185.52 130.998 184.87 130.317C184.104 129.545 184.081 128.274 184.058 127.456C184.058 127.388 184.058 127.343 184.058 127.297C184.058 121.281 184.012 109.179 184.058 108.998C184.128 108.771 183.849 108.158 183.362 108.158C182.967 108.158 182.735 108.544 182.665 108.748V156.586C182.665 157.63 182.665 159.901 182.596 160.241C182.503 160.718 181.366 162.943 178.766 162.943C176.166 162.943 175.261 160.786 174.959 160.105C174.959 160.083 174.959 160.06 174.936 160.037C174.727 159.56 174.704 157.222 174.727 156.109C174.774 148.503 174.843 133.178 174.727 132.747C174.634 132.406 174.263 132.292 173.985 132.27H173.938Z" fill="#FFFDF4"/>
<path d="M173.683 99.1655C177.964 99.1655 181.435 95.7704 181.435 91.5823C181.435 87.3942 177.964 83.999 173.683 83.999C169.401 83.999 165.93 87.3942 165.93 91.5823C165.93 95.7704 169.401 99.1655 173.683 99.1655Z" fill="#FFFDF4"/>
</g>
<g clip-path="url(#clip8_779_341)">
<path fill-rule="evenodd" clip-rule="evenodd" d="M159.94 383.269C159.661 383.292 159.266 383.405 159.197 383.746C159.081 384.177 159.15 399.503 159.197 407.109C159.197 408.221 159.197 410.56 158.988 411.037C158.988 411.037 158.988 411.082 158.965 411.105C158.663 411.786 157.665 413.943 155.158 413.943C152.651 413.943 151.444 411.672 151.328 411.127C151.259 410.81 151.259 409.288 151.259 408.176C151.259 407.949 151.259 407.745 151.259 407.586V359.748C151.189 359.543 150.957 359.157 150.562 359.157C150.075 359.157 149.82 359.748 149.866 359.997C149.913 360.179 149.866 372.28 149.866 378.297C149.866 378.342 149.866 378.411 149.866 378.456C149.866 379.273 149.82 380.545 149.054 381.317C148.381 381.998 147.081 382.089 146.663 382.089C146.106 382.089 145.085 381.862 144.597 381.203C144.11 380.545 143.971 379.069 143.971 378.297V358.204C143.971 357.046 144.644 354.662 146.106 353.322C147.545 352.005 148.427 351.37 150.911 351.188C152.675 351.052 157.224 351.12 159.963 351.188C162.702 351.143 167.251 351.075 169.015 351.188C171.475 351.37 172.38 352.028 173.82 353.322C175.282 354.639 175.932 357.046 175.955 358.204V378.297C175.955 379.069 175.816 380.545 175.328 381.203C174.841 381.862 173.82 382.089 173.262 382.089C172.845 382.089 171.522 381.998 170.872 381.317C170.106 380.545 170.083 379.273 170.059 378.456C170.059 378.388 170.059 378.342 170.059 378.297C170.059 372.28 170.013 360.179 170.059 359.997C170.129 359.77 169.851 359.157 169.363 359.157C168.969 359.157 168.736 359.543 168.667 359.748V407.586C168.667 408.63 168.667 410.9 168.597 411.241C168.504 411.718 167.367 413.943 164.767 413.943C162.168 413.943 161.263 411.786 160.961 411.105C160.961 411.082 160.961 411.059 160.938 411.037C160.729 410.56 160.705 408.221 160.729 407.109C160.775 399.503 160.845 384.177 160.729 383.746C160.636 383.405 160.264 383.292 159.986 383.269H159.94Z" fill="#FFFDF4"/>
<path d="M159.684 350.166C163.966 350.166 167.437 346.771 167.437 342.583C167.437 338.395 163.966 335 159.684 335C155.403 335 151.932 338.395 151.932 342.583C151.932 346.771 155.403 350.166 159.684 350.166Z" fill="#FFFDF4"/>
</g>
<g clip-path="url(#clip9_779_341)">
<path fill-rule="evenodd" clip-rule="evenodd" d="M123.443 383.272C123.173 383.295 122.79 383.408 122.723 383.749C122.611 384.18 122.678 399.506 122.723 407.112C122.723 408.224 122.723 410.563 122.521 411.04C122.521 411.04 122.521 411.085 122.498 411.108C122.206 411.789 121.239 413.946 118.811 413.946C116.382 413.946 115.213 411.675 115.1 411.13C115.033 410.813 115.033 409.291 115.033 408.179C115.033 407.952 115.033 407.747 115.033 407.589V359.75C114.966 359.546 114.741 359.16 114.358 359.16C113.886 359.16 113.639 359.75 113.684 360C113.729 360.182 113.684 372.283 113.684 378.3C113.684 378.345 113.684 378.413 113.684 378.459C113.684 379.276 113.639 380.548 112.897 381.32C112.245 382.001 110.986 382.092 110.581 382.092C110.041 382.092 109.052 381.865 108.58 381.206C108.108 380.548 107.973 379.072 107.973 378.3V358.207C107.973 357.049 108.625 354.665 110.041 353.325C111.435 352.008 112.29 351.373 114.696 351.191C116.405 351.055 120.812 351.123 123.465 351.191C126.118 351.146 130.525 351.077 132.234 351.191C134.618 351.373 135.495 352.031 136.889 353.325C138.305 354.642 138.935 357.049 138.957 358.207V378.3C138.957 379.072 138.823 380.548 138.35 381.206C137.878 381.865 136.889 382.092 136.349 382.092C135.944 382.092 134.663 382.001 134.033 381.32C133.291 380.548 133.269 379.276 133.246 378.459C133.246 378.391 133.246 378.345 133.246 378.3C133.246 372.283 133.201 360.182 133.246 360C133.314 359.773 133.044 359.16 132.572 359.16C132.189 359.16 131.964 359.546 131.897 359.75V407.589C131.897 408.633 131.897 410.903 131.83 411.244C131.74 411.721 130.638 413.946 128.119 413.946C125.601 413.946 124.724 411.789 124.432 411.108C124.432 411.085 124.432 411.062 124.409 411.04C124.207 410.563 124.185 408.224 124.207 407.112C124.252 399.506 124.319 384.18 124.207 383.749C124.117 383.408 123.757 383.295 123.487 383.272H123.443Z" fill="#FFFDF4"/>
<path d="M123.195 350.168C127.343 350.168 130.705 346.773 130.705 342.585C130.705 338.397 127.343 335.001 123.195 335.001C119.047 335.001 115.685 338.397 115.685 342.585C115.685 346.773 119.047 350.168 123.195 350.168Z" fill="#FFFDF4"/>
</g>
<g clip-path="url(#clip10_779_341)">
<path fill-rule="evenodd" clip-rule="evenodd" d="M214.44 305.27C214.171 305.292 213.788 305.406 213.721 305.747C213.608 306.178 213.676 321.503 213.721 329.109C213.721 330.222 213.721 332.56 213.518 333.037C213.518 333.037 213.518 333.083 213.496 333.105C213.204 333.786 212.237 335.943 209.808 335.943C207.38 335.943 206.211 333.673 206.098 333.128C206.031 332.81 206.031 331.289 206.031 330.176C206.031 329.949 206.031 329.745 206.031 329.586V281.748C205.963 281.544 205.739 281.158 205.356 281.158C204.884 281.158 204.637 281.748 204.682 281.998C204.727 282.179 204.682 294.281 204.682 300.297C204.682 300.343 204.682 300.411 204.682 300.456C204.682 301.274 204.637 302.545 203.895 303.317C203.243 303.998 201.983 304.089 201.579 304.089C201.039 304.089 200.05 303.862 199.578 303.204C199.105 302.545 198.97 301.069 198.97 300.297V280.204C198.97 279.046 199.623 276.662 201.039 275.323C202.433 274.006 203.288 273.37 205.694 273.189C207.402 273.052 211.81 273.12 214.463 273.189C217.116 273.143 221.523 273.075 223.232 273.189C225.616 273.37 226.493 274.029 227.887 275.323C229.303 276.64 229.933 279.046 229.955 280.204V300.297C229.955 301.069 229.82 302.545 229.348 303.204C228.876 303.862 227.887 304.089 227.347 304.089C226.942 304.089 225.661 303.998 225.031 303.317C224.289 302.545 224.266 301.274 224.244 300.456C224.244 300.388 224.244 300.343 224.244 300.297C224.244 294.281 224.199 282.179 224.244 281.998C224.311 281.771 224.042 281.158 223.569 281.158C223.187 281.158 222.962 281.544 222.895 281.748V329.586C222.895 330.63 222.895 332.901 222.827 333.241C222.737 333.718 221.636 335.943 219.117 335.943C216.599 335.943 215.722 333.786 215.43 333.105C215.43 333.083 215.43 333.06 215.407 333.037C215.205 332.56 215.182 330.222 215.205 329.109C215.25 321.503 215.317 306.178 215.205 305.747C215.115 305.406 214.755 305.292 214.485 305.27H214.44Z" fill="#FFFDF4"/>
<path d="M214.193 272.166C218.341 272.166 221.703 268.77 221.703 264.582C221.703 260.394 218.341 256.999 214.193 256.999C210.045 256.999 206.683 260.394 206.683 264.582C206.683 268.77 210.045 272.166 214.193 272.166Z" fill="#FFFDF4"/>
</g>
<g clip-path="url(#clip11_779_341)">
<path fill-rule="evenodd" clip-rule="evenodd" d="M88.4425 47.6585C88.1726 47.681 87.7904 47.793 87.7229 48.1293C87.6105 48.5552 87.678 63.6867 87.7229 71.1963C87.7229 72.2948 87.7229 74.6037 87.5206 75.0745C87.5206 75.0745 87.5206 75.1193 87.4981 75.1417C87.2058 75.8142 86.2389 77.9438 83.8105 77.9438C81.3821 77.9438 80.2128 75.7021 80.1004 75.1641C80.0329 74.8503 80.0329 73.3484 80.0329 72.2499C80.0329 72.0258 80.0329 71.824 80.0329 71.6671V24.4346C79.9655 24.2328 79.7406 23.8518 79.3584 23.8518C78.8862 23.8518 78.6388 24.4346 78.6838 24.6812C78.7288 24.8605 78.6838 36.8087 78.6838 42.7492C78.6838 42.7941 78.6838 42.8613 78.6838 42.9062C78.6838 43.7132 78.6388 44.9685 77.8968 45.7307C77.2448 46.4032 75.9856 46.4929 75.5808 46.4929C75.0412 46.4929 74.0518 46.2687 73.5796 45.6186C73.1074 44.9685 72.9725 43.5114 72.9725 42.7492V22.9102C72.9725 21.767 73.6246 19.4132 75.0412 18.0906C76.4353 16.7904 77.2897 16.1628 79.6957 15.9834C81.4045 15.8489 85.8117 15.9162 88.465 15.9834C91.1182 15.9386 95.5254 15.8713 97.2342 15.9834C99.6177 16.1628 100.495 16.8128 101.889 18.0906C103.305 19.3908 103.935 21.767 103.957 22.9102V42.7492C103.957 43.5114 103.822 44.9685 103.35 45.6186C102.878 46.2687 101.889 46.4929 101.349 46.4929C100.944 46.4929 99.6627 46.4032 99.0331 45.7307C98.2911 44.9685 98.2686 43.7132 98.2461 42.9062C98.2461 42.8389 98.2461 42.7941 98.2461 42.7492C98.2461 36.8087 98.2011 24.8605 98.2461 24.6812C98.3135 24.457 98.0437 23.8518 97.5715 23.8518C97.1893 23.8518 96.9644 24.2328 96.897 24.4346V71.6671C96.897 72.6983 96.897 74.94 96.8295 75.2762C96.7396 75.747 95.6378 77.9438 93.1194 77.9438C90.6011 77.9438 89.7241 75.8142 89.4318 75.1417C89.4318 75.1193 89.4318 75.0969 89.4093 75.0745C89.207 74.6037 89.1845 72.2948 89.207 71.1963C89.2519 63.6867 89.3194 48.5552 89.207 48.1293C89.117 47.793 88.7573 47.681 88.4874 47.6585H88.4425Z" fill="#FFFDF4"/>
<path d="M88.195 14.9735C92.3427 14.9735 95.7051 11.6214 95.7051 7.48628C95.7051 3.35118 92.3427 -0.000976562 88.195 -0.000976562C84.0473 -0.000976562 80.6849 3.35118 80.6849 7.48628C80.6849 11.6214 84.0473 14.9735 88.195 14.9735Z" fill="#FFFDF4"/>
</g>
<g clip-path="url(#clip12_779_341)">
<path fill-rule="evenodd" clip-rule="evenodd" d="M123.441 47.6585C123.172 47.681 122.789 47.793 122.722 48.1293C122.609 48.5552 122.677 63.6867 122.722 71.1963C122.722 72.2948 122.722 74.6037 122.519 75.0745C122.519 75.0745 122.519 75.1193 122.497 75.1417C122.205 75.8142 121.238 77.9438 118.809 77.9438C116.381 77.9438 115.212 75.7021 115.099 75.1641C115.032 74.8503 115.032 73.3484 115.032 72.2499C115.032 72.0258 115.032 71.824 115.032 71.6671V24.4346C114.964 24.2328 114.74 23.8518 114.357 23.8518C113.885 23.8518 113.638 24.4346 113.683 24.6812C113.728 24.8605 113.683 36.8087 113.683 42.7492C113.683 42.7941 113.683 42.8613 113.683 42.9062C113.683 43.7132 113.638 44.9685 112.896 45.7307C112.244 46.4032 110.984 46.4929 110.58 46.4929C110.04 46.4929 109.051 46.2687 108.579 45.6186C108.106 44.9685 107.971 43.5114 107.971 42.7492V22.9102C107.971 21.767 108.624 19.4132 110.04 18.0906C111.434 16.7904 112.289 16.1628 114.695 15.9834C116.403 15.8489 120.811 15.9162 123.464 15.9834C126.117 15.9386 130.524 15.8713 132.233 15.9834C134.617 16.1628 135.494 16.8128 136.888 18.0906C138.304 19.3908 138.934 21.767 138.956 22.9102V42.7492C138.956 43.5114 138.821 44.9685 138.349 45.6186C137.877 46.2687 136.888 46.4929 136.348 46.4929C135.943 46.4929 134.662 46.4032 134.032 45.7307C133.29 44.9685 133.267 43.7132 133.245 42.9062C133.245 42.8389 133.245 42.7941 133.245 42.7492C133.245 36.8087 133.2 24.8605 133.245 24.6812C133.312 24.457 133.043 23.8518 132.57 23.8518C132.188 23.8518 131.963 24.2328 131.896 24.4346V71.6671C131.896 72.6983 131.896 74.94 131.828 75.2762C131.738 75.747 130.637 77.9438 128.118 77.9438C125.6 77.9438 124.723 75.8142 124.431 75.1417C124.431 75.1193 124.431 75.0969 124.408 75.0745C124.206 74.6037 124.183 72.2948 124.206 71.1963C124.251 63.6867 124.318 48.5552 124.206 48.1293C124.116 47.793 123.756 47.681 123.486 47.6585H123.441Z" fill="#FFFDF4"/>
<path d="M123.194 14.9735C127.342 14.9735 130.704 11.6214 130.704 7.48628C130.704 3.35118 127.342 -0.000976562 123.194 -0.000976562C119.046 -0.000976562 115.684 3.35118 115.684 7.48628C115.684 11.6214 119.046 14.9735 123.194 14.9735Z" fill="#FFFDF4"/>
</g>
<g clip-path="url(#clip13_779_341)">
<path fill-rule="evenodd" clip-rule="evenodd" d="M159.939 47.6585C159.661 47.681 159.266 47.793 159.197 48.1293C159.081 48.5552 159.15 63.6867 159.197 71.1963C159.197 72.2948 159.197 74.6037 158.988 75.0745C158.988 75.0745 158.988 75.1193 158.965 75.1417C158.663 75.8142 157.665 77.9438 155.158 77.9438C152.651 77.9438 151.444 75.7021 151.328 75.1641C151.259 74.8503 151.259 73.3484 151.259 72.2499C151.259 72.0258 151.259 71.824 151.259 71.6671V24.4346C151.189 24.2328 150.957 23.8518 150.562 23.8518C150.075 23.8518 149.82 24.4346 149.866 24.6812C149.912 24.8605 149.866 36.8087 149.866 42.7492C149.866 42.7941 149.866 42.8613 149.866 42.9062C149.866 43.7132 149.82 44.9685 149.054 45.7307C148.381 46.4032 147.081 46.4929 146.663 46.4929C146.106 46.4929 145.085 46.2687 144.597 45.6186C144.11 44.9685 143.971 43.5114 143.971 42.7492V22.9102C143.971 21.767 144.644 19.4132 146.106 18.0906C147.545 16.7904 148.427 16.1628 150.911 15.9834C152.675 15.8489 157.224 15.9162 159.963 15.9834C162.702 15.9386 167.251 15.8713 169.015 15.9834C171.475 16.1628 172.38 16.8128 173.819 18.0906C175.282 19.3908 175.932 21.767 175.955 22.9102V42.7492C175.955 43.5114 175.816 44.9685 175.328 45.6186C174.841 46.2687 173.819 46.4929 173.262 46.4929C172.845 46.4929 171.522 46.4032 170.872 45.7307C170.106 44.9685 170.083 43.7132 170.059 42.9062C170.059 42.8389 170.059 42.7941 170.059 42.7492C170.059 36.8087 170.013 24.8605 170.059 24.6812C170.129 24.457 169.85 23.8518 169.363 23.8518C168.968 23.8518 168.736 24.2328 168.667 24.4346V71.6671C168.667 72.6983 168.667 74.94 168.597 75.2762C168.504 75.747 167.367 77.9438 164.767 77.9438C162.168 77.9438 161.262 75.8142 160.961 75.1417C160.961 75.1193 160.961 75.0969 160.938 75.0745C160.729 74.6037 160.705 72.2948 160.729 71.1963C160.775 63.6867 160.845 48.5552 160.729 48.1293C160.636 47.793 160.264 47.681 159.986 47.6585H159.939Z" fill="#FFFDF4"/>
<path d="M159.684 14.9735C163.966 14.9735 167.436 11.6214 167.436 7.48628C167.436 3.35118 163.966 -0.000976562 159.684 -0.000976562C155.402 -0.000976562 151.932 3.35118 151.932 7.48628C151.932 11.6214 155.402 14.9735 159.684 14.9735Z" fill="#FFFDF4"/>
</g>
<g clip-path="url(#clip14_779_341)">
<path fill-rule="evenodd" clip-rule="evenodd" d="M31.4414 132.27C31.1715 132.292 30.7893 132.406 30.7218 132.747C30.6094 133.178 30.6769 148.503 30.7218 156.109C30.7218 157.222 30.7218 159.56 30.5195 160.037C30.5195 160.037 30.5195 160.083 30.497 160.105C30.2047 160.786 29.2378 162.943 26.8094 162.943C24.381 162.943 23.2117 160.673 23.0993 160.128C23.0318 159.81 23.0318 158.289 23.0318 157.176C23.0318 156.949 23.0318 156.745 23.0318 156.586V108.748C22.9644 108.544 22.7395 108.158 22.3573 108.158C21.8851 108.158 21.6377 108.748 21.6827 108.998C21.7277 109.179 21.6827 121.281 21.6827 127.297C21.6827 127.343 21.6827 127.411 21.6827 127.456C21.6827 128.274 21.6377 129.545 20.8957 130.317C20.2437 130.998 18.9845 131.089 18.5797 131.089C18.0401 131.089 17.0507 130.862 16.5785 130.204C16.1063 129.545 15.9714 128.069 15.9714 127.297V107.204C15.9714 106.046 16.6235 103.662 18.0401 102.323C19.4342 101.006 20.2886 100.37 22.6946 100.189C24.4034 100.052 28.8106 100.12 31.4639 100.189C34.1171 100.143 38.5243 100.075 40.2331 100.189C42.6166 100.37 43.4935 101.029 44.8876 102.323C46.3042 103.64 46.9338 106.046 46.9563 107.204V127.297C46.9563 128.069 46.8214 129.545 46.3492 130.204C45.877 130.862 44.8876 131.089 44.348 131.089C43.9432 131.089 42.6616 130.998 42.032 130.317C41.29 129.545 41.2675 128.274 41.245 127.456C41.245 127.388 41.245 127.343 41.245 127.297C41.245 121.281 41.2 109.179 41.245 108.998C41.3124 108.771 41.0426 108.158 40.5704 108.158C40.1882 108.158 39.9633 108.544 39.8959 108.748V156.586C39.8959 157.63 39.8959 159.901 39.8284 160.241C39.7385 160.718 38.6367 162.943 36.1183 162.943C33.6 162.943 32.723 160.786 32.4307 160.105C32.4307 160.083 32.4307 160.06 32.4082 160.037C32.2059 159.56 32.1834 157.222 32.2059 156.109C32.2508 148.503 32.3183 133.178 32.2059 132.747C32.1159 132.406 31.7562 132.292 31.4863 132.27H31.4414Z" fill="#FFFDF4"/>
<path d="M31.1939 99.1655C35.3416 99.1655 38.704 95.7704 38.704 91.5823C38.704 87.3942 35.3416 83.999 31.1939 83.999C27.0462 83.999 23.6838 87.3942 23.6838 91.5823C23.6838 95.7704 27.0462 99.1655 31.1939 99.1655Z" fill="#FFFDF4"/>
</g>
<g clip-path="url(#clip15_779_341)">
<path fill-rule="evenodd" clip-rule="evenodd" d="M31.4426 305.272C31.1728 305.294 30.7905 305.408 30.7231 305.748C30.6106 306.18 30.6781 321.505 30.7231 329.111C30.7231 330.224 30.7231 332.562 30.5207 333.039C30.5207 333.039 30.5207 333.084 30.4982 333.107C30.2059 333.788 29.239 335.945 26.8106 335.945C24.3822 335.945 23.2129 333.675 23.1005 333.13C23.0331 332.812 23.0331 331.291 23.0331 330.178C23.0331 329.951 23.0331 329.747 23.0331 329.588V281.75C22.9656 281.546 22.7408 281.16 22.3585 281.16C21.8863 281.16 21.639 281.75 21.6839 282C21.7289 282.181 21.6839 294.283 21.6839 300.299C21.6839 300.345 21.6839 300.413 21.6839 300.458C21.6839 301.276 21.639 302.547 20.897 303.319C20.2449 304 18.9857 304.091 18.581 304.091C18.0413 304.091 17.052 303.864 16.5798 303.206C16.1076 302.547 15.9727 301.071 15.9727 300.299V280.206C15.9727 279.048 16.6247 276.664 18.0413 275.325C19.4354 274.008 20.2898 273.372 22.6958 273.19C24.4047 273.054 28.8118 273.122 31.4651 273.19C34.1183 273.145 38.5255 273.077 40.2344 273.19C42.6178 273.372 43.4947 274.031 44.8888 275.325C46.3054 276.642 46.935 279.048 46.9575 280.206V300.299C46.9575 301.071 46.8226 302.547 46.3504 303.206C45.8782 303.864 44.8888 304.091 44.3492 304.091C43.9445 304.091 42.6628 304 42.0332 303.319C41.2912 302.547 41.2687 301.276 41.2462 300.458C41.2462 300.39 41.2462 300.345 41.2462 300.299C41.2462 294.283 41.2012 282.181 41.2462 282C41.3137 281.773 41.0438 281.16 40.5716 281.16C40.1894 281.16 39.9645 281.546 39.8971 281.75V329.588C39.8971 330.632 39.8971 332.903 39.8296 333.243C39.7397 333.72 38.6379 335.945 36.1195 335.945C33.6012 335.945 32.7243 333.788 32.4319 333.107C32.4319 333.084 32.4319 333.062 32.4095 333.039C32.2071 332.562 32.1846 330.224 32.2071 329.111C32.2521 321.505 32.3195 306.18 32.2071 305.748C32.1171 305.408 31.7574 305.294 31.4876 305.272H31.4426Z" fill="#FFFDF4"/>
<path d="M31.1952 272.167C35.3429 272.167 38.7053 268.772 38.7053 264.584C38.7053 260.396 35.3429 257.001 31.1952 257.001C27.0475 257.001 23.6851 260.396 23.6851 264.584C23.6851 268.772 27.0475 272.167 31.1952 272.167Z" fill="#FFFDF4"/>
</g>
<g clip-path="url(#clip16_779_341)">
<path fill-rule="evenodd" clip-rule="evenodd" d="M68.9406 132.27C68.6621 132.292 68.2675 132.406 68.1978 132.747C68.0818 133.178 68.1514 148.503 68.1978 156.109C68.1978 157.222 68.1978 159.56 67.9889 160.037C67.9889 160.037 67.9889 160.083 67.9657 160.105C67.664 160.786 66.6659 162.943 64.1592 162.943C61.6524 162.943 60.4455 160.673 60.3294 160.128C60.2598 159.81 60.2598 158.289 60.2598 157.176C60.2598 156.949 60.2598 156.745 60.2598 156.586V108.748C60.1901 108.544 59.958 108.158 59.5635 108.158C59.076 108.158 58.8207 108.748 58.8671 108.998C58.9136 109.179 58.8671 121.281 58.8671 127.297C58.8671 127.343 58.8671 127.411 58.8671 127.456C58.8671 128.274 58.8207 129.545 58.0548 130.317C57.3817 130.998 56.0819 131.089 55.6641 131.089C55.107 131.089 54.0857 130.862 53.5983 130.204C53.1109 129.545 52.9716 128.069 52.9716 127.297V107.204C52.9716 106.046 53.6447 103.662 55.107 102.323C56.5461 101.006 57.4281 100.37 59.9116 100.189C61.6756 100.052 66.2249 100.12 68.9638 100.189C71.7027 100.143 76.252 100.075 78.016 100.189C80.4763 100.37 81.3815 101.029 82.8206 102.323C84.2829 103.64 84.9328 106.046 84.956 107.204V127.297C84.956 128.069 84.8167 129.545 84.3293 130.204C83.8419 130.862 82.8206 131.089 82.2635 131.089C81.8457 131.089 80.5227 130.998 79.8728 130.317C79.1069 129.545 79.0837 128.274 79.0604 127.456C79.0604 127.388 79.0604 127.343 79.0604 127.297C79.0604 121.281 79.014 109.179 79.0604 108.998C79.1301 108.771 78.8516 108.158 78.3641 108.158C77.9695 108.158 77.7374 108.544 77.6678 108.748V156.586C77.6678 157.63 77.6678 159.901 77.5982 160.241C77.5053 160.718 76.368 162.943 73.7684 162.943C71.1688 162.943 70.2636 160.786 69.9619 160.105C69.9619 160.083 69.9619 160.06 69.9386 160.037C69.7297 159.56 69.7065 157.222 69.7297 156.109C69.7762 148.503 69.8458 133.178 69.7297 132.747C69.6369 132.406 69.2655 132.292 68.987 132.27H68.9406Z" fill="#FFFDF4"/>
<path d="M68.6851 99.1655C72.9666 99.1655 76.4375 95.7704 76.4375 91.5823C76.4375 87.3942 72.9666 83.999 68.6851 83.999C64.4036 83.999 60.9327 87.3942 60.9327 91.5823C60.9327 95.7704 64.4036 99.1655 68.6851 99.1655Z" fill="#FFFDF4"/>
</g>
<g clip-path="url(#clip17_779_341)">
<path fill-rule="evenodd" clip-rule="evenodd" d="M105.443 132.27C105.174 132.292 104.791 132.406 104.724 132.747C104.611 133.178 104.679 148.503 104.724 156.109C104.724 157.222 104.724 159.56 104.522 160.037C104.522 160.037 104.522 160.083 104.499 160.105C104.207 160.786 103.24 162.943 100.811 162.943C98.383 162.943 97.2138 160.673 97.1014 160.128C97.0339 159.81 97.0339 158.289 97.0339 157.176C97.0339 156.949 97.0339 156.745 97.0339 156.586V108.748C96.9665 108.544 96.7416 108.158 96.3594 108.158C95.8872 108.158 95.6398 108.748 95.6848 108.998C95.7298 109.179 95.6848 121.281 95.6848 127.297C95.6848 127.343 95.6848 127.411 95.6848 127.456C95.6848 128.274 95.6398 129.545 94.8978 130.317C94.2457 130.998 92.9865 131.089 92.5818 131.089C92.0422 131.089 91.0528 130.862 90.5806 130.204C90.1084 129.545 89.9735 128.069 89.9735 127.297V107.204C89.9735 106.046 90.6256 103.662 92.0422 102.323C93.4363 101.006 94.2907 100.37 96.6966 100.189C98.4055 100.052 102.813 100.12 105.466 100.189C108.119 100.143 112.526 100.075 114.235 100.189C116.619 100.37 117.496 101.029 118.89 102.323C120.306 103.64 120.936 106.046 120.958 107.204V127.297C120.958 128.069 120.823 129.545 120.351 130.204C119.879 130.862 118.89 131.089 118.35 131.089C117.945 131.089 116.664 130.998 116.034 130.317C115.292 129.545 115.27 128.274 115.247 127.456C115.247 127.388 115.247 127.343 115.247 127.297C115.247 121.281 115.202 109.179 115.247 108.998C115.315 108.771 115.045 108.158 114.573 108.158C114.19 108.158 113.965 108.544 113.898 108.748V156.586C113.898 157.63 113.898 159.901 113.83 160.241C113.741 160.718 112.639 162.943 110.12 162.943C107.602 162.943 106.725 160.786 106.433 160.105C106.433 160.083 106.433 160.06 106.41 160.037C106.208 159.56 106.185 157.222 106.208 156.109C106.253 148.503 106.32 133.178 106.208 132.747C106.118 132.406 105.758 132.292 105.488 132.27H105.443Z" fill="#FFFDF4"/>
<path d="M105.196 99.1655C109.344 99.1655 112.706 95.7704 112.706 91.5823C112.706 87.3942 109.344 83.999 105.196 83.999C101.048 83.999 97.6859 87.3942 97.6859 91.5823C97.6859 95.7704 101.048 99.1655 105.196 99.1655Z" fill="#FFFDF4"/>
</g>
<g clip-path="url(#clip18_779_341)">
<path fill-rule="evenodd" clip-rule="evenodd" d="M139.941 132.27C139.662 132.292 139.267 132.406 139.198 132.747C139.082 133.178 139.151 148.503 139.198 156.109C139.198 157.222 139.198 159.56 138.989 160.037C138.989 160.037 138.989 160.083 138.966 160.105C138.664 160.786 137.666 162.943 135.159 162.943C132.652 162.943 131.445 160.673 131.329 160.128C131.26 159.81 131.26 158.289 131.26 157.176C131.26 156.949 131.26 156.745 131.26 156.586V108.748C131.19 108.544 130.958 108.158 130.563 108.158C130.076 108.158 129.821 108.748 129.867 108.998C129.914 109.179 129.867 121.281 129.867 127.297C129.867 127.343 129.867 127.411 129.867 127.456C129.867 128.274 129.821 129.545 129.055 130.317C128.382 130.998 127.082 131.089 126.664 131.089C126.107 131.089 125.086 130.862 124.598 130.204C124.111 129.545 123.972 128.069 123.972 127.297V107.204C123.972 106.046 124.645 103.662 126.107 102.323C127.546 101.006 128.428 100.37 130.912 100.189C132.676 100.052 137.225 100.12 139.964 100.189C142.703 100.143 147.252 100.075 149.016 100.189C151.476 100.37 152.382 101.029 153.821 102.323C155.283 103.64 155.933 106.046 155.956 107.204V127.297C155.956 128.069 155.817 129.545 155.329 130.204C154.842 130.862 153.821 131.089 153.264 131.089C152.846 131.089 151.523 130.998 150.873 130.317C150.107 129.545 150.084 128.274 150.06 127.456C150.06 127.388 150.06 127.343 150.06 127.297C150.06 121.281 150.014 109.179 150.06 108.998C150.13 108.771 149.852 108.158 149.364 108.158C148.97 108.158 148.737 108.544 148.668 108.748V156.586C148.668 157.63 148.668 159.901 148.598 160.241C148.505 160.718 147.368 162.943 144.768 162.943C142.169 162.943 141.264 160.786 140.962 160.105C140.962 160.083 140.962 160.06 140.939 160.037C140.73 159.56 140.707 157.222 140.73 156.109C140.776 148.503 140.846 133.178 140.73 132.747C140.637 132.406 140.266 132.292 139.987 132.27H139.941Z" fill="#FFFDF4"/>
<path d="M139.685 99.1655C143.967 99.1655 147.437 95.7704 147.437 91.5823C147.437 87.3942 143.967 83.999 139.685 83.999C135.404 83.999 131.933 87.3942 131.933 91.5823C131.933 95.7704 135.404 99.1655 139.685 99.1655Z" fill="#FFFDF4"/>
</g>
<g clip-path="url(#clip19_779_341)">
<path fill-rule="evenodd" clip-rule="evenodd" d="M69.4436 305.272C69.1737 305.294 68.7915 305.408 68.724 305.748C68.6116 306.18 68.6791 321.505 68.724 329.111C68.724 330.224 68.724 332.562 68.5217 333.039C68.5217 333.039 68.5217 333.084 68.4992 333.107C68.2069 333.788 67.24 335.945 64.8116 335.945C62.3832 335.945 61.2139 333.675 61.1015 333.13C61.034 332.812 61.034 331.291 61.034 330.178C61.034 329.951 61.034 329.747 61.034 329.588V281.75C60.9666 281.546 60.7417 281.16 60.3595 281.16C59.8873 281.16 59.6399 281.75 59.6849 282C59.7299 282.181 59.6849 294.283 59.6849 300.299C59.6849 300.345 59.6849 300.413 59.6849 300.458C59.6849 301.276 59.6399 302.547 58.8979 303.319C58.2459 304 56.9867 304.091 56.5819 304.091C56.0423 304.091 55.0529 303.864 54.5807 303.206C54.1085 302.547 53.9736 301.071 53.9736 300.299V280.206C53.9736 279.048 54.6257 276.664 56.0423 275.325C57.4364 274.008 58.2908 273.372 60.6968 273.19C62.4056 273.054 66.8128 273.122 69.466 273.19C72.1193 273.145 76.5265 273.077 78.2353 273.19C80.6188 273.372 81.4957 274.031 82.8898 275.325C84.3064 276.642 84.936 279.048 84.9585 280.206V300.299C84.9585 301.071 84.8236 302.547 84.3514 303.206C83.8792 303.864 82.8898 304.091 82.3502 304.091C81.9454 304.091 80.6638 304 80.0342 303.319C79.2922 302.547 79.2697 301.276 79.2472 300.458C79.2472 300.39 79.2472 300.345 79.2472 300.299C79.2472 294.283 79.2022 282.181 79.2472 282C79.3146 281.773 79.0448 281.16 78.5726 281.16C78.1904 281.16 77.9655 281.546 77.8981 281.75V329.588C77.8981 330.632 77.8981 332.903 77.8306 333.243C77.7407 333.72 76.6389 335.945 74.1205 335.945C71.6022 335.945 70.7252 333.788 70.4329 333.107C70.4329 333.084 70.4329 333.062 70.4104 333.039C70.2081 332.562 70.1856 330.224 70.2081 329.111C70.253 321.505 70.3205 306.18 70.2081 305.748C70.1181 305.408 69.7584 305.294 69.4885 305.272H69.4436Z" fill="#FFFDF4"/>
<path d="M69.1961 272.167C73.3438 272.167 76.7062 268.772 76.7062 264.584C76.7062 260.396 73.3438 257.001 69.1961 257.001C65.0484 257.001 61.686 260.396 61.686 264.584C61.686 268.772 65.0484 272.167 69.1961 272.167Z" fill="#FFFDF4"/>
</g>
<g clip-path="url(#clip20_779_341)">
<path fill-rule="evenodd" clip-rule="evenodd" d="M105.941 305.272C105.662 305.295 105.267 305.408 105.198 305.749C105.082 306.18 105.151 321.506 105.198 329.112C105.198 330.224 105.198 332.563 104.989 333.04C104.989 333.04 104.989 333.085 104.966 333.108C104.664 333.789 103.666 335.946 101.159 335.946C98.6524 335.946 97.4455 333.675 97.3294 333.13C97.2598 332.813 97.2598 331.291 97.2598 330.179C97.2598 329.952 97.2598 329.747 97.2598 329.589V281.75C97.1901 281.546 96.958 281.16 96.5635 281.16C96.076 281.16 95.8207 281.75 95.8671 282C95.9136 282.182 95.8671 294.283 95.8671 300.3C95.8671 300.345 95.8671 300.413 95.8671 300.459C95.8671 301.276 95.8207 302.548 95.0548 303.32C94.3817 304.001 93.0819 304.092 92.6641 304.092C92.107 304.092 91.0857 303.865 90.5983 303.206C90.1109 302.548 89.9716 301.072 89.9716 300.3V280.207C89.9716 279.049 90.6447 276.665 92.107 275.325C93.5461 274.008 94.4281 273.373 96.9116 273.191C98.6756 273.055 103.225 273.123 105.964 273.191C108.703 273.146 113.252 273.077 115.016 273.191C117.476 273.373 118.382 274.031 119.821 275.325C121.283 276.642 121.933 279.049 121.956 280.207V300.3C121.956 301.072 121.817 302.548 121.329 303.206C120.842 303.865 119.821 304.092 119.264 304.092C118.846 304.092 117.523 304.001 116.873 303.32C116.107 302.548 116.084 301.276 116.06 300.459C116.06 300.391 116.06 300.345 116.06 300.3C116.06 294.283 116.014 282.182 116.06 282C116.13 281.773 115.852 281.16 115.364 281.16C114.97 281.16 114.737 281.546 114.668 281.75V329.589C114.668 330.633 114.668 332.903 114.598 333.244C114.505 333.721 113.368 335.946 110.768 335.946C108.169 335.946 107.264 333.789 106.962 333.108C106.962 333.085 106.962 333.062 106.939 333.04C106.73 332.563 106.707 330.224 106.73 329.112C106.776 321.506 106.846 306.18 106.73 305.749C106.637 305.408 106.266 305.295 105.987 305.272H105.941Z" fill="#FFFDF4"/>
<path d="M105.685 272.168C109.967 272.168 113.437 268.773 113.437 264.585C113.437 260.397 109.967 257.001 105.685 257.001C101.404 257.001 97.9327 260.397 97.9327 264.585C97.9327 268.773 101.404 272.168 105.685 272.168Z" fill="#FFFDF4"/>
</g>
<g clip-path="url(#clip21_779_341)">
<path fill-rule="evenodd" clip-rule="evenodd" d="M177.443 305.272C177.173 305.294 176.791 305.408 176.723 305.748C176.611 306.18 176.678 321.505 176.723 329.111C176.723 330.224 176.723 332.562 176.521 333.039C176.521 333.039 176.521 333.084 176.498 333.107C176.206 333.788 175.239 335.945 172.811 335.945C170.382 335.945 169.213 333.675 169.101 333.13C169.033 332.812 169.033 331.291 169.033 330.178C169.033 329.951 169.033 329.747 169.033 329.588V281.75C168.966 281.546 168.741 281.16 168.359 281.16C167.886 281.16 167.639 281.75 167.684 282C167.729 282.181 167.684 294.283 167.684 300.299C167.684 300.345 167.684 300.413 167.684 300.458C167.684 301.276 167.639 302.547 166.897 303.319C166.245 304 164.986 304.091 164.581 304.091C164.041 304.091 163.052 303.864 162.58 303.206C162.108 302.547 161.973 301.071 161.973 300.299V280.206C161.973 279.048 162.625 276.664 164.041 275.325C165.436 274.008 166.29 273.372 168.696 273.19C170.405 273.054 174.812 273.122 177.465 273.19C180.118 273.145 184.526 273.077 186.234 273.19C188.618 273.372 189.495 274.031 190.889 275.325C192.306 276.642 192.935 279.048 192.958 280.206V300.299C192.958 301.071 192.823 302.547 192.351 303.206C191.878 303.864 190.889 304.091 190.349 304.091C189.945 304.091 188.663 304 188.033 303.319C187.291 302.547 187.269 301.276 187.246 300.458C187.246 300.39 187.246 300.345 187.246 300.299C187.246 294.283 187.201 282.181 187.246 282C187.314 281.773 187.044 281.16 186.572 281.16C186.19 281.16 185.965 281.546 185.897 281.75V329.588C185.897 330.632 185.897 332.903 185.83 333.243C185.74 333.72 184.638 335.945 182.12 335.945C179.601 335.945 178.724 333.788 178.432 333.107C178.432 333.084 178.432 333.062 178.41 333.039C178.207 332.562 178.185 330.224 178.207 329.111C178.252 321.505 178.32 306.18 178.207 305.748C178.117 305.408 177.758 305.294 177.488 305.272H177.443Z" fill="#FFFDF4"/>
<path d="M177.195 272.167C181.343 272.167 184.706 268.772 184.706 264.584C184.706 260.396 181.343 257.001 177.195 257.001C173.048 257.001 169.685 260.396 169.685 264.584C169.685 268.772 173.048 272.167 177.195 272.167Z" fill="#FFFDF4"/>
</g>
<g clip-path="url(#clip22_779_341)">
<path fill-rule="evenodd" clip-rule="evenodd" d="M232.942 219.273C232.663 219.295 232.269 219.409 232.199 219.749C232.083 220.181 232.152 235.506 232.199 243.112C232.199 244.225 232.199 246.563 231.99 247.04C231.99 247.04 231.99 247.085 231.967 247.108C231.665 247.789 230.667 249.946 228.16 249.946C225.653 249.946 224.447 247.676 224.33 247.131C224.261 246.813 224.261 245.292 224.261 244.179C224.261 243.952 224.261 243.748 224.261 243.589V195.751C224.191 195.547 223.959 195.161 223.564 195.161C223.077 195.161 222.822 195.751 222.868 196.001C222.915 196.182 222.868 208.284 222.868 214.3C222.868 214.346 222.868 214.414 222.868 214.459C222.868 215.277 222.822 216.548 222.056 217.32C221.383 218.001 220.083 218.092 219.665 218.092C219.108 218.092 218.087 217.865 217.599 217.207C217.112 216.548 216.973 215.072 216.973 214.3V194.207C216.973 193.049 217.646 190.665 219.108 189.326C220.547 188.009 221.429 187.373 223.913 187.191C225.677 187.055 230.226 187.123 232.965 187.191C235.704 187.146 240.253 187.078 242.017 187.191C244.477 187.373 245.383 188.032 246.822 189.326C248.284 190.643 248.934 193.049 248.957 194.207V214.3C248.957 215.072 248.818 216.548 248.33 217.207C247.843 217.865 246.822 218.092 246.265 218.092C245.847 218.092 244.524 218.001 243.874 217.32C243.108 216.548 243.085 215.277 243.061 214.459C243.061 214.391 243.061 214.346 243.061 214.3C243.061 208.284 243.015 196.182 243.061 196.001C243.131 195.774 242.853 195.161 242.365 195.161C241.971 195.161 241.738 195.547 241.669 195.751V243.589C241.669 244.633 241.669 246.904 241.599 247.244C241.506 247.721 240.369 249.946 237.769 249.946C235.17 249.946 234.265 247.789 233.963 247.108C233.963 247.085 233.963 247.063 233.94 247.04C233.731 246.563 233.708 244.225 233.731 243.112C233.777 235.506 233.847 220.181 233.731 219.749C233.638 219.409 233.267 219.295 232.988 219.273H232.942Z" fill="#FFFDF4"/>
<path d="M232.686 186.169C236.968 186.169 240.439 182.774 240.439 178.586C240.439 174.398 236.968 171.002 232.686 171.002C228.405 171.002 224.934 174.398 224.934 178.586C224.934 182.774 228.405 186.169 232.686 186.169Z" fill="#FFFDF4"/>
</g>
<g clip-path="url(#clip23_779_341)">
<path fill-rule="evenodd" clip-rule="evenodd" d="M88.4426 384.659C88.1728 384.681 87.7906 384.793 87.7231 385.129C87.6107 385.555 87.6781 400.687 87.7231 408.196C87.7231 409.295 87.7231 411.604 87.5207 412.074C87.5207 412.074 87.5207 412.119 87.4983 412.142C87.206 412.814 86.2391 414.944 83.8107 414.944C81.3822 414.944 80.213 412.702 80.1006 412.164C80.0331 411.85 80.0331 410.348 80.0331 409.25C80.0331 409.026 80.0331 408.824 80.0331 408.667V361.435C79.9657 361.233 79.7408 360.852 79.3586 360.852C78.8864 360.852 78.639 361.435 78.684 361.681C78.729 361.861 78.684 373.809 78.684 379.749C78.684 379.794 78.684 379.861 78.684 379.906C78.684 380.713 78.639 381.969 77.897 382.731C77.2449 383.403 75.9858 383.493 75.581 383.493C75.0414 383.493 74.052 383.269 73.5798 382.619C73.1076 381.969 72.9727 380.511 72.9727 379.749V359.91C72.9727 358.767 73.6248 356.413 75.0414 355.091C76.4355 353.79 77.2899 353.163 79.6958 352.983C81.4047 352.849 85.8119 352.916 88.4651 352.983C91.1184 352.939 95.5255 352.871 97.2344 352.983C99.6179 353.163 100.495 353.813 101.889 355.091C103.305 356.391 103.935 358.767 103.958 359.91V379.749C103.958 380.511 103.823 381.969 103.35 382.619C102.878 383.269 101.889 383.493 101.349 383.493C100.945 383.493 99.6628 383.403 99.0333 382.731C98.2912 381.969 98.2688 380.713 98.2463 379.906C98.2463 379.839 98.2463 379.794 98.2463 379.749C98.2463 373.809 98.2013 361.861 98.2463 361.681C98.3137 361.457 98.0439 360.852 97.5717 360.852C97.1895 360.852 96.9646 361.233 96.8971 361.435V408.667C96.8971 409.698 96.8971 411.94 96.8297 412.276C96.7397 412.747 95.638 414.944 93.1196 414.944C90.6012 414.944 89.7243 412.814 89.432 412.142C89.432 412.119 89.432 412.097 89.4095 412.074C89.2072 411.604 89.1847 409.295 89.2072 408.196C89.2521 400.687 89.3196 385.555 89.2072 385.129C89.1172 384.793 88.7574 384.681 88.4876 384.659H88.4426Z" fill="#FFFDF4"/>
<path d="M88.1963 351.975C92.344 351.975 95.7064 348.622 95.7064 344.487C95.7064 340.352 92.344 337 88.1963 337C84.0485 337 80.6862 340.352 80.6862 344.487C80.6862 348.622 84.0485 351.975 88.1963 351.975Z" fill="#FFFDF4"/>
</g>
<g clip-path="url(#clip24_779_341)">
<path fill-rule="evenodd" clip-rule="evenodd" d="M142.939 305.272C142.661 305.294 142.266 305.408 142.197 305.748C142.081 306.18 142.15 321.505 142.197 329.111C142.197 330.224 142.197 332.562 141.988 333.039C141.988 333.039 141.988 333.084 141.965 333.107C141.663 333.788 140.665 335.945 138.158 335.945C135.651 335.945 134.444 333.675 134.328 333.13C134.259 332.812 134.259 331.291 134.259 330.178C134.259 329.951 134.259 329.747 134.259 329.588V281.75C134.189 281.546 133.957 281.16 133.562 281.16C133.075 281.16 132.82 281.75 132.866 282C132.912 282.181 132.866 294.283 132.866 300.299C132.866 300.345 132.866 300.413 132.866 300.458C132.866 301.276 132.82 302.547 132.054 303.319C131.381 304 130.081 304.091 129.663 304.091C129.106 304.091 128.085 303.864 127.597 303.206C127.11 302.547 126.971 301.071 126.971 300.299V280.206C126.971 279.048 127.644 276.664 129.106 275.325C130.545 274.008 131.427 273.372 133.911 273.19C135.675 273.054 140.224 273.122 142.963 273.19C145.702 273.145 150.251 273.077 152.015 273.19C154.475 273.372 155.38 274.031 156.819 275.325C158.282 276.642 158.932 279.048 158.955 280.206V300.299C158.955 301.071 158.816 302.547 158.328 303.206C157.841 303.864 156.819 304.091 156.262 304.091C155.845 304.091 154.522 304 153.872 303.319C153.106 302.547 153.083 301.276 153.059 300.458C153.059 300.39 153.059 300.345 153.059 300.299C153.059 294.283 153.013 282.181 153.059 282C153.129 281.773 152.85 281.16 152.363 281.16C151.968 281.16 151.736 281.546 151.667 281.75V329.588C151.667 330.632 151.667 332.903 151.597 333.243C151.504 333.72 150.367 335.945 147.767 335.945C145.168 335.945 144.262 333.788 143.961 333.107C143.961 333.084 143.961 333.062 143.938 333.039C143.729 332.562 143.705 330.224 143.729 329.111C143.775 321.505 143.845 306.18 143.729 305.748C143.636 305.408 143.264 305.294 142.986 305.272H142.939Z" fill="#FFFDF4"/>
<path d="M142.684 272.167C146.966 272.167 150.436 268.772 150.436 264.584C150.436 260.396 146.966 257.001 142.684 257.001C138.402 257.001 134.932 260.396 134.932 264.584C134.932 268.772 138.402 272.167 142.684 272.167Z" fill="#FFFDF4"/>
</g>
<defs>
<clipPath id="clip0_779_341">
<rect width="31" height="79" fill="white" transform="translate(73 171)"/>
</clipPath>
<clipPath id="clip1_779_341">
<rect width="31" height="79" fill="white" transform="translate(108 171)"/>
</clipPath>
<clipPath id="clip2_779_341">
<rect width="32" height="79" fill="white" transform="translate(144 171)"/>
</clipPath>
<clipPath id="clip3_779_341">
<rect width="32" height="79" fill="white" transform="translate(192 84)"/>
</clipPath>
<clipPath id="clip4_779_341">
<rect width="31" height="79" fill="white" transform="translate(181 171)"/>
</clipPath>
<clipPath id="clip5_779_341">
<rect width="31" height="79" fill="white" transform="translate(0 171)"/>
</clipPath>
<clipPath id="clip6_779_341">
<rect width="32" height="79" fill="white" transform="translate(35 171)"/>
</clipPath>
<clipPath id="clip7_779_341">
<rect width="32" height="79" fill="white" transform="translate(158 84)"/>
</clipPath>
<clipPath id="clip8_779_341">
<rect width="32" height="79" fill="white" transform="translate(144 335)"/>
</clipPath>
<clipPath id="clip9_779_341">
<rect width="31" height="79" fill="white" transform="translate(108 335)"/>
</clipPath>
<clipPath id="clip10_779_341">
<rect width="31" height="79" fill="white" transform="translate(199 257)"/>
</clipPath>
<clipPath id="clip11_779_341">
<rect width="31" height="78" fill="white" transform="translate(73)"/>
</clipPath>
<clipPath id="clip12_779_341">
<rect width="31" height="78" fill="white" transform="translate(108)"/>
</clipPath>
<clipPath id="clip13_779_341">
<rect width="32" height="78" fill="white" transform="translate(144)"/>
</clipPath>
<clipPath id="clip14_779_341">
<rect width="31" height="79" fill="white" transform="translate(16 84)"/>
</clipPath>
<clipPath id="clip15_779_341">
<rect width="31" height="79" fill="white" transform="translate(16 257)"/>
</clipPath>
<clipPath id="clip16_779_341">
<rect width="32" height="79" fill="white" transform="translate(53 84)"/>
</clipPath>
<clipPath id="clip17_779_341">
<rect width="31" height="79" fill="white" transform="translate(90 84)"/>
</clipPath>
<clipPath id="clip18_779_341">
<rect width="32" height="79" fill="white" transform="translate(124 84)"/>
</clipPath>
<clipPath id="clip19_779_341">
<rect width="31" height="79" fill="white" transform="translate(54 257)"/>
</clipPath>
<clipPath id="clip20_779_341">
<rect width="32" height="79" fill="white" transform="translate(90 257)"/>
</clipPath>
<clipPath id="clip21_779_341">
<rect width="31" height="79" fill="white" transform="translate(162 257)"/>
</clipPath>
<clipPath id="clip22_779_341">
<rect width="32" height="79" fill="white" transform="translate(217 171)"/>
</clipPath>
<clipPath id="clip23_779_341">
<rect width="31" height="78" fill="white" transform="translate(73 337)"/>
</clipPath>
<clipPath id="clip24_779_341">
<rect width="32" height="79" fill="white" transform="translate(127 257)"/>
</clipPath>
</defs>
</svg>
