<svg width="162" height="162" viewBox="0 0 162 162" fill="none" xmlns="http://www.w3.org/2000/svg">
<path d="M79.1795 4.00178C79.8903 2.43933 82.1097 2.43933 82.8205 4.00178L92.9005 26.1598C93.4354 27.3356 94.928 27.7035 95.9481 26.911L115.171 11.9754C116.526 10.9223 118.492 11.9537 118.395 13.6675L117.023 37.9719C116.95 39.2616 118.101 40.281 119.372 40.0533L143.334 35.7618C145.024 35.4592 146.285 37.2857 145.402 38.7582L132.893 59.6412C132.229 60.7493 132.774 62.1867 134.006 62.576L157.217 69.9117C158.854 70.429 159.122 72.6322 157.656 73.5261L136.875 86.2035C135.772 86.8762 135.587 88.4023 136.496 89.3194L153.64 106.602C154.849 107.82 154.062 109.896 152.349 110.006L128.056 111.574C126.767 111.657 125.894 112.922 126.273 114.157L133.422 137.427C133.926 139.068 132.265 140.539 130.697 139.841L108.458 129.94C107.278 129.415 105.917 130.129 105.679 131.399L101.194 155.325C100.878 157.012 98.7233 157.543 97.6593 156.196L82.5694 137.095C81.7686 136.081 80.2314 136.081 79.4306 137.095L64.3407 156.196C63.2767 157.543 61.1218 157.012 60.8055 155.325L56.3211 131.399C56.0832 130.129 54.722 129.415 53.5419 129.94L31.3034 139.841C29.7353 140.539 28.074 139.068 28.5781 137.427L35.7265 114.157C36.1059 112.922 35.2326 111.657 33.9435 111.574L9.65096 110.006C7.938 109.896 7.151 107.82 8.35986 106.602L25.5035 89.3194C26.4133 88.4023 26.228 86.8762 25.1252 86.2035L4.34375 73.5261C2.87837 72.6322 3.14589 70.429 4.78262 69.9117L27.9941 62.576C29.2258 62.1867 29.7709 60.7493 29.1071 59.6412L16.5976 38.7582C15.7155 37.2857 16.9762 35.4592 18.6659 35.7618L42.6277 40.0533C43.8992 40.281 45.0499 39.2616 44.9771 37.9719L43.6052 13.6675C43.5085 11.9537 45.4736 10.9223 46.8291 11.9754L66.0519 26.911C67.072 27.7035 68.5646 27.3356 69.0995 26.1598L79.1795 4.00178Z" fill="#EC2427"/>
<path d="M56.0966 78.5283C59.6936 79.7506 61.8937 81.5316 61.8937 85.7921V86.1413C61.8937 90.4717 59.2047 93.1607 55.468 93.5448V95.9544H54.0013V93.5797C49.7408 93.3004 47.2613 90.332 47.1216 85.3032H52.0457C52.1504 87.7827 52.779 89.1097 54.0013 89.424V82.7888C53.7918 82.7189 53.5473 82.6142 53.3029 82.5443C49.3567 81.2522 47.6455 79.4363 47.6455 75.3853V75.0361C47.6455 70.9153 50.2297 68.1215 54.0013 67.877V65.5023H55.468V67.9119C59.1349 68.2612 61.4048 70.7756 61.6143 75.5599H56.6554C56.6205 73.5693 56.2014 72.5217 55.468 72.1026V78.3187L56.0966 78.5283ZM52.6393 74.5472V75.071C52.6393 76.433 52.814 77.0616 54.0013 77.6902V71.9978C53.1981 72.2423 52.6393 73.1153 52.6393 74.5472ZM56.8649 86.7699V86.2112C56.8649 84.9889 56.7252 84.1857 55.468 83.4523V89.424C56.376 89.1446 56.8649 88.3065 56.8649 86.7699Z" fill="#FFFEEE"/>
<path d="M71.7884 93.1257H67.0739V74.163C65.9215 75.1758 64.5595 75.8044 63.1277 76.1885V71.6137C64.9437 71.0549 66.5152 69.9724 67.6676 68.331H71.7884V93.1257Z" fill="#FFFEEE"/>
<path d="M79.3589 93.1257H74.4349V87.9922H79.3589V93.1257Z" fill="#FFFEEE"/>
<path d="M87.8605 93.5797C83.6349 93.5797 81.2253 90.9606 81.2602 85.5127H86.0096C86.0795 88.6906 86.5684 89.7383 87.8256 89.7383C89.0479 89.7383 89.5368 88.8652 89.5368 86.0365V85.6524C89.5368 83.2777 89.1177 82.0205 87.4764 82.0205H86.1144V78.4584H87.4764C88.978 78.4584 89.3273 77.2362 89.3273 75.2107V74.8265C89.3273 72.382 88.9082 71.6137 87.8256 71.6137C86.6382 71.6137 86.2192 72.6614 86.1493 75.8044H81.6444C81.7142 70.566 84.1588 67.877 87.8954 67.877C91.4226 67.877 93.8671 70.1819 93.8671 74.5472V74.9313C93.8671 77.4108 92.9242 79.3315 91.4924 80.1347C93.1687 80.8331 94.5307 82.8936 94.5307 85.9318V86.3159C94.5307 91.1701 92.0861 93.5797 87.8605 93.5797Z" fill="#FFFEEE"/>
<path d="M104.869 93.1257H96.5226V68.331H104.38C107.733 68.331 110.387 70.4613 110.387 74.6868V75.1758C110.387 77.2012 109.514 78.9823 108.187 80.0299C110.003 81.1474 111.015 83.3825 111.015 85.6524V86.1762C111.015 90.4717 108.571 93.1257 104.869 93.1257ZM101.447 72.4867V78.5981H103.297C104.485 78.5981 105.393 77.8298 105.393 75.8044V75.2805C105.393 73.3249 104.52 72.4867 103.297 72.4867H101.447ZM101.447 82.5443V88.97H103.821C105.044 88.97 105.882 88.0271 105.882 86.0365V85.4778C105.882 83.5221 105.113 82.5443 103.821 82.5443H101.447Z" fill="#FFFEEE"/>
</svg>
