<svg width="672" height="91" viewBox="0 0 672 91" fill="none" xmlns="http://www.w3.org/2000/svg">
<path d="M670.58 0.580078H0.580078V89.5801H670.58V0.580078Z" fill="#FFFEEE" stroke="#231F20" stroke-width="1.15993" stroke-miterlimit="10"/>
<path d="M476.744 31.7139C474.183 31.7139 472.643 29.8209 472.643 25.6266V24.179C472.643 20.0404 474.183 18.0917 476.726 18.0917C478.878 18.0917 480.326 19.7249 480.4 22.8242H478.934C478.841 20.393 477.969 19.4094 476.707 19.4094C475 19.4094 474.146 20.857 474.146 24.179V25.6266C474.146 28.9115 475.018 30.3962 476.744 30.3962C478.099 30.3962 478.953 29.1157 478.99 26.7773H480.456C480.308 29.9323 478.99 31.7139 476.744 31.7139ZM483.714 31.7139C482.359 31.7139 481.431 30.7117 481.431 29.0229C481.431 27.5196 482.266 26.5174 483.881 26.2576L485.625 25.9607V24.5502C485.625 23.2882 485.106 22.8799 484.4 22.8799C483.491 22.8799 483.027 23.4181 483.009 24.8657H481.691C481.709 22.7314 482.804 21.7478 484.456 21.7478C485.885 21.7478 486.962 22.6572 486.962 24.5316V31.4912H485.718L485.662 30.4705C485.291 31.3242 484.605 31.7139 483.714 31.7139ZM484.048 30.5818C484.976 30.5818 485.625 29.7281 485.625 28.3919V27.0928L484.122 27.3526C483.268 27.5011 482.804 28.0393 482.804 29.0043C482.804 29.9879 483.231 30.5818 484.048 30.5818ZM490.118 31.4912H488.745V21.9705H490.044L490.062 23.1212C490.433 22.3231 491.194 21.7478 492.196 21.7478C493.7 21.7478 494.349 22.9727 494.349 24.3275V31.4912H492.976V24.6801C492.976 23.6779 492.679 22.9541 491.714 22.9541C490.712 22.9541 490.118 23.7151 490.118 25.107V31.4912ZM501.805 31.7139C499.856 31.7139 498.65 30.3962 498.65 27.2784V26.1834C498.65 23.0655 499.856 21.7478 501.805 21.7478C503.753 21.7478 504.941 23.0655 504.941 26.1834V27.2784C504.941 30.3962 503.753 31.7139 501.805 31.7139ZM501.805 30.5262C502.955 30.5262 503.531 29.6724 503.531 27.2784V26.1834C503.531 23.7893 502.955 22.9356 501.805 22.9356C500.635 22.9356 500.06 23.7893 500.06 26.1834V27.2784C500.06 29.6724 500.635 30.5262 501.805 30.5262ZM507.825 31.4912H506.452V21.9705H507.751L507.769 23.1212C508.14 22.3231 508.901 21.7478 509.904 21.7478C511.407 21.7478 512.056 22.9727 512.056 24.3275V31.4912H510.683V24.6801C510.683 23.6779 510.386 22.9541 509.421 22.9541C508.419 22.9541 507.825 23.7151 507.825 25.107V31.4912ZM513.846 17.7577H515.219V31.4912H513.846V17.7577ZM519.373 34.6462H517.963L518.78 31.4727L516.33 21.9705H517.74L519.503 29.3569L521.174 21.9705H522.547L519.373 34.6462ZM530.021 31.7139C529.019 31.7139 528.258 31.1386 527.869 30.3406L527.85 31.4912H526.551V17.7577H527.924V22.9913C528.314 22.2675 529.075 21.7478 530.021 21.7478C531.71 21.7478 532.75 23.0655 532.75 26.1834V27.2784C532.75 30.3962 531.71 31.7139 530.021 31.7139ZM529.687 30.5262C530.745 30.5262 531.358 29.6724 531.358 27.2784V26.1834C531.358 23.7893 530.745 22.9356 529.687 22.9356C528.5 22.9356 527.924 23.9006 527.924 25.6637V27.798C527.924 29.5982 528.5 30.5262 529.687 30.5262ZM537.073 31.7139C535.125 31.7139 533.937 30.3962 533.937 27.2784V26.1834C533.937 23.0655 535.143 21.7478 537.092 21.7478C539.504 21.7478 540.321 23.7336 540.135 27H535.347V27.2784C535.347 29.6724 535.904 30.5262 537.073 30.5262C538.038 30.5262 538.521 29.858 538.688 28.6331H540.098C539.746 30.6189 538.818 31.7139 537.073 31.7139ZM535.347 25.8493V25.8679H538.744V25.8493C538.688 23.6965 538.205 22.9356 537.092 22.9356C535.978 22.9356 535.403 23.7151 535.347 25.8493ZM546.205 31.7139C544.85 31.7139 543.922 30.7117 543.922 29.0229C543.922 27.5196 544.757 26.5174 546.372 26.2576L548.116 25.9607V24.5502C548.116 23.2882 547.597 22.8799 546.892 22.8799C545.982 22.8799 545.518 23.4181 545.5 24.8657H544.182C544.201 22.7314 545.296 21.7478 546.947 21.7478C548.376 21.7478 549.453 22.6572 549.453 24.5316V31.4912H548.209L548.154 30.4705C547.782 31.3242 547.096 31.7139 546.205 31.7139ZM546.539 30.5818C547.467 30.5818 548.116 29.7281 548.116 28.3919V27.0928L546.613 27.3526C545.76 27.5011 545.296 28.0393 545.296 29.0043C545.296 29.9879 545.722 30.5818 546.539 30.5818ZM552.609 31.4912H551.236V21.9705H552.535L552.553 23.1212C552.925 22.3231 553.685 21.7478 554.688 21.7478C556.191 21.7478 556.84 22.9727 556.84 24.3275V31.4912H555.467V24.6801C555.467 23.6779 555.17 22.9541 554.205 22.9541C553.203 22.9541 552.609 23.7151 552.609 25.107V31.4912ZM561.414 31.7139C559.465 31.7139 558.259 30.3962 558.259 27.2784V26.1834C558.259 23.0655 559.465 21.7478 561.414 21.7478C563.363 21.7478 564.551 23.0655 564.551 26.1834V27.2784C564.551 30.3962 563.363 31.7139 561.414 31.7139ZM561.414 30.5262C562.565 30.5262 563.14 29.6724 563.14 27.2784V26.1834C563.14 23.7893 562.565 22.9356 561.414 22.9356C560.245 22.9356 559.67 23.7893 559.67 26.1834V27.2784C559.67 29.6724 560.245 30.5262 561.414 30.5262ZM567.434 31.4912H566.061V21.9705H567.36L567.379 23.1212C567.75 22.3231 568.511 21.7478 569.513 21.7478C571.016 21.7478 571.666 22.9727 571.666 24.3275V31.4912H570.292V24.6801C570.292 23.6779 569.996 22.9541 569.03 22.9541C568.028 22.9541 567.434 23.7151 567.434 25.107V31.4912ZM575.467 34.6462H574.056L574.873 31.4727L572.423 21.9705H573.834L575.597 29.3569L577.267 21.9705H578.64L575.467 34.6462ZM581.136 31.4912H579.763V21.9705H581.062L581.08 23.1026C581.452 22.3231 582.194 21.7478 583.196 21.7478C584.217 21.7478 584.903 22.3046 585.163 23.214C585.405 22.6015 586.165 21.7478 587.39 21.7478C588.875 21.7478 589.543 22.9727 589.543 24.3275V31.4912H588.17V24.6801C588.17 23.6779 587.854 22.9541 586.908 22.9541C585.906 22.9541 585.33 23.7151 585.33 25.107V31.4912H583.957V24.6801C583.957 23.6779 583.679 22.9541 582.714 22.9541C581.711 22.9541 581.136 23.7151 581.136 25.107V31.4912ZM594.091 31.7139C592.143 31.7139 590.936 30.3962 590.936 27.2784V26.1834C590.936 23.0655 592.143 21.7478 594.091 21.7478C596.04 21.7478 597.228 23.0655 597.228 26.1834V27.2784C597.228 30.3962 596.04 31.7139 594.091 31.7139ZM594.091 30.5262C595.242 30.5262 595.817 29.6724 595.817 27.2784V26.1834C595.817 23.7893 595.242 22.9356 594.091 22.9356C592.922 22.9356 592.347 23.7893 592.347 26.1834V27.2784C592.347 29.6724 592.922 30.5262 594.091 30.5262ZM600.689 31.7139C599.186 31.7139 598.555 30.5633 598.555 29.2085V21.9705H599.928V28.8559C599.928 29.858 600.244 30.5076 601.172 30.5076C602.155 30.5076 602.712 29.7467 602.712 28.3548V21.9705H604.086V31.4912H602.786L602.768 30.3777C602.415 31.1572 601.673 31.7139 600.689 31.7139ZM608.146 31.7139C606.383 31.7139 605.511 30.6375 605.362 28.596H606.68C606.773 29.9323 607.255 30.5818 608.165 30.5818C609 30.5818 609.445 30.155 609.445 29.0043C609.445 28.0578 609.167 27.5753 607.905 27.2412C606.717 26.9257 605.566 26.3504 605.566 24.4945C605.566 22.75 606.606 21.7478 608.146 21.7478C609.761 21.7478 610.559 22.8428 610.689 24.643H609.371C609.297 23.4738 608.981 22.8799 608.109 22.8799C607.329 22.8799 606.903 23.3624 606.903 24.3461C606.903 25.3111 607.255 25.738 608.443 26.0349C609.946 26.4432 610.818 27.0928 610.818 28.8559C610.818 30.6746 609.835 31.7139 608.146 31.7139Z" fill="#231F20"/>
<path d="M474.369 38.8465V41.5004H472.958V38.8465H474.369ZM472.977 43.0594H474.35V52.5801H472.977V43.0594ZM478.059 52.5801H476.685V44.1729H475.46V43.0594H476.685V40.7766C476.685 39.4961 477.465 38.6238 478.838 38.6238C479.154 38.6238 479.562 38.6981 479.822 38.8094V39.9786C479.636 39.8858 479.302 39.793 479.042 39.793C478.356 39.793 478.059 40.1828 478.059 40.8694V43.0594H479.785V44.1729H478.059V52.5801ZM485.243 55.7351H483.869V43.0594H485.168L485.187 44.21C485.577 43.412 486.338 42.8367 487.34 42.8367C489.029 42.8367 490.068 44.1544 490.068 47.2722V48.3672C490.068 51.4851 489.029 52.8028 487.34 52.8028C486.393 52.8028 485.632 52.2831 485.243 51.5593V55.7351ZM487.006 51.615C488.064 51.615 488.676 50.7613 488.676 48.3672V47.2722C488.676 44.8782 488.064 44.0244 487.006 44.0244C485.818 44.0244 485.243 44.9524 485.243 46.7526V48.8869C485.243 50.65 485.818 51.615 487.006 51.615ZM492.945 52.5801H491.572V43.0594H492.852L492.89 44.6554C493.224 43.412 493.947 42.8367 494.838 42.8367C494.95 42.8367 495.117 42.8552 495.191 42.8738V44.2657C495.098 44.2472 494.894 44.2286 494.727 44.2286C493.632 44.2286 492.945 45.2864 492.945 47.4022V52.5801ZM497.785 38.8465V41.5004H496.374V38.8465H497.785ZM496.393 43.0594H497.766V52.5801H496.393V43.0594ZM504.277 52.5801H499.248V51.5222L502.644 44.21H499.545V43.0594H504.147V44.0987L500.751 51.4109H504.277V52.5801ZM508.166 52.8028C506.217 52.8028 505.029 51.4851 505.029 48.3672V47.2722C505.029 44.1544 506.236 42.8367 508.184 42.8367C510.597 42.8367 511.413 44.8225 511.228 48.0888H506.44V48.3672C506.44 50.7613 506.996 51.615 508.166 51.615C509.131 51.615 509.613 50.9469 509.78 49.722H511.191C510.838 51.7078 509.91 52.8028 508.166 52.8028ZM506.44 46.9382V46.9567H509.836V46.9382C509.78 44.7854 509.298 44.0244 508.184 44.0244C507.071 44.0244 506.495 44.8039 506.44 46.9382ZM517.297 52.8028C515.943 52.8028 515.015 51.8006 515.015 50.1118C515.015 48.6085 515.85 47.6063 517.464 47.3465L519.209 47.0495V45.6391C519.209 44.3771 518.689 43.9688 517.984 43.9688C517.075 43.9688 516.611 44.507 516.592 45.9546H515.274C515.293 43.8203 516.388 42.8367 518.04 42.8367C519.469 42.8367 520.545 43.7461 520.545 45.6205V52.5801H519.302L519.246 51.5593C518.875 52.413 518.188 52.8028 517.297 52.8028ZM517.631 51.6707C518.559 51.6707 519.209 50.817 519.209 49.4807V48.1816L517.706 48.4415C516.852 48.5899 516.388 49.1281 516.388 50.0932C516.388 51.0768 516.815 51.6707 517.631 51.6707ZM523.701 52.5801H522.328V43.0594H523.627L523.646 44.1915C524.017 43.412 524.759 42.8367 525.761 42.8367C526.782 42.8367 527.469 43.3934 527.729 44.3028C527.97 43.6904 528.731 42.8367 529.956 42.8367C531.44 42.8367 532.109 44.0616 532.109 45.4164V52.5801H530.735V45.769C530.735 44.7668 530.42 44.043 529.473 44.043C528.471 44.043 527.896 44.8039 527.896 46.1958V52.5801H526.522V45.769C526.522 44.7668 526.244 44.043 525.279 44.043C524.277 44.043 523.701 44.8039 523.701 46.1958V52.5801ZM536.657 52.8028C534.708 52.8028 533.502 51.4851 533.502 48.3672V47.2722C533.502 44.1544 534.708 42.8367 536.657 42.8367C538.606 42.8367 539.793 44.1544 539.793 47.2722V48.3672C539.793 51.4851 538.606 52.8028 536.657 52.8028ZM536.657 51.615C537.807 51.615 538.383 50.7613 538.383 48.3672V47.2722C538.383 44.8782 537.807 44.0244 536.657 44.0244C535.488 44.0244 534.912 44.8782 534.912 47.2722V48.3672C534.912 50.7613 535.488 51.615 536.657 51.615ZM543.255 52.8028C541.751 52.8028 541.12 51.6521 541.12 50.2973V43.0594H542.494V49.9447C542.494 50.9469 542.809 51.5965 543.737 51.5965C544.721 51.5965 545.278 50.8355 545.278 49.4436V43.0594H546.651V52.5801H545.352L545.333 51.4665C544.981 52.246 544.238 52.8028 543.255 52.8028ZM549.89 52.5801H548.517V43.0594H549.816L549.835 44.21C550.206 43.412 550.967 42.8367 551.969 42.8367C553.472 42.8367 554.122 44.0616 554.122 45.4164V52.5801H552.749V45.769C552.749 44.7668 552.452 44.043 551.487 44.043C550.484 44.043 549.89 44.8039 549.89 46.1958V52.5801ZM558.547 52.8028C557.174 52.8028 556.394 51.9305 556.394 50.65V44.1729H555.169V43.0594H556.394V40.2941H557.768V43.0594H559.494V44.1729H557.768V50.5572C557.768 51.2438 558.064 51.6336 558.751 51.6336C559.011 51.6336 559.345 51.5408 559.531 51.448V52.6172C559.271 52.7285 558.863 52.8028 558.547 52.8028ZM565.187 38.8465V41.5004H563.777V38.8465H565.187ZM563.796 43.0594H565.169V52.5801H563.796V43.0594ZM569.397 52.8028C567.634 52.8028 566.762 51.7264 566.613 49.6849H567.931C568.024 51.0211 568.506 51.6707 569.416 51.6707C570.251 51.6707 570.696 51.2438 570.696 50.0932C570.696 49.1467 570.418 48.6642 569.156 48.3301C567.968 48.0146 566.817 47.4393 566.817 45.5834C566.817 43.8389 567.857 42.8367 569.397 42.8367C571.012 42.8367 571.81 43.9317 571.94 45.7319H570.622C570.548 44.5627 570.232 43.9688 569.36 43.9688C568.581 43.9688 568.154 44.4513 568.154 45.4349C568.154 46.4 568.506 46.8268 569.694 47.1238C571.197 47.5321 572.07 48.1816 572.07 49.9447C572.07 51.7635 571.086 52.8028 569.397 52.8028ZM579.25 55.9578C577.468 55.9578 576.41 55.0484 576.336 53.2482H577.654C577.672 54.3246 578.192 54.8257 579.25 54.8257C580.122 54.8257 580.846 54.436 580.846 53.1925V51.1882C580.475 51.9305 579.714 52.4316 578.767 52.4316C577.078 52.4316 576.02 51.1139 576.02 48.0146V47.2722C576.02 44.1544 577.078 42.8367 578.767 42.8367C579.769 42.8367 580.512 43.412 580.901 44.21L580.92 43.0594H582.219V53.0997C582.219 54.9371 580.957 55.9578 579.25 55.9578ZM579.101 51.2438C580.27 51.2438 580.846 50.2973 580.846 48.5157V46.7526C580.846 44.9524 580.27 44.0244 579.101 44.0244C578.025 44.0244 577.431 44.8782 577.431 47.2722V48.0146C577.431 50.4458 578.118 51.2438 579.101 51.2438ZM585.468 52.5801H584.094V43.0594H585.375L585.412 44.6554C585.746 43.412 586.47 42.8367 587.361 42.8367C587.472 42.8367 587.639 42.8552 587.713 42.8738V44.2657C587.62 44.2472 587.416 44.2286 587.249 44.2286C586.154 44.2286 585.468 45.2864 585.468 47.4022V52.5801ZM591.409 52.8028C589.46 52.8028 588.272 51.4851 588.272 48.3672V47.2722C588.272 44.1544 589.479 42.8367 591.427 42.8367C593.84 42.8367 594.656 44.8225 594.471 48.0888H589.683V48.3672C589.683 50.7613 590.239 51.615 591.409 51.615C592.374 51.615 592.856 50.9469 593.023 49.722H594.434C594.081 51.7078 593.153 52.8028 591.409 52.8028ZM589.683 46.9382V46.9567H593.079V46.9382C593.023 44.7854 592.541 44.0244 591.427 44.0244C590.314 44.0244 589.738 44.8039 589.683 46.9382ZM597.659 52.8028C596.304 52.8028 595.376 51.8006 595.376 50.1118C595.376 48.6085 596.211 47.6063 597.826 47.3465L599.57 47.0495V45.6391C599.57 44.3771 599.051 43.9688 598.345 43.9688C597.436 43.9688 596.972 44.507 596.953 45.9546H595.636C595.654 43.8203 596.749 42.8367 598.401 42.8367C599.83 42.8367 600.906 43.7461 600.906 45.6205V52.5801H599.663L599.607 51.5593C599.236 52.413 598.549 52.8028 597.659 52.8028ZM597.993 51.6707C598.921 51.6707 599.57 50.817 599.57 49.4807V48.1816L598.067 48.4415C597.213 48.5899 596.749 49.1281 596.749 50.0932C596.749 51.0768 597.176 51.6707 597.993 51.6707ZM605.325 52.8028C603.951 52.8028 603.172 51.9305 603.172 50.65V44.1729H601.947V43.0594H603.172V40.2941H604.545V43.0594H606.271V44.1729H604.545V50.5572C604.545 51.2438 604.842 51.6336 605.529 51.6336C605.789 51.6336 606.123 51.5408 606.308 51.448V52.6172C606.049 52.7285 605.64 52.8028 605.325 52.8028ZM610.276 52.8028C608.327 52.8028 607.139 51.4851 607.139 48.3672V47.2722C607.139 44.1544 608.345 42.8367 610.294 42.8367C612.707 42.8367 613.523 44.8225 613.338 48.0888H608.55V48.3672C608.55 50.7613 609.106 51.615 610.276 51.615C611.241 51.615 611.723 50.9469 611.89 49.722H613.301C612.948 51.7078 612.02 52.8028 610.276 52.8028ZM608.55 46.9382V46.9567H611.946V46.9382C611.89 44.7854 611.408 44.0244 610.294 44.0244C609.181 44.0244 608.605 44.8039 608.55 46.9382ZM616.025 52.5801H614.651V43.0594H615.932L615.969 44.6554C616.303 43.412 617.027 42.8367 617.918 42.8367C618.029 42.8367 618.196 42.8552 618.27 42.8738V44.2657C618.177 44.2472 617.973 44.2286 617.806 44.2286C616.711 44.2286 616.025 45.2864 616.025 47.4022V52.5801ZM624.989 52.8028C623.616 52.8028 622.836 51.9305 622.836 50.65V44.1729H621.611V43.0594H622.836V40.2941H624.21V43.0594H625.936V44.1729H624.21V50.5572C624.21 51.2438 624.507 51.6336 625.193 51.6336C625.453 51.6336 625.787 51.5408 625.973 51.448V52.6172C625.713 52.7285 625.305 52.8028 624.989 52.8028ZM628.729 52.5801H627.356V38.8465H628.729V44.0987C629.119 43.3563 629.861 42.8367 630.808 42.8367C632.311 42.8367 632.961 44.0616 632.961 45.4164V52.5801H631.587V45.769C631.587 44.7668 631.29 44.043 630.325 44.043C629.323 44.043 628.729 44.8039 628.729 46.1958V52.5801ZM636.625 52.8028C635.27 52.8028 634.342 51.8006 634.342 50.1118C634.342 48.6085 635.177 47.6063 636.792 47.3465L638.537 47.0495V45.6391C638.537 44.3771 638.017 43.9688 637.312 43.9688C636.402 43.9688 635.938 44.507 635.92 45.9546H634.602C634.621 43.8203 635.716 42.8367 637.367 42.8367C638.796 42.8367 639.873 43.7461 639.873 45.6205V52.5801H638.629L638.574 51.5593C638.202 52.413 637.516 52.8028 636.625 52.8028ZM636.959 51.6707C637.887 51.6707 638.537 50.817 638.537 49.4807V48.1816L637.033 48.4415C636.18 48.5899 635.716 49.1281 635.716 50.0932C635.716 51.0768 636.142 51.6707 636.959 51.6707ZM643.029 52.5801H641.656V43.0594H642.955L642.973 44.21C643.345 43.412 644.106 42.8367 645.108 42.8367C646.611 42.8367 647.261 44.0616 647.261 45.4164V52.5801H645.887V45.769C645.887 44.7668 645.59 44.043 644.625 44.043C643.623 44.043 643.029 44.8039 643.029 46.1958V52.5801Z" fill="#231F20"/>
<path d="M474.851 73.8028C473.496 73.8028 472.568 72.8006 472.568 71.1118C472.568 69.6085 473.404 68.6063 475.018 68.3465L476.763 68.0495V66.6391C476.763 65.3771 476.243 64.9688 475.538 64.9688C474.629 64.9688 474.165 65.507 474.146 66.9546H472.828C472.847 64.8203 473.942 63.8367 475.594 63.8367C477.023 63.8367 478.099 64.7461 478.099 66.6205V73.5801H476.856L476.8 72.5593C476.429 73.413 475.742 73.8028 474.851 73.8028ZM475.185 72.6707C476.113 72.6707 476.763 71.817 476.763 70.4807V69.1816L475.26 69.4415C474.406 69.5899 473.942 70.1281 473.942 71.0932C473.942 72.0768 474.369 72.6707 475.185 72.6707ZM485.139 73.8028C483.376 73.8028 482.504 72.7264 482.355 70.6849H483.673C483.766 72.0211 484.248 72.6707 485.158 72.6707C485.993 72.6707 486.438 72.2438 486.438 71.0932C486.438 70.1467 486.16 69.6642 484.898 69.3301C483.71 69.0146 482.56 68.4393 482.56 66.5834C482.56 64.8389 483.599 63.8367 485.139 63.8367C486.754 63.8367 487.552 64.9317 487.682 66.7319H486.364C486.29 65.5627 485.974 64.9688 485.102 64.9688C484.323 64.9688 483.896 65.4513 483.896 66.4349C483.896 67.4 484.248 67.8268 485.436 68.1238C486.939 68.5321 487.812 69.1816 487.812 70.9447C487.812 72.7635 486.828 73.8028 485.139 73.8028ZM491.909 73.8028C489.96 73.8028 488.772 72.4851 488.772 69.3672V68.2722C488.772 65.1544 489.978 63.8367 491.927 63.8367C494.34 63.8367 495.156 65.8225 494.971 69.0888H490.183V69.3672C490.183 71.7613 490.739 72.615 491.909 72.615C492.874 72.615 493.356 71.9469 493.523 70.722H494.934C494.581 72.7078 493.653 73.8028 491.909 73.8028ZM490.183 67.9382V67.9567H493.579V67.9382C493.523 65.7854 493.041 65.0244 491.927 65.0244C490.814 65.0244 490.238 65.8039 490.183 67.9382ZM498.865 73.8028C497.492 73.8028 496.712 72.9305 496.712 71.65V65.1729H495.487V64.0594H496.712V61.2941H498.086V64.0594H499.812V65.1729H498.086V71.5572C498.086 72.2438 498.383 72.6336 499.069 72.6336C499.329 72.6336 499.663 72.5408 499.849 72.448V73.6172C499.589 73.7285 499.181 73.8028 498.865 73.8028ZM505.988 73.8028C504.633 73.8028 503.705 72.8006 503.705 71.1118C503.705 69.6085 504.54 68.6063 506.155 68.3465L507.9 68.0495V66.6391C507.9 65.3771 507.38 64.9688 506.675 64.9688C505.765 64.9688 505.301 65.507 505.283 66.9546H503.965C503.984 64.8203 505.079 63.8367 506.73 63.8367C508.159 63.8367 509.236 64.7461 509.236 66.6205V73.5801H507.992L507.937 72.5593C507.566 73.413 506.879 73.8028 505.988 73.8028ZM506.322 72.6707C507.25 72.6707 507.9 71.817 507.9 70.4807V69.1816L506.396 69.4415C505.543 69.5899 505.079 70.1281 505.079 71.0932C505.079 72.0768 505.506 72.6707 506.322 72.6707ZM512.392 73.5801H511.019V64.0594H512.318L512.336 65.1915C512.708 64.412 513.45 63.8367 514.452 63.8367C515.473 63.8367 516.16 64.3934 516.419 65.3028C516.661 64.6904 517.422 63.8367 518.646 63.8367C520.131 63.8367 520.799 65.0616 520.799 66.4164V73.5801H519.426V66.769C519.426 65.7668 519.11 65.043 518.164 65.043C517.162 65.043 516.586 65.8039 516.586 67.1958V73.5801H515.213V66.769C515.213 65.7668 514.935 65.043 513.97 65.043C512.967 65.043 512.392 65.8039 512.392 67.1958V73.5801ZM525.348 73.8028C523.399 73.8028 522.193 72.4851 522.193 69.3672V68.2722C522.193 65.1544 523.399 63.8367 525.348 63.8367C527.296 63.8367 528.484 65.1544 528.484 68.2722V69.3672C528.484 72.4851 527.296 73.8028 525.348 73.8028ZM525.348 72.615C526.498 72.615 527.074 71.7613 527.074 69.3672V68.2722C527.074 65.8782 526.498 65.0244 525.348 65.0244C524.178 65.0244 523.603 65.8782 523.603 68.2722V69.3672C523.603 71.7613 524.178 72.615 525.348 72.615ZM531.945 73.8028C530.442 73.8028 529.811 72.6521 529.811 71.2973V64.0594H531.184V70.9447C531.184 71.9469 531.5 72.5965 532.428 72.5965C533.412 72.5965 533.968 71.8355 533.968 70.4436V64.0594H535.342V73.5801H534.043L534.024 72.4665C533.671 73.246 532.929 73.8028 531.945 73.8028ZM538.581 73.5801H537.208V64.0594H538.507L538.525 65.21C538.897 64.412 539.658 63.8367 540.66 63.8367C542.163 63.8367 542.813 65.0616 542.813 66.4164V73.5801H541.439V66.769C541.439 65.7668 541.142 65.043 540.177 65.043C539.175 65.043 538.581 65.8039 538.581 67.1958V73.5801ZM547.238 73.8028C545.864 73.8028 545.085 72.9305 545.085 71.65V65.1729H543.86V64.0594H545.085V61.2941H546.458V64.0594H548.184V65.1729H546.458V71.5572C546.458 72.2438 546.755 72.6336 547.442 72.6336C547.702 72.6336 548.036 72.5408 548.221 72.448V73.6172C547.962 73.7285 547.553 73.8028 547.238 73.8028ZM555.381 75.9742H554.008C553.043 73.9698 552.226 70.8519 552.226 67.9011C552.226 64.876 553.062 61.8323 554.008 59.8465H555.381C554.379 62.1107 553.711 65.1729 553.711 67.9011C553.711 70.6292 554.379 73.71 555.381 75.9742ZM560.276 61.5725V66.305C562.244 66.9546 563.097 68.0124 563.097 69.9425V70.1281C563.097 72.0954 562.058 73.5244 560.276 73.7657V75.0648H559.218V73.7842C557.381 73.5801 556.23 72.2438 556.119 69.627H557.567C557.678 71.4644 558.291 72.2438 559.218 72.448V67.4928C557.084 66.8061 556.435 65.7297 556.435 63.9109V63.7253C556.435 61.7395 557.492 60.3847 559.218 60.1991V58.9186H560.276V60.2363C561.724 60.4775 562.782 61.6282 562.93 63.948H561.501C561.39 62.5932 560.963 61.8323 560.276 61.5725ZM557.882 63.6882V63.8924C557.882 64.9688 558.179 65.5255 559.218 65.9524V61.4983C558.402 61.6653 557.882 62.3334 557.882 63.6882ZM561.613 70.1838V69.9611C561.613 68.9032 561.241 68.3279 560.276 67.8825V72.448C561.056 72.2624 561.613 71.5943 561.613 70.1838ZM567.25 73.5801H565.896V62.4262C565.432 62.8902 564.856 63.2057 564.188 63.4284V62.0365C564.931 61.7024 565.617 61.2013 566.081 60.4033H567.25V73.5801ZM572.363 73.8028C570.192 73.8028 569.208 72.0211 569.208 68.3465V65.6369C569.208 61.9994 570.192 60.1806 572.363 60.1806C574.534 60.1806 575.518 61.9994 575.518 65.6369V68.3465C575.518 72.0211 574.553 73.8028 572.363 73.8028ZM572.363 72.5593C573.477 72.5593 574.052 71.5943 574.052 68.6991V65.2657C574.052 62.3891 573.477 61.424 572.363 61.424C571.25 61.424 570.674 62.3891 570.674 65.2657V68.6991C570.674 71.5943 571.25 72.5593 572.363 72.5593ZM578.62 73.5801H577.154V60.4033H578.62V66.3978L582.369 60.4033H584.021L580.513 65.8967L584.151 73.5801H582.536L579.567 67.2515L578.62 68.7362V73.5801ZM587.792 69.7755H586.511V67.4928H584.34V66.2864H586.511V63.9666H587.792V66.2864H589.963V67.4928H587.792V69.7755ZM592.157 75.9742H590.784C591.768 73.7285 592.454 70.7035 592.454 67.9011C592.454 65.1544 591.805 62.1849 590.784 59.8465H592.157C593.122 61.888 593.939 64.9317 593.939 67.9011C593.939 70.9262 593.104 74.0255 592.157 75.9742Z" fill="#231F20"/>
<path d="M42.581 35.582C46.9286 35.582 50.4531 32.0575 50.4531 27.7099C50.4531 23.3623 46.9286 19.8379 42.581 19.8379C38.2334 19.8379 34.709 23.3623 34.709 27.7099C34.709 32.0575 38.2334 35.582 42.581 35.582Z" fill="#EC2427"/>
<path d="M42.581 68.833C46.9286 68.833 50.4531 65.3085 50.4531 60.9609C50.4531 56.6133 46.9286 53.0889 42.581 53.0889C38.2334 53.0889 34.709 56.6133 34.709 60.9609C34.709 65.3085 38.2334 68.833 42.581 68.833Z" fill="#231F20"/>
<path d="M266.657 35.6357C271.005 35.6357 274.529 32.1113 274.529 27.7636C274.529 23.416 271.005 19.8916 266.657 19.8916C262.31 19.8916 258.785 23.416 258.785 27.7636C258.785 32.1113 262.31 35.6357 266.657 35.6357Z" fill="#89181A"/>
<path d="M266.657 68.8867C271.005 68.8867 274.529 65.3622 274.529 61.0146C274.529 56.667 271.005 53.1426 266.657 53.1426C262.31 53.1426 258.785 56.667 258.785 61.0146C258.785 65.3622 262.31 68.8867 266.657 68.8867Z" fill="#5A5D5C"/>
<path d="M63.9449 32.5684H62.1076V19.3916H64.3532L67.8609 28.9494V19.3916H69.6796V32.5684H67.5268L63.9449 22.7878V32.5684ZM75.3945 32.7911C72.6292 32.7911 71.0888 30.7867 71.0888 26.8337V25.1263C71.0888 21.1732 72.6292 19.1689 75.3945 19.1689C78.1597 19.1689 79.7001 21.1732 79.7001 25.1263V26.8337C79.7001 30.7867 78.1597 32.7911 75.3945 32.7911ZM75.3945 31.1208C77.0276 31.1208 77.6958 29.8959 77.6958 26.8337V25.1263C77.6958 22.064 77.0276 20.8392 75.3945 20.8392C73.7613 20.8392 73.0746 22.064 73.0746 25.1263V26.8337C73.0746 29.8959 73.7613 31.1208 75.3945 31.1208ZM80.8128 35.1109V34.016C81.6108 34.016 81.9634 33.6633 81.9634 32.8467V32.5684H81.0726V30.3599H83.0955V32.7354C83.0955 34.2943 82.2975 35.1109 80.8128 35.1109ZM89.8245 32.5684H87.9872V23.0291H89.6946L89.7503 24.1798C90.1029 23.4003 90.8267 22.7878 91.866 22.7878C92.8496 22.7878 93.5363 23.3075 93.8333 24.2169C94.1302 23.5302 94.9282 22.7878 96.0603 22.7878C97.6007 22.7878 98.176 24.0313 98.176 25.3675V32.5684H96.3573V25.7387C96.3573 24.9036 96.0603 24.3282 95.2994 24.3282C94.4828 24.3282 94.0003 24.9221 94.0003 26.0913V32.5684H92.1815V25.7387C92.1815 24.9036 91.8846 24.3282 91.1051 24.3282C90.3071 24.3282 89.8245 24.9221 89.8245 26.0913V32.5684ZM101.791 32.7911C100.269 32.7911 99.6749 31.6404 99.6749 30.2856V23.0291H101.494V29.9144C101.494 30.7496 101.809 31.2692 102.533 31.2692C103.35 31.2692 103.795 30.6568 103.795 29.4876V23.0291H105.632V32.5684H103.925L103.869 31.4177C103.535 32.2157 102.83 32.7911 101.791 32.7911ZM109.706 32.7911C107.85 32.7911 106.866 31.6961 106.755 29.6175H108.499C108.555 30.8609 108.982 31.362 109.724 31.362C110.411 31.362 110.745 31.0094 110.745 30.0258C110.745 29.1535 110.504 28.7452 109.353 28.4483C108.035 28.0957 106.94 27.5204 106.94 25.6645C106.94 23.8086 108.073 22.7878 109.724 22.7878C111.45 22.7878 112.36 23.9014 112.434 25.7573H110.726C110.671 24.6623 110.392 24.2169 109.706 24.2169C109.056 24.2169 108.704 24.5881 108.704 25.4603C108.704 26.3697 109.019 26.6666 110.114 26.9636C111.617 27.3719 112.545 27.9843 112.545 29.8031C112.545 31.6961 111.543 32.7911 109.706 32.7911ZM116.564 32.7911C115.024 32.7911 114.188 31.8446 114.188 30.4898V24.4396H113.019V23.0291H114.188V20.2267H116.026V23.0291H117.64V24.4396H116.026V30.3227C116.026 30.9537 116.323 31.3064 116.935 31.3064C117.251 31.3064 117.51 31.2136 117.677 31.1208V32.6055C117.399 32.7168 116.954 32.7911 116.564 32.7911ZM124.145 32.5684H122.308V24.4396H121.139V23.0291H122.308V20.9134C122.308 19.5586 123.143 18.6121 124.683 18.6121C125.073 18.6121 125.519 18.6863 125.797 18.7977V20.2824C125.63 20.1896 125.37 20.0968 125.055 20.0968C124.442 20.0968 124.145 20.4494 124.145 21.0804V23.0291H125.76V24.4396H124.145V32.5684ZM128.813 32.7911C127.292 32.7911 126.698 31.6404 126.698 30.2856V23.0291H128.516V29.9144C128.516 30.7496 128.832 31.2692 129.556 31.2692C130.372 31.2692 130.818 30.6568 130.818 29.4876V23.0291H132.655V32.5684H130.948L130.892 31.4177C130.558 32.2157 129.853 32.7911 128.813 32.7911ZM134.33 18.8348H136.167V32.5684H134.33V18.8348ZM137.846 18.8348H139.683V32.5684H137.846V18.8348ZM144.146 35.7234H142.253L143.088 32.5312L140.675 23.0291H142.568L144.053 29.8588L145.482 23.0291H147.319L144.146 35.7234ZM153.543 32.7911C151.966 32.7911 150.833 31.5105 150.833 28.3926V27.2049C150.833 24.0684 151.966 22.7878 153.543 22.7878C154.434 22.7878 155.158 23.2704 155.529 23.9756V18.8348H157.366V32.5684H155.677L155.622 31.3806C155.288 32.1972 154.564 32.7911 153.543 32.7911ZM154.081 31.3249C155.065 31.3249 155.566 30.564 155.566 28.9123V26.6666C155.566 25.052 155.065 24.2726 154.081 24.2726C153.172 24.2726 152.689 24.9963 152.689 26.945V28.6339C152.689 30.5826 153.172 31.3249 154.081 31.3249ZM160.889 18.8348V21.6001H159.014V18.8348H160.889ZM159.033 23.0291H160.87V32.5684H159.033V23.0291ZM165.129 32.7911C163.273 32.7911 162.289 31.6961 162.178 29.6175H163.922C163.978 30.8609 164.405 31.362 165.147 31.362C165.834 31.362 166.168 31.0094 166.168 30.0258C166.168 29.1535 165.927 28.7452 164.776 28.4483C163.458 28.0957 162.363 27.5204 162.363 25.6645C162.363 23.8086 163.495 22.7878 165.147 22.7878C166.873 22.7878 167.782 23.9014 167.857 25.7573H166.149C166.094 24.6623 165.815 24.2169 165.129 24.2169C164.479 24.2169 164.126 24.5881 164.126 25.4603C164.126 26.3697 164.442 26.6666 165.537 26.9636C167.04 27.3719 167.968 27.9843 167.968 29.8031C167.968 31.6961 166.966 32.7911 165.129 32.7911ZM172.133 32.7911C170.128 32.7911 168.885 31.362 168.885 28.3555V27.2234C168.885 24.254 170.128 22.7878 172.133 22.7878C173.951 22.7878 175.046 24.0127 175.083 26.3326H173.283C173.283 24.9963 172.968 24.2911 172.133 24.2911C171.205 24.2911 170.741 24.9778 170.741 27.0564V28.5225C170.741 30.564 171.186 31.3064 172.114 31.3064C172.931 31.3064 173.302 30.564 173.302 29.2092H175.083C175.046 31.5476 173.914 32.7911 172.133 32.7911ZM176.287 18.8348H178.124V32.5684H176.287V18.8348ZM182.772 32.7911C180.694 32.7911 179.487 31.3435 179.487 28.3555V27.2234C179.487 24.254 180.694 22.7878 182.772 22.7878C184.869 22.7878 186.076 24.254 186.076 27.2234V28.3555C186.076 31.3435 184.869 32.7911 182.772 32.7911ZM182.772 31.3064C183.774 31.3064 184.22 30.5826 184.22 28.5225V27.0749C184.22 24.9963 183.774 24.2911 182.772 24.2911C181.789 24.2911 181.343 24.9963 181.343 27.0564V28.5225C181.343 30.5826 181.789 31.3064 182.772 31.3064ZM189.886 32.7911C188.03 32.7911 187.046 31.6961 186.935 29.6175H188.679C188.735 30.8609 189.162 31.362 189.904 31.362C190.591 31.362 190.925 31.0094 190.925 30.0258C190.925 29.1535 190.684 28.7452 189.533 28.4483C188.215 28.0957 187.121 27.5204 187.121 25.6645C187.121 23.8086 188.253 22.7878 189.904 22.7878C191.63 22.7878 192.54 23.9014 192.614 25.7573H190.907C190.851 24.6623 190.572 24.2169 189.886 24.2169C189.236 24.2169 188.884 24.5881 188.884 25.4603C188.884 26.3697 189.199 26.6666 190.294 26.9636C191.797 27.3719 192.725 27.9843 192.725 29.8031C192.725 31.6961 191.723 32.7911 189.886 32.7911ZM196.908 32.7911C194.811 32.7911 193.642 31.3435 193.642 28.3555V27.2234C193.642 24.254 194.83 22.7878 196.908 22.7878C199.377 22.7878 200.286 24.6252 200.119 28.1699H195.498V28.5225C195.498 30.5826 195.906 31.3064 196.908 31.3064C197.781 31.3064 198.133 30.6382 198.263 29.6361H200.082C199.822 31.4548 198.894 32.7911 196.908 32.7911ZM195.498 26.8151H198.3C198.263 24.9221 197.892 24.2911 196.927 24.2911C195.962 24.2911 195.535 24.9407 195.498 26.8151Z" fill="#231F20"/>
<path d="M288.138 33.4763L286.208 33.4621L286.304 20.2857L289.83 20.3115C291.797 20.326 293.254 21.6915 293.235 24.1968L293.233 24.5123C293.214 27.0363 291.739 28.3617 289.771 28.3473L288.175 28.3356L288.138 33.4763ZM288.222 21.9515L288.187 26.6839L289.709 26.6951C290.581 26.7015 291.236 26.0196 291.247 24.4978L291.25 24.1823C291.261 22.6605 290.616 21.9691 289.744 21.9627L288.222 21.9515ZM295.873 33.7557C294.518 33.7458 293.598 32.7182 293.61 31.0294C293.622 29.3963 294.502 28.4005 296.248 28.135L297.753 27.9047L297.763 26.6056C297.77 25.5849 297.402 25.1925 296.79 25.188C296.066 25.1827 295.691 25.6439 295.663 26.9243L293.9 26.9114C293.934 24.8144 295.074 23.7463 296.874 23.7595C298.544 23.7718 299.595 24.7817 299.581 26.6375L299.531 33.5598L297.86 33.5475L297.775 32.5076C297.435 33.3403 296.764 33.7622 295.873 33.7557ZM296.477 32.3311C297.238 32.3366 297.726 31.6349 297.734 30.5771L297.743 29.3152L296.628 29.4926C295.866 29.5983 295.454 30.0964 295.448 30.9501C295.442 31.7852 295.791 32.326 296.477 32.3311ZM302.959 33.5849L301.122 33.5715L301.192 24.0325L302.918 24.0451L302.961 25.7158C303.248 24.5486 303.94 23.8485 304.868 23.8553C305.016 23.8563 305.146 23.8759 305.239 23.8951L305.225 25.7138C305.058 25.694 304.892 25.6742 304.687 25.6728C303.685 25.6654 303.011 26.4585 302.998 28.2587L302.959 33.5849ZM309.452 33.8552C307.912 33.8439 307.084 32.8913 307.094 31.5366L307.138 25.4866L305.969 25.478L305.979 24.0676L307.148 24.0761L307.169 21.2738L309.006 21.2873L308.986 24.0896L310.6 24.1014L310.59 25.5119L308.975 25.5L308.932 31.383C308.928 32.014 309.222 32.3688 309.834 32.3733C310.15 32.3756 310.41 32.2847 310.578 32.1931L310.567 33.6778C310.288 33.7871 309.842 33.8581 309.452 33.8552ZM313.789 19.9304L313.769 22.6956L311.895 22.6818L311.915 19.9167L313.789 19.9304ZM311.903 24.111L313.74 24.1244L313.67 33.6634L311.833 33.65L311.903 24.111ZM317.259 33.9125C315.904 33.9025 314.983 32.875 314.996 31.1862C315.008 29.5531 315.887 28.5573 317.634 28.2917L319.139 28.0615L319.148 26.7624C319.156 25.7417 318.788 25.3492 318.175 25.3448C317.451 25.3395 317.077 25.8007 317.049 27.0811L315.286 27.0682C315.32 24.9712 316.46 23.9031 318.26 23.9163C319.93 23.9286 320.981 24.9385 320.967 26.7943L320.916 33.7166L319.246 33.7043L319.161 32.6644C318.821 33.497 318.149 33.919 317.259 33.9125ZM317.863 32.4878C318.624 32.4934 319.112 31.7917 319.119 30.7339L319.129 29.4719L318.014 29.6493C317.252 29.7551 316.84 30.2532 316.834 31.1069C316.828 31.942 317.176 32.4828 317.863 32.4878ZM322.608 19.995L324.445 20.0085L324.345 33.7417L322.507 33.7282L322.608 19.995ZM326.124 20.0208L327.961 20.0343L327.861 33.7675L326.023 33.754L326.124 20.0208ZM332.3 36.9551L330.407 36.9412L331.266 33.7553L328.923 24.2357L330.816 24.2496L332.25 31.09L333.729 24.271L335.566 24.2844L332.3 36.9551ZM335.667 36.3673L335.675 35.2724C336.473 35.2782 336.828 34.9282 336.834 34.1116L336.836 33.8333L335.946 33.8267L335.962 31.6183L337.985 31.6331L337.967 34.0086C337.956 35.5675 337.152 36.3782 335.667 36.3673ZM344.697 33.8909L342.86 33.8774L342.93 24.3384L344.637 24.3509L344.685 25.502C345.043 24.7251 345.79 24.1181 346.829 24.1257C348.369 24.137 348.954 25.3848 348.944 26.721L348.891 33.9216L347.073 33.9083L347.123 27.0788C347.129 26.2437 346.818 25.6661 346.057 25.6605C345.259 25.6546 344.753 26.2448 344.745 27.414L344.697 33.8909ZM353.44 34.1777C351.361 34.1624 350.165 32.7061 350.187 29.7182L350.196 28.5861C350.217 25.6168 351.434 24.1595 353.513 24.1747C355.61 24.1901 356.806 25.6651 356.784 28.6344L356.775 29.7665C356.754 32.7543 355.537 34.1931 353.44 34.1777ZM353.45 32.693C354.453 32.7004 354.903 31.9799 354.918 29.9199L354.929 28.4723C354.944 26.3938 354.504 25.6853 353.502 25.678C352.518 25.6707 352.068 26.3727 352.053 28.4327L352.042 29.8988C352.027 31.9588 352.467 32.6858 353.45 32.693ZM360.905 34.2324C359.364 34.2211 358.536 33.2685 358.546 31.9138L358.59 25.8637L357.421 25.8552L357.432 24.4447L358.601 24.4533L358.621 21.651L360.459 21.6645L360.438 24.4668L362.053 24.4786L362.042 25.889L360.428 25.8772L360.385 31.7602C360.38 32.3912 360.674 32.746 361.287 32.7505C361.602 32.7528 361.863 32.6619 362.03 32.5703L362.02 34.055C361.74 34.1643 361.294 34.2353 360.905 34.2324ZM368.04 34.2847C366.686 34.2748 365.765 33.2473 365.778 31.5585C365.789 29.9253 366.669 28.9296 368.416 28.664L369.921 28.4337L369.93 27.1347C369.938 26.1139 369.569 25.7215 368.957 25.717C368.233 25.7117 367.859 26.1729 367.831 27.4533L366.068 27.4404C366.101 25.3435 367.241 24.2754 369.042 24.2886C370.712 24.3008 371.762 25.3107 371.749 27.1665L371.698 34.0888L370.028 34.0766L369.943 33.0366C369.602 33.8693 368.931 34.2912 368.04 34.2847ZM368.645 32.8601C369.406 32.8657 369.893 32.164 369.901 31.1061L369.91 29.8442L368.795 30.0216C368.034 30.1274 367.622 30.6255 367.615 31.4791C367.609 32.3143 367.958 32.855 368.645 32.8601ZM373.39 20.3673L375.227 20.3808L375.126 34.1139L373.289 34.1005L373.39 20.3673ZM376.906 20.3931L378.743 20.4065L378.642 34.1397L376.805 34.1263L376.906 20.3931ZM385.123 20.4533L385.103 23.2185L383.228 23.2048L383.249 20.4396L385.123 20.4533ZM383.236 24.6339L385.074 24.6474L385.004 34.1864L383.166 34.1729L383.236 24.6339ZM388.52 34.2121L386.682 34.1987L386.752 24.6597L388.46 24.6722L388.507 25.8232C388.865 25.0463 389.612 24.4394 390.651 24.447C392.192 24.4583 392.776 25.706 392.767 27.0422L392.714 34.2429L390.895 34.2295L390.945 27.4001C390.951 26.5649 390.64 25.9873 389.879 25.9817C389.081 25.9759 388.576 26.5661 388.567 27.7353L388.52 34.2121ZM396.579 34.2712L394.741 34.2577L394.801 26.1292L393.632 26.1206L393.642 24.7102L394.811 24.7187L394.827 22.6031C394.837 21.2483 395.679 20.308 397.219 20.3193C397.609 20.3221 398.054 20.3996 398.331 20.513L398.32 21.9977C398.154 21.9037 397.895 21.809 397.579 21.8067C396.967 21.8022 396.667 22.1526 396.663 22.7836L396.649 24.7322L398.263 24.744L398.253 26.1545L396.638 26.1426L396.579 34.2712ZM401.883 34.5328C399.805 34.5176 398.609 33.0612 398.631 30.0733L398.639 28.9412C398.661 25.9719 399.878 24.5146 401.957 24.5298C404.054 24.5452 405.249 26.0202 405.228 28.9895L405.219 30.1216C405.197 33.1095 403.98 34.5482 401.883 34.5328ZM401.894 33.0481C402.896 33.0555 403.347 32.335 403.362 30.275L403.373 28.8274C403.388 26.7489 402.948 26.0404 401.946 26.0331C400.962 26.0259 400.512 26.7278 400.496 28.7878L400.486 30.2539C400.471 32.3139 400.911 33.0409 401.894 33.0481Z" fill="#231F20"/>
<path d="M66.1964 65.417H64.2663V61.1485L61.2783 52.2402H63.3384L65.2499 58.7172L67.1429 52.2402H69.1473L66.1964 61.167V65.417ZM76.5633 65.417H70.1234V52.2402H76.4705V53.8734H72.0721V57.8821H76.0808V59.4967H72.0721V63.7467H76.5633V65.417ZM81.0384 65.6397C78.7743 65.6397 77.3824 64.2107 77.2896 61.3897H79.1826C79.2939 63.3198 79.9806 64.0251 81.0756 64.0251C82.0221 64.0251 82.6531 63.4683 82.6531 62.0393V61.798C82.6531 60.6102 82.2448 60.072 80.5002 59.5153C78.3103 58.7915 77.5865 57.7522 77.5865 55.8406V55.655C77.5865 53.428 78.9599 52.0175 80.9642 52.0175C82.9129 52.0175 84.2862 53.2238 84.4533 55.8963H82.5417C82.4489 54.3002 81.9107 53.6136 80.9828 53.6136C80.1105 53.6136 79.4981 54.2074 79.4981 55.5251V55.7664C79.4981 56.9542 79.8321 57.3624 81.5024 57.9007C83.6181 58.5688 84.6017 59.6081 84.6017 61.6681V61.8537C84.6017 64.155 83.1727 65.6397 81.0384 65.6397ZM85.6568 67.9596V66.8646C86.4549 66.8646 86.8075 66.512 86.8075 65.6954V65.417H85.9167V63.2085H87.9396V65.584C87.9396 67.143 87.1416 67.9596 85.6568 67.9596ZM95.7636 65.6397C93.7592 65.6397 92.5158 64.2107 92.5158 61.2041V60.072C92.5158 57.1026 93.7592 55.6365 95.7636 55.6365C97.5824 55.6365 98.6773 56.8614 98.7145 59.1812H96.9142C96.9142 57.845 96.5987 57.1397 95.7636 57.1397C94.8357 57.1397 94.3717 57.8264 94.3717 59.905V61.3712C94.3717 63.4126 94.8171 64.155 95.745 64.155C96.5616 64.155 96.9328 63.4126 96.9328 62.0578H98.7145C98.6773 64.3963 97.5452 65.6397 95.7636 65.6397ZM101.866 65.6397C100.511 65.6397 99.5828 64.619 99.5828 62.9301C99.5828 61.2969 100.455 60.2947 102.2 60.0164L103.703 59.7751V58.476C103.703 57.4552 103.332 57.0655 102.719 57.0655C101.995 57.0655 101.624 57.5295 101.606 58.81H99.8426C99.8612 56.7129 100.993 55.6365 102.793 55.6365C104.464 55.6365 105.522 56.6387 105.522 58.4945V65.417H103.851L103.759 64.3777C103.424 65.2128 102.756 65.6397 101.866 65.6397ZM102.459 64.2107C103.22 64.2107 103.703 63.5054 103.703 62.4476V61.1856L102.589 61.3712C101.828 61.4825 101.42 61.9836 101.42 62.8373C101.42 63.6725 101.773 64.2107 102.459 64.2107ZM108.95 65.417H107.113V55.8777H108.82L108.876 57.0284C109.229 56.2489 109.971 55.6365 111.01 55.6365C112.551 55.6365 113.145 56.8799 113.145 58.2162V65.417H111.326V58.5873C111.326 57.7522 111.01 57.1769 110.249 57.1769C109.451 57.1769 108.95 57.7707 108.95 58.94V65.417ZM120.15 65.6397C118.294 65.6397 117.311 64.5447 117.199 62.4661H118.944C118.999 63.7096 119.426 64.2107 120.169 64.2107C120.855 64.2107 121.189 63.858 121.189 62.8744C121.189 62.0022 120.948 61.5939 119.797 61.2969C118.48 60.9443 117.385 60.369 117.385 58.5131C117.385 56.6572 118.517 55.6365 120.169 55.6365C121.895 55.6365 122.804 56.75 122.878 58.6059H121.171C121.115 57.5109 120.837 57.0655 120.15 57.0655C119.501 57.0655 119.148 57.4367 119.148 58.309C119.148 59.2183 119.463 59.5153 120.558 59.8122C122.062 60.2205 122.99 60.833 122.99 62.6517C122.99 64.5447 121.987 65.6397 120.15 65.6397ZM127.008 65.6397C125.468 65.6397 124.633 64.6932 124.633 63.3384V57.2882H123.464V55.8777H124.633V53.0754H126.47V55.8777H128.085V57.2882H126.47V63.1714C126.47 63.8024 126.767 64.155 127.379 64.155C127.695 64.155 127.955 64.0622 128.122 63.9694V65.4541C127.843 65.5655 127.398 65.6397 127.008 65.6397ZM131.299 65.6397C129.944 65.6397 129.016 64.619 129.016 62.9301C129.016 61.2969 129.888 60.2947 131.633 60.0164L133.136 59.7751V58.476C133.136 57.4552 132.765 57.0655 132.152 57.0655C131.429 57.0655 131.057 57.5295 131.039 58.81H129.276C129.294 56.7129 130.426 55.6365 132.227 55.6365C133.897 55.6365 134.955 56.6387 134.955 58.4945V65.417H133.285L133.192 64.3777C132.858 65.2128 132.19 65.6397 131.299 65.6397ZM131.893 64.2107C132.654 64.2107 133.136 63.5054 133.136 62.4476V61.1856L132.023 61.3712C131.262 61.4825 130.853 61.9836 130.853 62.8373C130.853 63.6725 131.206 64.2107 131.893 64.2107ZM139.04 68.572H137.147L137.982 65.3799L135.569 55.8777H137.462L138.947 62.7074L140.376 55.8777H142.214L139.04 68.572ZM147.955 65.6397C146.6 65.6397 145.672 64.619 145.672 62.9301C145.672 61.2969 146.544 60.2947 148.289 60.0164L149.792 59.7751V58.476C149.792 57.4552 149.421 57.0655 148.808 57.0655C148.084 57.0655 147.713 57.5295 147.695 58.81H145.932C145.95 56.7129 147.082 55.6365 148.883 55.6365C150.553 55.6365 151.611 56.6387 151.611 58.4945V65.417H149.94L149.848 64.3777C149.514 65.2128 148.845 65.6397 147.955 65.6397ZM148.548 64.2107C149.309 64.2107 149.792 63.5054 149.792 62.4476V61.1856L148.678 61.3712C147.917 61.4825 147.509 61.9836 147.509 62.8373C147.509 63.6725 147.862 64.2107 148.548 64.2107ZM155.039 65.417H153.202V55.8777H154.909L154.965 57.0284C155.318 56.2489 156.06 55.6365 157.099 55.6365C158.64 55.6365 159.234 56.8799 159.234 58.2162V65.417H157.415V58.5873C157.415 57.7522 157.099 57.1769 156.338 57.1769C155.54 57.1769 155.039 57.7707 155.039 58.94V65.417ZM163.783 65.6397C161.705 65.6397 160.498 64.1921 160.498 61.2041V60.072C160.498 57.1026 161.705 55.6365 163.783 55.6365C165.881 55.6365 167.087 57.1026 167.087 60.072V61.2041C167.087 64.1921 165.881 65.6397 163.783 65.6397ZM163.783 64.155C164.786 64.155 165.231 63.4312 165.231 61.3712V59.9236C165.231 57.845 164.786 57.1397 163.783 57.1397C162.8 57.1397 162.354 57.845 162.354 59.905V61.3712C162.354 63.4312 162.8 64.155 163.783 64.155ZM170.263 65.417H168.426V55.8777H170.133L170.189 57.0284C170.542 56.2489 171.284 55.6365 172.323 55.6365C173.864 55.6365 174.458 56.8799 174.458 58.2162V65.417H172.639V58.5873C172.639 57.7522 172.323 57.1769 171.562 57.1769C170.764 57.1769 170.263 57.7707 170.263 58.94V65.417ZM178.532 68.572H176.639L177.474 65.3799L175.061 55.8777H176.954L178.439 62.7074L179.868 55.8777H181.705L178.532 68.572ZM184.527 65.417H182.69V55.8777H184.397L184.453 57.0284C184.805 56.2489 185.529 55.6365 186.568 55.6365C187.552 55.6365 188.239 56.1561 188.536 57.0655C188.832 56.3788 189.631 55.6365 190.763 55.6365C192.303 55.6365 192.878 56.8799 192.878 58.2162V65.417H191.06V58.5873C191.06 57.7522 190.763 57.1769 190.002 57.1769C189.185 57.1769 188.703 57.7707 188.703 58.94V65.417H186.884V58.5873C186.884 57.7522 186.587 57.1769 185.807 57.1769C185.009 57.1769 184.527 57.7707 184.527 58.94V65.417ZM197.439 65.6397C195.361 65.6397 194.155 64.1921 194.155 61.2041V60.072C194.155 57.1026 195.361 55.6365 197.439 55.6365C199.537 55.6365 200.743 57.1026 200.743 60.072V61.2041C200.743 64.1921 199.537 65.6397 197.439 65.6397ZM197.439 64.155C198.442 64.155 198.887 63.4312 198.887 61.3712V59.9236C198.887 57.845 198.442 57.1397 197.439 57.1397C196.456 57.1397 196.01 57.845 196.01 59.905V61.3712C196.01 63.4312 196.456 64.155 197.439 64.155ZM204.032 65.6397C202.511 65.6397 201.917 64.489 201.917 63.1343V55.8777H203.736V62.7631C203.736 63.5982 204.051 64.1179 204.775 64.1179C205.591 64.1179 206.037 63.5054 206.037 62.3362V55.8777H207.874V65.417H206.167L206.111 64.2663C205.777 65.0644 205.072 65.6397 204.032 65.6397ZM211.948 65.6397C210.092 65.6397 209.108 64.5447 208.997 62.4661H210.741C210.797 63.7096 211.224 64.2107 211.966 64.2107C212.653 64.2107 212.987 63.858 212.987 62.8744C212.987 62.0022 212.746 61.5939 211.595 61.2969C210.277 60.9443 209.182 60.369 209.182 58.5131C209.182 56.6572 210.314 55.6365 211.966 55.6365C213.692 55.6365 214.601 56.75 214.676 58.6059H212.968C212.913 57.5109 212.634 57.0655 211.948 57.0655C211.298 57.0655 210.945 57.4367 210.945 58.309C210.945 59.2183 211.261 59.5153 212.356 59.8122C213.859 60.2205 214.787 60.833 214.787 62.6517C214.787 64.5447 213.785 65.6397 211.948 65.6397Z" fill="#231F20"/>
<path d="M287.992 64.9775H286.154V51.8008H288.4L291.908 61.3586V51.8008H293.727V64.9775H291.574L287.992 55.197V64.9775ZM298.402 65.2002C296.323 65.2002 295.117 63.7527 295.117 60.7647V59.6326C295.117 56.6632 296.323 55.197 298.402 55.197C300.499 55.197 301.706 56.6632 301.706 59.6326V60.7647C301.706 63.7527 300.499 65.2002 298.402 65.2002ZM298.402 63.7155C299.404 63.7155 299.85 62.9917 299.85 60.9317V59.4841C299.85 57.4055 299.404 56.7003 298.402 56.7003C297.418 56.7003 296.973 57.4055 296.973 59.4656V60.9317C296.973 62.9917 297.418 63.7155 298.402 63.7155ZM305.89 51.244H307.727V64.9775H305.89V51.244ZM312.376 65.2002C310.297 65.2002 309.091 63.7527 309.091 60.7647V59.6326C309.091 56.6632 310.297 55.197 312.376 55.197C314.473 55.197 315.679 56.6632 315.679 59.6326V60.7647C315.679 63.7527 314.473 65.2002 312.376 65.2002ZM312.376 63.7155C313.378 63.7155 313.823 62.9917 313.823 60.9317V59.4841C313.823 57.4055 313.378 56.7003 312.376 56.7003C311.392 56.7003 310.947 57.4055 310.947 59.4656V60.9317C310.947 62.9917 311.392 63.7155 312.376 63.7155ZM319.841 65.2002C318.3 65.2002 317.465 64.2537 317.465 62.8989V56.8488H316.296V55.4383H317.465V52.6359H319.303V55.4383H320.917V56.8488H319.303V62.7319C319.303 63.3629 319.6 63.7155 320.212 63.7155C320.528 63.7155 320.787 63.6227 320.954 63.5299V65.0147C320.676 65.126 320.231 65.2002 319.841 65.2002ZM325.024 65.2002C323.484 65.2002 322.649 64.2537 322.649 62.8989V56.8488H321.48V55.4383H322.649V52.6359H324.486V55.4383H326.101V56.8488H324.486V62.7319C324.486 63.3629 324.783 63.7155 325.395 63.7155C325.711 63.7155 325.971 63.6227 326.138 63.5299V65.0147C325.859 65.126 325.414 65.2002 325.024 65.2002ZM330.173 65.2002C328.076 65.2002 326.906 63.7527 326.906 60.7647V59.6326C326.906 56.6632 328.094 55.197 330.173 55.197C332.641 55.197 333.55 57.0343 333.383 60.5791H328.762V60.9317C328.762 62.9917 329.171 63.7155 330.173 63.7155C331.045 63.7155 331.398 63.0474 331.528 62.0452H333.346C333.087 63.864 332.159 65.2002 330.173 65.2002ZM328.762 59.2243H331.565C331.528 57.3313 331.156 56.7003 330.191 56.7003C329.226 56.7003 328.799 57.3498 328.762 59.2243ZM336.472 64.9775H334.635V55.4383H336.361L336.416 57.1086C336.695 55.9394 337.381 55.2341 338.309 55.2341C338.458 55.2341 338.588 55.2527 338.68 55.2713V57.09C338.513 57.0715 338.346 57.0529 338.142 57.0529C337.14 57.0529 336.472 57.8509 336.472 59.6511V64.9775ZM342.819 68.1325H340.926L341.761 64.9404L339.349 55.4383H341.242L342.727 62.2679L344.156 55.4383H345.993L342.819 68.1325ZM352.402 65.2002C350.546 65.2002 349.563 64.1053 349.451 62.0267H351.196C351.251 63.2701 351.678 63.7712 352.421 63.7712C353.107 63.7712 353.441 63.4186 353.441 62.435C353.441 61.5627 353.2 61.1544 352.049 60.8575C350.732 60.5049 349.637 59.9295 349.637 58.0736C349.637 56.2178 350.769 55.197 352.421 55.197C354.147 55.197 355.056 56.3106 355.13 58.1664H353.423C353.367 57.0715 353.089 56.6261 352.402 56.6261C351.753 56.6261 351.4 56.9972 351.4 57.8695C351.4 58.7789 351.715 59.0758 352.81 59.3728C354.314 59.7811 355.242 60.3935 355.242 62.2123C355.242 64.1053 354.239 65.2002 352.402 65.2002ZM359.076 68.1325H357.183L358.019 64.9404L355.606 55.4383H357.499L358.984 62.2679L360.413 55.4383H362.25L359.076 68.1325ZM365.614 65.2002C363.758 65.2002 362.775 64.1053 362.664 62.0267H364.408C364.464 63.2701 364.891 63.7712 365.633 63.7712C366.32 63.7712 366.654 63.4186 366.654 62.435C366.654 61.5627 366.412 61.1544 365.262 60.8575C363.944 60.5049 362.849 59.9295 362.849 58.0736C362.849 56.2178 363.981 55.197 365.633 55.197C367.359 55.197 368.268 56.3106 368.343 58.1664H366.635C366.579 57.0715 366.301 56.6261 365.614 56.6261C364.965 56.6261 364.612 56.9972 364.612 57.8695C364.612 58.7789 364.928 59.0758 366.023 59.3728C367.526 59.7811 368.454 60.3935 368.454 62.2123C368.454 64.1053 367.452 65.2002 365.614 65.2002ZM372.473 65.2002C370.932 65.2002 370.097 64.2537 370.097 62.8989V56.8488H368.928V55.4383H370.097V52.6359H371.934V55.4383H373.549V56.8488H371.934V62.7319C371.934 63.3629 372.231 63.7155 372.844 63.7155C373.159 63.7155 373.419 63.6227 373.586 63.5299V65.0147C373.308 65.126 372.862 65.2002 372.473 65.2002ZM377.621 65.2002C375.524 65.2002 374.355 63.7527 374.355 60.7647V59.6326C374.355 56.6632 375.542 55.197 377.621 55.197C380.089 55.197 380.999 57.0343 380.832 60.5791H376.211V60.9317C376.211 62.9917 376.619 63.7155 377.621 63.7155C378.493 63.7155 378.846 63.0474 378.976 62.0452H380.795C380.535 63.864 379.607 65.2002 377.621 65.2002ZM376.211 59.2243H379.013C378.976 57.3313 378.605 56.7003 377.64 56.7003C376.675 56.7003 376.248 57.3498 376.211 59.2243ZM383.92 64.9775H382.083V55.4383H383.79L383.846 56.5889C384.199 55.8095 384.922 55.197 385.962 55.197C386.945 55.197 387.632 55.7167 387.929 56.6261C388.226 55.9394 389.024 55.197 390.156 55.197C391.696 55.197 392.272 56.4405 392.272 57.7767V64.9775H390.453V58.1479C390.453 57.3127 390.156 56.7374 389.395 56.7374C388.578 56.7374 388.096 57.3313 388.096 58.5005V64.9775H386.277V58.1479C386.277 57.3127 385.98 56.7374 385.201 56.7374C384.403 56.7374 383.92 57.3313 383.92 58.5005V64.9775Z" fill="#231F20"/>
<path d="M465.599 26.2118H460.263L462.939 21.5875C462.985 21.5102 462.985 21.4329 462.97 21.3555C462.954 21.2782 462.892 21.2163 462.83 21.17L460.742 19.9636C460.588 19.8708 460.402 19.9327 460.325 20.0719L457.649 24.6961L454.974 20.0719C454.881 19.9172 454.695 19.8708 454.556 19.9636L452.468 21.17C452.468 21.17 452.345 21.2782 452.329 21.3555C452.314 21.4329 452.329 21.5257 452.36 21.5875L455.036 26.2118H449.7C449.53 26.2118 449.391 26.351 449.391 26.5211V28.9337C449.391 29.1039 449.53 29.2431 449.7 29.2431H455.036L452.36 33.8673C452.314 33.9446 452.314 34.022 452.329 34.0993C452.345 34.1766 452.406 34.2385 452.468 34.2849L454.556 35.4912C454.556 35.4912 454.664 35.5376 454.711 35.5376C454.819 35.5376 454.927 35.4757 454.974 35.3829L457.649 30.7587L460.325 35.3829C460.325 35.3829 460.433 35.5067 460.51 35.5221C460.588 35.5376 460.681 35.5221 460.742 35.4912L462.83 34.2849C462.83 34.2849 462.954 34.1766 462.97 34.0993C462.985 34.022 462.97 33.9292 462.939 33.8673L460.263 29.2431H465.599C465.769 29.2431 465.908 29.1039 465.908 28.9337V26.5211C465.908 26.351 465.769 26.2118 465.599 26.2118Z" fill="#231F20"/>
</svg>
