<svg width="317" height="221" viewBox="0 0 317 221" fill="none" xmlns="http://www.w3.org/2000/svg">
<path fill-rule="evenodd" clip-rule="evenodd" d="M8.0821 34.3804L9.34755 42.8196C9.34755 42.8196 7.70358 43.3681 8.94236 44.6082C10.1756 45.8472 11.3003 45.8284 10.042 47.4451C8.78368 49.0618 10.2243 53.908 10.3042 55.9605C10.3841 58.0129 8.39405 63.0028 7.61653 67.3228C6.83902 71.6428 4.24657 77.3598 1.90199 79.7392L2.73971 82.8376L0.996264 83.7013L3.27102 92.8885L0.272705 100.918L3.22506 104.604L1.35647 110.14L6.2992 117.124L6.02267 120.767L8.72365 121.263L10.4916 119.046L10.2266 123.024L8.05661 123.802L8.95115 129.259L11.8571 130.623L10.1508 134.256L11.9747 138.409L15.6134 142.512C15.6134 142.512 16.9564 144.635 17.422 148.244C17.8877 151.854 18.0169 152.206 18.0169 152.206L20.8937 151.4L24.4654 152.739L26.5695 156.778L29.5755 156.324L31.9225 159.499L37.2511 164.553L37.9887 169.468L53.7842 169.796L54.6506 172.589L79.0229 182.131L98.5476 182.348L99.0774 178.367L108.861 178.623L111.047 179.195L111.716 181.421L115.636 183.568L116.493 185.277L118.114 186.837C118.114 186.837 119.015 186.327 119.458 186.784C119.901 187.242 122.486 190.496 122.486 190.496C122.486 190.496 122.614 191.343 123.229 192.938C123.843 194.532 124.223 196.578 126.976 197.441C129.729 198.303 130.558 198.816 131.217 199.993C131.881 201.171 131.921 201.691 133.727 201.23C135.532 200.77 135.253 200.176 136.06 198.515C136.866 196.854 138.183 193.918 139.22 193.572C140.255 193.232 143.023 192.699 144.5 193.529C145.971 194.358 146.893 195.233 148.294 195.583C149.694 195.932 150.721 196.005 151.322 198.282C151.925 200.553 152.972 202.534 154.362 203.826C155.758 205.118 155.453 204.6 156.393 206.112C157.334 207.624 157.834 208.973 159.172 208.885C160.511 208.797 159.98 209.025 160.379 210.695C160.779 212.358 162.146 212.978 163.829 215.464C165.512 217.95 165.584 217.417 167.017 217.986C168.45 218.56 167.933 218.071 170.478 219.304C173.024 220.536 172.872 219.506 173.593 219.584C174.32 219.663 174.375 219.282 175.572 220.037C176.776 220.792 178.791 220.227 178.791 220.227L176.807 217.259L176.604 211.885L176.541 210.694L174.898 209.74L176.506 209.196L176.721 207.625L175.494 206.198L176.862 205.804L179.573 200.892L181.474 201.06L180.41 198.707L181.922 198.554L181.741 197.346L183.651 198.073L182.354 200.443L185.094 199.691L190.156 191.912L189.69 188.791L191.903 187.296L191.224 189.011L191.934 189.731L191.126 191.093C191.126 191.093 192.359 191.325 193.748 189.836C195.137 188.353 195.582 187.574 198.253 186.608C200.919 185.641 203.175 185.415 204.667 185.644C206.166 185.868 207.118 186.248 207.118 186.248L210.709 185.709C210.709 185.709 210.296 184.722 210.797 184.534C211.293 184.345 212.224 183.795 212.553 184.496C212.881 185.196 213.168 185.078 213.827 185.242C214.486 185.406 214.713 185.144 215.406 185.527C216.099 185.911 216.427 185.598 216.628 186.43C216.828 187.262 216.861 187.97 216.861 187.97C216.861 187.97 218.219 187.017 218.795 187.379C219.377 187.741 217.913 189.014 219.366 188.683C220.814 188.351 221.189 188.07 221.341 187.109C221.499 186.149 221.176 186.272 222.253 186.446C223.33 186.62 224.473 186.259 224.06 184.972C223.64 183.685 224.885 183.458 226.125 183.985C227.366 184.512 230.376 186.574 230.376 186.574L231.788 184.75C231.788 184.75 228.719 183.034 227.747 182.546C226.776 182.053 226.677 181.171 227.69 180.676C228.702 180.188 230.043 179.386 229.861 178.397C229.678 177.413 228.849 175.887 228.071 176.938C227.292 177.994 226.493 178.938 226.327 178.325C226.16 177.713 225.627 176.145 224.995 177.701C224.369 179.258 221.78 178.259 221.344 177.613C220.907 176.967 221.378 176.33 222.545 176.607C223.711 176.884 226.612 176.744 227.718 175.605C228.823 174.466 231.481 174.212 233.024 173.984C234.563 173.75 235.326 173.824 234.997 172.634C234.669 171.444 234.7 169.902 235.595 170.859C236.485 171.815 236.493 172.11 237.014 172.334C237.535 172.559 237.457 172.792 237.195 173.542C236.934 174.293 237.417 174.257 238.772 174.057C240.127 173.852 239.824 173.565 239.713 172.565C239.601 171.572 239.33 171.273 240.009 171.545C240.688 171.816 241.49 171.432 241.774 170.564C242.058 169.697 242.902 169.608 243.091 170.593C243.274 171.577 245.506 171.692 245.396 170.474C245.287 169.25 246.678 169.005 247.873 169.99C249.068 170.974 249.211 170.915 250.595 170.893C251.979 170.871 251.54 171.462 253.743 172.895C255.946 174.327 256.915 174.555 258.75 171.769C260.58 168.977 262.148 166.906 265.111 169.161C268.073 171.415 270.138 173.432 270.215 173.723C270.294 174.008 270.695 174.441 271.647 173.509C272.593 172.576 274.778 176.152 274.971 177.172C275.165 178.193 275.146 180.86 275.57 183.685C275.57 183.685 277.017 185.833 277.153 184.011C277.294 182.19 277.916 182.094 278.06 184.325C278.204 186.557 277.999 188.164 279.714 189.103C281.429 190.046 282.551 190.775 282.551 190.775C282.551 190.775 282.944 190.153 283.296 191.002C283.648 191.851 284.535 191.753 285.134 192.262C285.734 192.772 286.218 192.737 286.233 193.821C286.247 194.906 285.832 195.156 287.785 196.179C289.738 197.197 291.832 197.895 292.64 200.326C293.453 202.758 292.832 202.36 295.343 201.606C297.853 200.852 299.596 199.688 299.38 198.785C299.172 197.876 298.976 197.08 298.359 196.233C297.748 195.387 298.42 194.351 298.706 194.267C298.991 194.188 297.498 186.195 297.498 186.195L287.352 172.789L289.471 172.922C289.471 172.922 287.042 170.733 284.818 168.894C282.594 167.054 277.371 157.704 277.371 157.704L277.155 148.731C277.155 148.731 275.43 148.24 275.489 145.604C275.542 142.966 276.057 139.892 278.605 141.384C281.153 142.876 280.61 141.761 282.321 140.148C284.032 138.542 284.556 138.537 284.084 137.407C283.613 136.276 284.556 136.062 285.323 136.172C286.09 136.281 285.871 134.813 285.662 133.421C285.452 132.029 286.576 132.534 286.738 131.609C286.9 130.684 285.457 131.575 285.938 129.778C286.42 127.981 285.82 127.471 290.631 124.571L294.362 116.956L296.915 116.497C296.915 116.497 297.593 115.888 298.447 114.466C299.3 113.044 298.438 112.893 297.708 113.285C296.979 113.678 296.601 113.791 296.145 114.476C295.687 115.167 295.74 114.032 296.222 113.116C296.705 112.199 296.938 111.88 296.081 111.788C295.225 111.691 294.27 111.327 295.57 111.019C296.87 110.711 297.984 110.995 298.638 109.714C299.293 108.432 299.273 108.325 299.737 108.027C300.201 107.734 301.088 106.531 299.641 105.511C298.194 104.491 297.689 103.722 297.763 104.611C297.838 105.5 297.971 106.382 297.094 105.389C296.212 104.394 296.862 104.971 295.291 105.378L293.719 105.785C293.719 105.785 294.501 104.257 296.026 103.916C297.55 103.575 297.803 103.761 297.43 103.144C297.057 102.527 295.684 101.268 295.684 101.268C295.684 101.268 295.184 100.932 296.266 100.128C297.347 99.33 295.431 98.3021 294.756 98.066C294.082 97.8299 293.244 97.73 292.954 98.2969C292.663 98.8639 291.672 98.2632 290.374 97.8581C289.076 97.453 290.221 97.3574 290.893 97.3284C291.565 97.3049 292.487 97.6912 291.556 95.2428C290.624 92.7944 290.673 92.5964 288.805 92.6539C286.937 92.7115 286.386 93.0164 285.152 91.7774C283.919 90.5384 283.809 90.817 282.642 90.5401C281.476 90.2633 279.711 89.7416 279.275 87.5936C278.839 85.4455 279.733 83.6567 281.476 85.7627C283.215 87.8622 282.729 87.1146 282.71 85.4997C282.691 83.8903 282.394 84.1223 284.063 84.0217C285.732 83.921 285.79 83.7994 285.254 81.9664C284.719 80.1335 285.682 77.0626 287.122 78.4212C288.563 79.7797 286.912 79.5385 287.579 81.4653C288.241 83.3911 288.674 83.7775 289.25 84.6283C289.826 85.479 288.919 86.1775 289.876 87.0481C290.834 87.9187 291.286 88.4469 292.7 89.3976C294.12 90.3493 292.606 93.0173 292.695 94.3519C292.782 95.692 293.666 96.3417 294.713 96.8263C294.713 96.8263 294.142 96.011 294.4 93.7228C294.657 91.4345 294.961 91.198 294.861 89.0382C294.761 86.8784 295.564 85.4812 294.922 83.6972C294.279 81.9188 293.729 82.4888 292.104 80.6698C290.48 78.8508 289.678 77.244 291.628 78.4912C293.579 79.7383 293.067 78.5774 293.893 79.3486C294.719 80.1253 294.305 79.8518 294.938 80.5809C295.572 81.31 295.348 79.317 295.444 77.9536C295.539 76.5902 295.643 76.3106 295.63 74.6967C295.617 73.0827 295.341 72.7488 295.367 71.171C295.394 69.5932 296.935 70.1131 294.92 68.1977C292.91 66.289 293.335 65.6206 293.404 64.8222C293.474 64.0238 295.832 64.7547 297.52 63.2649C299.209 61.7752 299.169 60.7662 299.169 60.7662C299.169 60.7662 297.151 63.0574 295.579 62.0942C294.012 61.1321 294.794 59.846 296.713 58.1694C298.638 56.4938 297.988 56.4005 299.367 56.8668C300.751 57.3341 302.652 55.5101 304.349 54.4651C306.046 53.4201 307.431 52.8746 307.608 51.8375C307.793 50.7959 308.885 49.1135 309.603 50.1289C310.319 51.1499 313.254 48.231 312.979 45.6241C312.703 43.0226 310.444 44.0942 310.444 44.0942C310.444 44.0942 311.83 44.3375 311.784 45.5261C311.739 46.7147 311.422 47.6048 310.667 47.8312C309.911 48.0575 310.17 47.9047 309.373 47.0699C308.575 46.2351 308.092 47.1516 308.092 47.1516L307.253 44.9162L305.093 45.523C305.093 45.523 305.295 43.8632 305.733 42.6678C306.175 41.4789 305.97 41.6189 304.788 40.1075C303.606 38.5961 302.882 37.9191 303.735 35.311C304.581 32.7074 304.674 33.312 304.5 32.157C304.326 31.0021 305.453 31.001 307.204 29.9487C308.959 28.8974 309.149 26.7863 308.762 25.3266C308.375 23.8668 310.466 25.0713 311.055 23.7431C311.644 22.415 311.822 22.1089 312.705 23.1036C313.581 24.0972 314.649 24.4418 314.984 21.8054C315.32 19.1635 315.969 19.3488 316.52 19.6596C317.071 19.9704 316.175 13.9717 316.175 13.9717L313.417 14.3282L312.472 11.7679L310.563 12.1687L306.687 3.57835L302.943 0.371094L299.804 3.42992L296.546 2.34572L295.396 10.4518C295.396 10.4518 297.023 11.5575 296.832 12.8798C296.635 14.2011 296.065 14.514 296.75 16.83C297.436 19.1459 297.869 20.5452 295.623 22.4598C295.623 22.4598 293.621 22.987 293.875 24.6924C294.13 26.3977 290.636 28.2216 287.753 28.8769C284.869 29.5377 276.486 34.0051 275.85 35.0021C275.215 35.9991 271.284 43.174 271.284 43.174C271.284 43.174 273.459 43.4101 273.8 45.3275C274.141 47.2448 272.452 49.4712 270.234 51.9434C268.016 54.4156 266.304 53.8867 264.916 52.4632C264.916 52.4632 262.35 53.3565 260.807 55.052C259.264 56.7475 259.052 56.8343 259.955 57.2629C260.864 57.6871 261.893 59.3367 260.311 61.8824C258.723 64.4271 254.257 68.7617 251.82 71.2676C249.383 73.7735 247.686 74.8185 247.686 74.8185L241.036 75.4794L241.611 68.8078C241.611 68.8078 241.715 67.6129 242.471 67.0471C243.233 66.4823 243.896 66.4401 242.461 63.615C241.026 60.7898 238.255 56.2 238.255 56.2C238.255 56.2 236.239 56.6153 235.862 57.5172C235.491 58.4201 236.016 58.1677 235.401 59.3297C234.786 60.4918 232.981 60.0893 232.981 60.0893C232.981 60.0893 234.304 56.9077 234.468 55.7587C234.632 54.6098 235.427 54.2643 234.956 52.6447C234.49 51.0261 233.604 47.3891 233.604 47.3891L229.538 47.2696L225.85 45.9087L224.795 45.6183L221.76 47.1428L221.776 49.1083L220.135 52.0574L219.901 62.5055C219.901 62.5055 220.044 64.961 220.999 65.3247C221.954 65.6884 222.56 67.1145 222.677 71.2631C222.794 75.4117 223.074 76.155 222.857 77.7084C222.639 79.2618 220.016 81.2895 219.003 82.3941C217.99 83.5043 214.88 83.409 213.647 78.9241C212.415 74.4392 212.801 75.1679 212.167 72.056C211.533 68.9441 211.897 69.1161 211.165 66.1296C210.439 63.1441 211.81 61.8134 212.584 59.8352C213.357 57.8626 213.279 58.8319 212.646 57.2397C212.014 55.6476 212.008 54.8578 212.186 54.1546C212.364 53.4514 211.74 53.0406 211.805 51.6199C211.877 50.2002 212.568 50.7156 213.428 50.0831C214.29 49.4451 216.263 46.8404 216.321 46.1032C216.38 45.3603 215.16 45.4879 218.454 44.9387C221.743 44.3885 220.741 43.6937 223.87 43.1654C226.999 42.637 228.068 43.0393 228.731 42.9394C229.393 42.8395 225.887 38.5834 225.887 38.5834L220.517 39.502L219.878 37.1201C219.878 37.1201 214.762 39.013 214.092 39.7908C213.423 40.5686 213.451 41.5178 212.45 41.9511C211.449 42.3845 209.539 42.7853 208.126 41.9844C206.713 41.1835 209.198 40.868 206.918 40.3069C204.643 39.747 204.556 39.9321 203.72 39.6081C202.884 39.284 203.872 39.1359 204.592 37.1706C205.312 35.2052 204.499 36.1689 201.873 37.0163C199.242 37.8627 198.968 37.512 199.102 38.7862C199.237 40.0603 196.534 41.9292 195.899 43.6573C195.258 45.3843 194.038 46.64 194.038 46.64C194.038 46.64 190.949 47.7802 189.973 45.7894C189.001 43.7997 189.139 42.0875 188.193 44.0333C187.246 45.9791 184.299 48.4466 184.237 46.5416C184.175 44.6365 188.307 40.3024 188.44 40.0568C188.572 39.8112 195.348 33.6144 195.348 33.6144L185.104 35.0443L174.737 32.664L172.198 33.7234L167.477 33.7569L166.551 29.8419L163.296 29.8803L163.509 31.3132C163.509 31.3132 123.307 32.0559 105.822 32.3088C87.3674 32.5753 50.8905 32.0672 24.5882 31.906L19.7479 32.6364L20.7949 39.6073C20.7949 39.6073 21.2 41.7956 19.432 44.013C19.432 44.013 18.6411 45.4988 18.117 46.4823C17.5873 47.4647 16.3803 47.6465 15.1078 47.0447C13.8398 46.4496 15.5424 44.3351 16.4291 43.4715L17.9139 43.2499L17.7296 38.2657C17.7296 38.2657 13.4085 36.8146 8.09215 34.388L8.0821 34.3804Z" fill="#FFFEEE"/>
<path d="M35.3079 155.842V153.394C35.4541 153.332 35.6037 153.367 35.7465 153.362C35.8828 153.359 36.0223 153.349 36.1735 153.377C36.1818 153.49 36.1901 153.593 36.1984 153.704C36.3346 153.781 36.4858 153.736 36.6287 153.741C36.7649 153.746 36.9044 153.756 37.0457 153.726C37.0888 153.626 37.0706 153.528 37.0706 153.435C37.0706 152.234 37.0706 151.031 37.0722 149.83C37.0722 149.736 37.054 149.638 37.0988 149.535C37.1786 149.525 37.2616 149.513 37.3513 149.501C37.3995 149.322 37.3513 149.144 37.3895 148.955C37.4444 148.95 37.4992 148.943 37.5607 148.938C37.6354 149.123 37.559 149.312 37.6205 149.5C37.7201 149.536 37.8215 149.513 37.9261 149.516C37.9477 149.456 37.966 149.41 37.9859 149.353C38.1604 149.312 38.3415 149.335 38.5308 149.34C38.5458 149.373 38.5591 149.403 38.574 149.433C38.6416 149.572 38.6754 149.709 38.6754 149.847C38.6754 150.013 38.6754 150.181 38.6754 150.347C38.6754 150.397 38.687 150.447 38.6937 150.508C38.8415 150.528 38.9777 150.528 39.1273 150.508C39.1372 150.456 39.1505 150.408 39.1538 150.358C39.1588 150.28 39.1538 150.201 39.1538 150.121C39.1538 148.024 39.1538 145.928 39.1538 143.832C39.1538 143.727 39.1538 143.622 39.1538 143.514C39.3067 143.441 39.4545 143.481 39.5991 143.476C39.7353 143.471 39.8748 143.464 40.0194 143.489C40.0675 143.67 40.0194 143.848 40.0543 144.019C40.2104 144.081 40.2586 144.082 40.5161 144.034C40.5393 143.928 40.5261 143.815 40.5294 143.704C40.5327 143.626 40.5294 143.546 40.546 143.469C40.5493 143.448 40.6058 143.438 40.6606 143.41C40.6673 143.636 40.6723 143.835 40.6789 144.048C40.8367 144.079 40.9796 144.071 41.1407 144.054C41.1524 143.918 41.1623 143.792 41.1723 143.667C41.3584 143.616 41.571 143.611 41.8584 143.65C41.9066 143.768 41.8584 143.905 41.8966 144.026C42.0744 144.077 42.2671 144.082 42.5213 144.041C42.5811 143.87 42.5146 143.68 42.5645 143.509C42.7705 143.468 43.1625 143.464 43.4051 143.501C43.4549 143.587 43.4333 143.685 43.4333 143.778C43.435 144.76 43.4333 145.744 43.4333 146.725C43.4333 146.82 43.4383 146.915 43.44 147.013C43.6327 147.078 43.8187 147.016 44.0098 147.063C44.0629 147.21 44.0297 147.368 44.0364 147.521C44.043 147.669 44.0413 147.817 44.043 147.96C44.2307 148.016 44.3055 148.019 44.5779 147.98C44.6294 147.657 44.568 147.323 44.6128 146.986C44.8172 146.92 45.0298 146.988 45.2341 146.94C45.289 146.848 45.2574 146.749 45.2657 146.656C45.2757 146.561 45.2441 146.463 45.2973 146.368C45.3305 146.365 45.3637 146.357 45.3986 146.358C45.4235 146.358 45.4485 146.37 45.475 146.375C45.5332 146.465 45.5033 146.563 45.5083 146.657C45.5132 146.744 45.5083 146.83 45.5083 146.93C45.6827 146.955 45.8389 147.011 45.9884 146.887C46.0183 146.862 46.0698 146.857 46.1096 146.857C46.2758 146.853 46.4402 146.853 46.6064 146.857C46.6479 146.857 46.7027 146.862 46.7276 146.887C46.8323 146.991 46.9453 146.963 47.0798 146.931C47.0832 146.83 47.0848 146.735 47.0881 146.641C47.0915 146.554 47.0948 146.468 47.0981 146.348C47.1463 146.385 47.1862 146.4 47.1878 146.42C47.1978 146.488 47.1961 146.559 47.1978 146.629C47.1978 146.724 47.1978 146.82 47.1978 146.925C47.4354 146.978 47.658 146.948 47.8689 146.951C47.9404 146.847 47.9155 146.747 47.9155 146.652C47.9171 145.24 47.9155 143.828 47.9155 142.416C47.9155 142.258 47.9155 142.101 47.9155 141.943C47.9155 141.893 47.9271 141.841 47.9337 141.78C48.1065 141.77 48.2693 141.76 48.4388 141.75C48.4471 141.685 48.457 141.634 48.4587 141.584C48.462 141.453 48.4521 141.32 48.462 141.19C48.4687 141.105 48.4089 140.998 48.5235 140.938C48.6199 141.011 48.5634 141.114 48.5717 141.202C48.5816 141.315 48.5733 141.429 48.575 141.544C48.575 141.587 48.575 141.632 48.58 141.675C48.5833 141.699 48.5999 141.723 48.6149 141.742C48.6248 141.753 48.6464 141.758 48.6614 141.758C48.6863 141.757 48.7096 141.747 48.7428 141.737C48.7528 141.66 48.7644 141.584 48.776 141.498H49.2644C49.281 141.579 49.296 141.66 49.3143 141.75C49.4571 141.762 49.5934 141.773 49.7396 141.785C49.7661 142.086 49.7495 142.375 49.7528 142.662C49.7562 142.941 49.7528 143.22 49.7528 143.513C49.9373 143.564 50.1034 143.552 50.2828 143.523C50.2944 143.385 50.3061 143.255 50.3177 143.116H50.532C50.5918 143.242 50.537 143.38 50.5868 143.519C50.6367 143.528 50.6931 143.542 50.7513 143.542C50.8908 143.546 51.0304 143.542 51.1683 143.546C51.2281 143.546 51.2862 143.559 51.3527 143.567C51.3859 143.822 51.366 144.066 51.3693 144.308C51.3726 144.554 51.3693 144.8 51.3693 145.044V146.491C51.3693 146.737 51.3693 146.983 51.3693 147.229C51.3693 147.473 51.3693 147.717 51.3693 147.97C51.5188 148.023 51.6583 147.996 51.7929 148C51.9225 148.003 52.0521 148 52.1966 147.998C52.2066 147.918 52.2215 147.852 52.2215 147.785C52.2232 147.39 52.2215 146.996 52.2232 146.601C52.2232 146.514 52.2298 146.428 52.2332 146.36C52.2581 146.338 52.2631 146.332 52.2697 146.327C52.2763 146.322 52.2863 146.318 52.2946 146.318C53.7399 146.315 55.1836 146.313 56.6289 146.31C56.6904 146.31 56.7502 146.315 56.8117 146.32C56.8183 146.32 56.8249 146.332 56.8499 146.353C56.8764 146.426 56.8632 146.523 56.8632 146.617C56.8632 147.294 56.8632 147.968 56.8632 148.644C56.8632 148.73 56.8715 148.815 56.8748 148.908C57.006 148.946 57.1223 148.941 57.2552 148.913C57.2785 148.687 57.2635 148.47 57.2668 148.254C57.2702 148.026 57.2668 147.797 57.2668 147.569C57.2668 147.342 57.2635 147.131 57.2668 146.911C57.2702 146.694 57.2486 146.476 57.2851 146.245C57.5842 146.204 57.8799 146.245 58.1822 146.215C58.1922 146.157 58.2055 146.107 58.2071 146.058C58.2105 145.97 58.2071 145.881 58.2071 145.795C58.2071 141.891 58.2071 137.989 58.2071 134.085C58.2071 133.982 58.1939 133.878 58.2271 133.773C58.4032 133.713 58.5809 133.773 58.7653 133.726C58.8218 133.519 58.7836 133.299 58.7903 133.085C58.7969 132.876 58.7903 132.667 58.7903 132.459C58.654 132.381 58.5161 132.444 58.3816 132.396C58.3268 132.25 58.3616 132.092 58.3567 131.937C58.3517 131.789 58.3567 131.642 58.3583 131.48C58.669 131.417 58.9747 131.484 59.2837 131.436C59.3401 131.19 59.272 130.942 59.3285 130.698H59.5096C59.5644 130.941 59.5013 131.181 59.5528 131.409C59.7322 131.464 59.7904 131.464 60.0229 131.421C60.0346 131.339 60.0479 131.256 60.0611 131.158C60.2871 131.12 60.508 131.133 60.7456 131.148C60.7572 131.24 60.7672 131.324 60.7772 131.406C60.9483 131.462 61.1393 131.467 61.435 131.422C61.4417 131.361 61.4566 131.294 61.4566 131.228C61.4583 130.843 61.4566 130.455 61.4566 130.07C61.4566 129.982 61.4566 129.896 61.4566 129.801C61.4948 129.786 61.5247 129.768 61.5563 129.763C61.5796 129.759 61.6045 129.771 61.6327 129.776C61.641 129.803 61.6576 129.826 61.6576 129.851C61.6593 130.271 61.661 130.693 61.661 131.113C61.661 131.21 61.661 131.304 61.661 131.416C61.7324 131.429 61.7889 131.449 61.8454 131.449C62.1145 131.452 62.3853 131.449 62.6544 131.451C62.7308 131.451 62.8073 131.459 62.8787 131.462C62.9252 131.69 62.9269 132.165 62.8787 132.401C62.7574 132.409 62.6312 132.417 62.4883 132.426C62.4617 132.655 62.4767 132.873 62.475 133.088C62.475 133.296 62.465 133.505 62.485 133.73C62.6727 133.736 62.8438 133.743 63.0299 133.751C63.0398 133.806 63.0548 133.854 63.0581 133.902C63.0631 133.981 63.0598 134.06 63.0598 134.14C63.0598 137.192 63.0598 140.245 63.0598 143.297C63.0598 143.4 63.0647 143.504 63.0664 143.619C63.2408 143.669 63.4053 143.644 63.5681 143.647C63.7326 143.65 63.8987 143.647 64.0599 143.647C64.1944 143.767 64.2575 143.925 64.3489 144.061C64.4453 144.207 64.535 144.358 64.628 144.506C64.7161 144.647 64.8058 144.787 64.9021 144.94C65.4736 144.95 66.0468 144.936 66.6066 144.948C66.6897 145.021 66.6648 145.106 66.6648 145.18C66.6664 145.724 66.6648 146.269 66.6664 146.812C66.6664 146.898 66.6731 146.985 66.678 147.081C66.8857 147.119 67.0801 147.111 67.2894 147.089C67.316 146.867 67.301 146.657 67.3027 146.45C67.306 146.23 67.3027 146.011 67.3027 145.792V144.553C67.3741 144.451 67.4672 144.446 67.5469 144.418C68.042 144.25 68.537 144.086 69.0321 143.92C69.1218 143.89 69.2115 143.853 69.3162 143.815C69.3178 143.461 69.3162 143.112 69.3162 142.762C69.3162 142.42 69.3162 142.077 69.3162 141.735V139.63C69.3162 139.288 69.3162 138.946 69.3162 138.604C69.3162 138.255 69.3162 137.906 69.3178 137.546C69.4939 137.509 69.6501 137.531 69.8046 137.526C69.9508 137.521 70.097 137.534 70.2598 137.511C70.2847 137.238 70.2698 136.976 70.2714 136.715C70.2747 136.442 70.2714 136.172 70.2714 135.899C70.2714 135.637 70.2714 135.373 70.2714 135.11V133.532C70.2714 133.26 70.2714 132.989 70.2714 132.716C70.2731 132.454 70.2615 132.193 70.2814 131.917C70.5605 131.854 70.8396 131.917 71.117 131.876C71.1785 131.788 71.1519 131.688 71.1519 131.595C71.1536 130.63 71.1519 129.665 71.1519 128.701C71.1519 128.535 71.1569 128.367 71.1502 128.201C71.1453 128.085 71.1835 128.005 71.2732 127.93C71.637 127.631 71.9975 127.327 72.3563 127.02C72.4411 126.947 72.5308 126.915 72.6421 126.917C72.7268 126.919 72.8165 126.939 72.9095 126.879C72.9477 126.646 72.9012 126.4 72.9361 126.145C72.9943 126.138 73.0491 126.131 73.1172 126.125C73.1704 126.38 73.1189 126.626 73.1521 126.876C73.2916 126.95 73.4329 126.922 73.5824 126.897C73.6139 126.749 73.5973 126.61 73.6006 126.472C73.604 126.341 73.6006 126.209 73.6006 126.076C73.6006 125.937 73.6023 125.799 73.604 125.645C73.6588 125.636 73.6987 125.626 73.7385 125.625C73.7817 125.625 73.8249 125.631 73.8797 125.636C73.888 125.698 73.9013 125.756 73.9013 125.816C73.903 126.096 73.9013 126.377 73.903 126.658C73.903 126.734 73.9096 126.812 73.9146 126.899C73.9877 126.907 74.0459 126.919 74.1057 126.92C74.2369 126.924 74.3665 126.922 74.4977 126.92C74.5692 126.92 74.634 126.934 74.6921 126.982C75.1058 127.331 75.5194 127.678 75.9431 128.033V131.861C76.0145 131.872 76.071 131.889 76.1291 131.889C76.3467 131.892 76.5627 131.889 76.792 131.889C76.8053 131.949 76.8235 131.997 76.8269 132.045C76.8318 132.123 76.8285 132.203 76.8285 132.281C76.8285 133.912 76.8285 135.544 76.8285 137.175C76.8285 137.28 76.8318 137.383 76.8335 137.499C77.1442 137.557 77.4482 137.499 77.7605 137.539C77.7671 137.599 77.7771 137.647 77.7788 137.698C77.7821 137.776 77.7788 137.856 77.7788 137.936C77.7788 140.875 77.7788 143.812 77.7788 146.75C77.7788 146.855 77.7788 146.958 77.7788 147.064C77.9 147.131 78.0113 147.094 78.131 147.106C78.1426 147.043 78.1575 146.994 78.1609 146.945C78.1658 146.867 78.1625 146.787 78.1625 146.707C78.1625 145.461 78.1625 144.217 78.1625 142.971C78.1625 142.868 78.1476 142.762 78.1874 142.657C78.2838 142.617 78.3802 142.634 78.4732 142.634C80.1361 142.634 81.7974 142.634 83.4604 142.634C83.5634 142.634 83.668 142.634 83.781 142.634C83.7943 142.569 83.8109 142.521 83.8126 142.471C83.8175 142.375 83.8142 142.278 83.8142 142.182C83.8142 136.218 83.8142 130.253 83.8142 124.289V123.909C83.8857 123.899 83.9438 123.884 84.0003 123.882C84.1913 123.879 84.3807 123.882 84.5867 123.882C84.5984 123.809 84.615 123.752 84.6166 123.694C84.62 123.397 84.6166 123.098 84.6183 122.799C84.6183 122.722 84.6266 122.644 84.6316 122.56C84.8625 122.502 85.0918 122.565 85.321 122.513C85.3692 122.222 85.3094 121.933 85.3592 121.643H85.5237C85.5769 121.933 85.5154 122.224 85.5636 122.516C85.7181 122.543 85.8609 122.541 86.0204 122.518C86.0586 122.055 86.0138 121.601 86.047 121.138C86.2414 121.086 86.4274 121.106 86.6251 121.119C86.665 121.274 86.6434 121.423 86.6467 121.57C86.6501 121.727 86.6467 121.885 86.6467 122.043V122.5C86.7082 122.513 86.7564 122.531 86.8046 122.531C87.0488 122.535 87.2913 122.531 87.5355 122.535C87.6119 122.535 87.6884 122.545 87.7698 122.55C87.8046 122.703 87.788 122.842 87.7897 122.98C87.793 123.129 87.7897 123.279 87.7897 123.427C87.7914 123.566 87.7764 123.706 87.808 123.857C88.0572 123.907 88.3097 123.855 88.5722 123.892C88.5805 123.947 88.5921 123.997 88.5938 124.045C88.5971 124.141 88.5938 124.237 88.5938 124.334C88.5938 129.166 88.5938 133.999 88.5938 138.831C88.5937 138.944 88.5771 139.059 88.6153 139.164C88.8263 139.205 89.4261 139.207 89.6736 139.165C89.6802 139.104 89.6935 139.036 89.6952 138.969C89.6968 138.662 89.6952 138.355 89.6952 138.049C89.6952 137.11 89.6952 136.172 89.6952 135.233C89.6952 135.138 89.6736 135.04 89.7301 134.944C89.9926 134.903 90.2633 134.954 90.5358 134.914C90.6039 134.73 90.5358 134.542 90.584 134.349C90.6238 134.339 90.672 134.319 90.7202 134.316C90.8415 134.311 90.9611 134.316 91.0956 134.316C91.1073 134.381 91.1239 134.429 91.1256 134.479C91.1305 134.618 91.1289 134.756 91.1305 134.889C91.3266 134.939 91.8632 134.946 92.1722 134.904C92.1788 134.843 92.1938 134.776 92.1938 134.71C92.1954 134.351 92.1938 133.99 92.1954 133.632C92.1954 133.545 92.1821 133.456 92.2253 133.364C92.2818 133.361 92.3416 133.356 92.4164 133.351C92.4263 133.416 92.443 133.472 92.443 133.529C92.4446 133.897 92.443 134.265 92.4446 134.633C92.4446 134.72 92.4513 134.806 92.4546 134.907C92.7569 134.957 93.051 134.904 93.355 134.944C93.3633 134.999 93.3733 135.049 93.3749 135.099C93.3783 135.177 93.3749 135.256 93.3749 135.336C93.3749 138.256 93.3749 141.177 93.3749 144.099C93.3749 144.204 93.3783 144.307 93.3799 144.408C93.4813 144.478 93.5743 144.443 93.6806 144.445C93.6922 144.376 93.7105 144.318 93.7105 144.26C93.7138 144.033 93.7105 143.803 93.7122 143.576C93.7122 143.489 93.7172 143.403 93.7205 143.315C93.86 143.24 94.0079 143.307 94.1424 143.255C94.2089 143.174 94.1807 143.074 94.1807 142.981C94.1823 141.964 94.1807 140.946 94.1823 139.929C94.1823 139.835 94.1873 139.738 94.1906 139.632C94.2637 139.622 94.3219 139.61 94.38 139.609C94.6143 139.607 94.8502 139.609 95.0844 139.607C95.1525 139.607 95.219 139.595 95.2937 139.589C95.3353 139.361 95.2904 139.14 95.327 138.916C95.3602 138.906 95.3917 138.888 95.4216 138.886C95.8569 138.884 96.2922 138.884 96.7274 138.886C96.7523 138.886 96.7756 138.898 96.8121 138.908C96.8603 139.122 96.8088 139.343 96.847 139.569C96.8836 139.58 96.9218 139.604 96.9617 139.604C97.2059 139.607 97.4484 139.604 97.6926 139.604C97.7175 139.604 97.7408 139.59 97.7641 139.585C97.8239 139.514 97.8006 139.431 97.8006 139.356C97.8023 138.768 97.8006 138.182 97.8023 137.594C97.8023 137.507 97.8089 137.421 97.8122 137.344C97.8787 137.293 97.9352 137.296 98.0049 137.333C98.0432 137.577 98.0166 137.83 98.0216 138.082C98.0265 138.328 98.0199 138.574 98.0232 138.818C98.0265 139.07 98.0049 139.323 98.0382 139.572C98.2408 139.622 98.6778 139.624 98.907 139.577C98.9652 139.379 98.8954 139.164 98.9535 138.951C99.1546 138.919 99.3489 138.921 99.5566 138.951C99.5981 139.162 99.5566 139.374 99.5882 139.585C99.8656 139.64 100.136 139.585 100.397 139.62C100.465 139.702 100.44 139.793 100.442 139.878C100.444 140.517 100.442 141.159 100.442 141.798C100.442 142.194 100.442 142.587 100.442 142.983C100.442 143.069 100.449 143.155 100.452 143.243C100.683 143.327 100.917 143.233 101.15 143.315C101.15 143.586 101.151 143.855 101.151 144.126C101.151 144.398 101.151 144.669 101.151 144.941C101.151 145.214 101.151 145.484 101.151 145.757V147.388C101.151 147.661 101.151 147.931 101.151 148.204C101.151 148.475 101.151 148.745 101.151 149.01C101.337 149.069 101.891 149.078 102.18 149.031C102.22 148.945 102.201 148.847 102.201 148.754C102.201 147.639 102.201 146.526 102.201 145.411C102.201 145.317 102.208 145.222 102.211 145.119C102.439 145.071 102.657 145.119 102.878 145.082C102.931 144.86 102.897 144.641 102.904 144.425C102.911 144.215 102.907 144.006 102.909 143.777C102.987 143.772 103.05 143.767 103.13 143.76C103.138 143.835 103.152 143.893 103.152 143.951C103.153 144.24 103.152 144.529 103.153 144.82C103.153 144.906 103.133 144.996 103.191 145.081C103.314 145.101 103.442 145.106 103.582 145.072C103.607 144.901 103.592 144.735 103.595 144.571C103.598 144.413 103.595 144.257 103.595 144.099C103.76 144.023 103.917 144.066 104.07 144.059C104.216 144.052 104.364 144.059 104.525 144.061C104.537 144.122 104.554 144.17 104.555 144.219C104.559 144.42 104.555 144.622 104.559 144.823C104.559 144.901 104.565 144.978 104.57 145.071C104.878 145.131 105.182 145.067 105.479 145.109C105.549 145.197 105.521 145.298 105.521 145.391C105.522 146.242 105.521 147.092 105.521 147.943C105.521 148.715 105.521 149.486 105.521 150.259C105.521 150.353 105.526 150.448 105.529 150.551C105.635 150.584 105.727 150.574 105.835 150.561C105.843 150.5 105.858 150.442 105.858 150.383C105.86 150.025 105.858 149.664 105.858 149.305C105.858 149.219 105.863 149.132 105.864 149.041C106.021 148.965 106.183 149.029 106.333 148.988C106.394 148.923 106.371 148.84 106.371 148.764C106.373 148.149 106.371 147.536 106.371 146.921V146.649C106.619 146.576 106.866 146.652 107.087 146.601C107.104 146.579 107.11 146.574 107.115 146.566C107.119 146.559 107.122 146.549 107.124 146.541C107.125 146.533 107.129 146.524 107.13 146.516C107.13 146.498 107.132 146.481 107.134 146.463C107.134 146.455 107.134 146.445 107.134 146.436C107.134 146.41 107.134 146.383 107.134 146.357C107.134 141.506 107.134 136.657 107.134 131.806C107.134 131.788 107.134 131.771 107.134 131.753C107.134 131.745 107.134 131.735 107.135 131.726C107.135 131.718 107.137 131.71 107.14 131.7C107.142 131.691 107.145 131.683 107.159 131.643C107.408 131.455 107.679 131.251 107.948 131.045C108.008 130.999 108.074 130.995 108.144 130.994C108.272 130.989 108.403 131.01 108.546 130.972C108.567 130.749 108.554 130.532 108.556 130.314C108.557 130.105 108.556 129.896 108.556 129.698C108.645 129.635 108.717 129.636 108.8 129.691C108.825 130.112 108.795 130.54 108.817 130.975C108.935 130.999 109.034 131.005 109.132 130.975C109.185 130.889 109.16 130.799 109.165 130.713C109.17 130.636 109.175 130.56 109.18 130.472C109.541 130.442 109.886 130.464 110.232 130.459C110.308 130.459 110.385 130.467 110.476 130.472C110.483 130.641 110.49 130.796 110.496 130.944C110.558 131.015 110.631 130.992 110.699 130.995C110.855 131.004 111.023 130.974 111.162 131.022C111.304 131.072 111.42 131.196 111.546 131.289C111.712 131.414 111.878 131.542 112.048 131.673L112.048 142.047C112.048 143.205 112.048 144.363 112.048 145.521C112.048 146.669 112.048 147.815 112.048 148.978C112.304 149.026 112.548 148.975 112.797 149.015C112.805 149.073 112.82 149.122 112.82 149.172C112.824 149.373 112.82 149.576 112.822 149.777C112.822 149.845 112.83 149.913 112.837 149.993C113.109 150.023 113.367 150.01 113.611 150.006C113.686 149.912 113.661 149.82 113.663 149.737C113.664 149.036 113.663 148.333 113.663 147.632C113.663 146.895 113.663 146.159 113.663 145.421C113.663 145.327 113.666 145.23 113.668 145.127C113.889 145.058 114.109 145.127 114.332 145.077C114.364 144.916 114.345 144.76 114.349 144.604C114.352 144.446 114.349 144.288 114.349 144.131V143.662C114.385 143.644 114.407 143.626 114.43 143.624C114.48 143.624 114.53 143.632 114.595 143.637C114.616 144.119 114.59 144.591 114.61 145.071C114.766 145.112 114.909 145.096 115.066 145.084C115.118 144.807 115.063 144.534 115.1 144.27C115.274 144.217 115.855 144.205 116.174 144.25C116.241 144.511 116.166 144.785 116.221 145.066C116.276 145.074 116.332 145.091 116.389 145.092C116.57 145.097 116.751 145.097 116.947 145.099C116.955 145.164 116.967 145.212 116.969 145.262C116.972 145.34 116.969 145.42 116.969 145.499C116.969 147.92 116.969 150.34 116.969 152.762C116.969 152.867 116.972 152.97 116.974 153.068C117.198 153.131 117.608 153.156 117.934 153.128C117.942 153.083 117.957 153.035 117.959 152.985C117.962 152.731 117.959 152.476 117.96 152.222C117.96 152.146 117.969 152.068 117.972 151.996C118.156 151.943 118.563 151.935 118.877 151.978C118.884 152.021 118.899 152.071 118.899 152.119C118.901 152.373 118.899 152.628 118.901 152.882C118.901 152.968 118.906 153.055 118.907 153.156C118.975 153.168 119.032 153.184 119.09 153.184C119.412 153.187 119.735 153.184 120.057 153.184C120.143 153.184 120.23 153.184 120.326 153.184C120.338 153.237 120.356 153.279 120.356 153.319C120.358 154.116 120.356 154.915 120.356 155.713C120.356 155.747 120.348 155.781 120.341 155.829C120.281 155.837 120.223 155.85 120.165 155.854C120.087 155.859 120.009 155.854 119.931 155.854C91.8349 155.854 63.7409 155.854 35.6452 155.854C35.5156 155.854 35.386 155.869 35.2365 155.831L35.3079 155.842Z" fill="#FFFEEE"/>
<path d="M54.1128 118.495L54.1291 118.4L54.173 118.128C53.8984 118.38 53.1101 118.558 52.1553 118.558C51.2005 118.558 50.4123 118.38 50.1378 118.128L50.1816 118.4L50.3112 119.14L50.3115 119.145C50.3115 119.212 50.7613 119.457 51.7032 119.519V119.085C51.7032 119.069 51.7188 119.055 51.7381 119.055H52.5731C52.5921 119.055 52.6079 119.069 52.6079 119.085V119.519C53.5498 119.457 53.9996 119.212 53.9996 119.145L54 119.14L54.1128 118.495ZM53.7148 117.586L52.9802 118.236C53.1899 118.27 53.3721 118.31 53.5332 118.367C53.884 118.274 54.1499 118.14 54.1985 118.002L54.208 117.947C54.2067 117.814 54.0078 117.684 53.7148 117.586ZM52.9169 118.229L53.6633 117.568C53.2924 117.456 52.7657 117.384 52.1901 117.381V118.178C52.4428 118.179 52.6895 118.197 52.9169 118.229ZM52.1397 117.381C51.5641 117.384 51.0183 117.456 50.6474 117.568L51.3938 118.229C51.6213 118.197 51.887 118.179 52.1397 118.177V117.381ZM50.8593 118.386C51.2155 118.467 51.6689 118.517 52.1553 118.517C52.6416 118.517 53.0951 118.467 53.4513 118.386C53.1052 118.279 52.6407 118.218 52.1553 118.218C51.6699 118.218 51.2052 118.278 50.8593 118.386ZM50.1027 117.947L50.1123 118.002C50.1608 118.14 50.4298 118.272 50.7806 118.365C50.9416 118.308 51.1283 118.254 51.338 118.221L50.6036 117.59C50.3106 117.688 50.1041 117.814 50.1027 117.947ZM51.5639 116.544V117.082H52.7468V116.544H51.5639ZM51.7725 117.104V117.37C51.7956 117.368 51.8188 117.367 51.8421 117.366V117.103L51.7725 117.104ZM52.4685 117.104V117.367C52.4917 117.368 52.5152 117.369 52.538 117.37V117.104L52.4685 117.104Z" fill="#FFFEEE"/>
<path d="M52.1699 119.525C51.9946 119.525 51.7349 119.515 51.6269 119.506L51.6174 119.001H52.6842L52.7128 119.496C52.6144 119.509 52.3975 119.525 52.1699 119.525Z" fill="#FFFEEE"/>
<path d="M48.0512 116.867L47.8286 116.846L47.8509 116.808L48.0458 116.8C48.0458 116.8 48.0293 116.754 48.0363 116.742C48.0433 116.73 48.0664 116.715 48.0664 116.715L48.1296 116.746L48.1502 116.69L48.0107 116.667C48.0051 116.683 47.9952 116.695 47.9888 116.692C47.9829 116.69 47.9818 116.677 47.9861 116.663L47.8693 116.644C47.8638 116.655 47.8565 116.662 47.8513 116.66C47.8467 116.658 47.8451 116.65 47.8465 116.64L47.6562 116.609C47.6562 116.609 47.6408 116.576 47.6652 116.562L48.0976 116.535C48.1191 116.509 48.1545 116.47 48.1751 116.464C48.2005 116.456 48.2379 116.477 48.2196 116.527L48.2881 116.522C48.2881 116.522 48.5581 116.196 48.591 116.167C48.6238 116.137 48.6964 116.136 48.7083 116.146C48.7201 116.156 48.7144 116.237 48.6414 116.327C48.5683 116.417 48.4596 116.543 48.4596 116.543C48.4596 116.543 48.4842 116.584 48.5156 116.638C48.535 116.62 48.5629 116.596 48.5754 116.596C48.5955 116.595 48.6147 116.641 48.6037 116.657C48.5981 116.665 48.5759 116.687 48.555 116.706C48.6031 116.79 48.6509 116.874 48.6488 116.876L48.6283 116.896L48.5017 116.833C48.4996 116.836 48.4971 116.839 48.4942 116.841C48.4821 116.853 48.4684 116.859 48.4637 116.854C48.459 116.849 48.4649 116.835 48.4771 116.823L48.4789 116.821L48.402 116.783C48.3998 116.786 48.3971 116.789 48.394 116.792C48.3818 116.804 48.3682 116.81 48.3634 116.805C48.3587 116.8 48.3647 116.786 48.3768 116.774L48.3794 116.772L48.3158 116.74L48.1913 116.848L48.2543 116.918L48.2268 116.948L48.1069 116.901L48.0953 116.881C48.0953 116.881 48.0649 116.918 48.0503 116.911C48.0357 116.904 48.0512 116.867 48.0512 116.867Z" fill="#FFFEEE"/>
<path fill-rule="evenodd" clip-rule="evenodd" d="M69.0903 76.9292C69.0903 76.9292 69.0896 76.9443 69.0897 76.9514L69.0895 76.955C69.0895 76.955 69.0883 76.9577 69.0859 76.9577C69.0836 76.9577 69.0824 76.9551 69.0824 76.9551L69.0824 76.9524V76.9524V76.9072V76.9072L69.0811 76.9075C69.0811 76.9075 69.0811 76.9189 69.0811 76.9245V76.9245L69.0803 76.9273L69.0781 76.9281L69.0762 76.9272L69.0756 76.9245V76.9058L69.0776 76.9012C69.0776 76.9012 69.0797 76.8994 69.082 76.8992C69.082 76.8992 69.0878 76.8992 69.0904 76.8992C69.0929 76.8992 69.0987 76.8992 69.0987 76.8992C69.101 76.8994 69.1031 76.9012 69.1031 76.9012L69.1051 76.9058V76.9245L69.1045 76.9272L69.1026 76.9281L69.1004 76.9273L69.0997 76.9247V76.9247C69.0997 76.9191 69.0997 76.9075 69.0997 76.9075L69.099 76.9067V76.9067L69.0984 76.9518L69.0983 76.9552C69.0983 76.9552 69.0972 76.9577 69.0948 76.9577C69.0924 76.9577 69.0913 76.9551 69.0913 76.9551V76.9551L69.0911 76.9514C69.0911 76.9443 69.0903 76.9292 69.0903 76.9292Z" fill="#D50000"/>
<path d="M69.0904 76.8992C69.0948 76.8992 69.0993 76.896 69.0993 76.8916C69.0993 76.8873 69.0957 76.8837 69.0913 76.8837C69.0869 76.8837 69.0834 76.8873 69.0834 76.8916C69.0834 76.896 69.086 76.8992 69.0904 76.8992Z" fill="#D50000"/>
<path fill-rule="evenodd" clip-rule="evenodd" d="M48.5541 114.752L48.553 114.752C48.553 114.752 48.5529 114.773 48.553 114.783L48.5527 114.789C48.5527 114.789 48.5509 114.793 48.5473 114.793C48.5438 114.793 48.5419 114.789 48.5419 114.789L48.5418 114.785V114.785V114.72L48.5408 114.72L48.5399 114.721C48.5399 114.721 48.5399 114.737 48.5399 114.745V114.745L48.5387 114.749L48.5353 114.75L48.5324 114.749L48.5315 114.745V114.718C48.5315 114.718 48.5325 114.714 48.5345 114.712C48.5366 114.71 48.5378 114.709 48.5413 114.709C48.5438 114.709 48.5502 114.709 48.5541 114.709C48.558 114.709 48.5644 114.709 48.5669 114.709C48.5703 114.709 48.5716 114.71 48.5736 114.712C48.5757 114.714 48.5767 114.718 48.5767 114.718V114.745L48.5758 114.749L48.5729 114.75L48.5695 114.749L48.5683 114.745V114.745C48.5683 114.737 48.5683 114.721 48.5683 114.721L48.5674 114.72L48.5664 114.72V114.784L48.5663 114.789C48.5663 114.789 48.5645 114.793 48.5609 114.793C48.5572 114.793 48.5555 114.789 48.5555 114.789V114.789L48.5552 114.783C48.5552 114.773 48.5552 114.752 48.5552 114.752L48.5541 114.752Z" fill="#D50000"/>
<path d="M48.5519 114.707C48.5579 114.707 48.5627 114.703 48.5627 114.697C48.5627 114.692 48.5579 114.687 48.5519 114.687C48.5459 114.687 48.5411 114.692 48.5411 114.697C48.5411 114.703 48.5459 114.707 48.5519 114.707Z" fill="#D50000"/>
<path d="M49.5809 115.342C49.6005 115.342 49.6165 115.358 49.6165 115.378C49.6165 115.398 49.6005 115.413 49.5809 115.413C49.5612 115.413 49.5453 115.398 49.5453 115.378C49.5453 115.358 49.5612 115.342 49.5809 115.342ZM49.5809 115.393C49.5894 115.393 49.5963 115.386 49.5963 115.378C49.5963 115.369 49.5894 115.362 49.5809 115.362C49.5723 115.362 49.5654 115.369 49.5654 115.378C49.5654 115.386 49.5723 115.393 49.5809 115.393Z" fill="#FFFEEE"/>
<path d="M49.3699 115.342C49.3896 115.342 49.4055 115.358 49.4055 115.378C49.4055 115.398 49.3896 115.413 49.3699 115.413C49.3503 115.413 49.3344 115.398 49.3344 115.378C49.3344 115.358 49.3503 115.342 49.3699 115.342ZM49.3699 115.393C49.3785 115.393 49.3854 115.386 49.3854 115.378C49.3854 115.369 49.3785 115.362 49.3699 115.362C49.3614 115.362 49.3544 115.369 49.3544 115.378C49.3544 115.386 49.3614 115.393 49.3699 115.393Z" fill="#FFFEEE"/>
<path d="M49.3021 115.198H49.6217C49.6334 115.198 49.6449 115.207 49.6473 115.219L49.6601 115.265C49.6624 115.277 49.6643 115.296 49.6643 115.307V115.356C49.6643 115.368 49.6547 115.378 49.643 115.378H49.6213C49.6213 115.354 49.6024 115.336 49.5793 115.336C49.5561 115.336 49.5372 115.354 49.5372 115.378H49.4121C49.4121 115.354 49.3932 115.336 49.3701 115.336C49.3469 115.336 49.328 115.354 49.328 115.378H49.3021C49.2904 115.378 49.2808 115.368 49.2808 115.356V115.219C49.2808 115.207 49.2904 115.198 49.3021 115.198ZM49.5758 115.288H49.6254L49.6176 115.269C49.6162 115.266 49.6177 115.262 49.621 115.261C49.6242 115.259 49.628 115.261 49.6293 115.264L49.639 115.287C49.6456 115.285 49.6497 115.279 49.6483 115.272L49.6368 115.226C49.6352 115.218 49.6267 115.211 49.6179 115.211H49.5758L49.5758 115.288ZM49.481 115.288H49.563V115.211H49.481V115.288ZM49.3863 115.288H49.4683V115.211H49.3863V115.288ZM49.2938 115.272C49.2938 115.28 49.301 115.288 49.3098 115.288H49.3735V115.211H49.3098C49.301 115.211 49.2938 115.218 49.2938 115.227V115.272Z" fill="#FFFEEE"/>
</svg>
